<?xml version="1.0" encoding="UTF-8" standalone="no"?>
<!DOCTYPE svg PUBLIC "-//W3C//DTD SVG 1.1//EN"
 "http://www.w3.org/Graphics/SVG/1.1/DTD/svg11.dtd">
<!-- Generated by graphviz version 2.43.0 (0)
 -->
<!-- Title: ROS2Group_hardware Pages: 1 -->
<svg width="1321pt" height="234pt"
 viewBox="0.00 0.00 1320.78 233.87" xmlns="http://www.w3.org/2000/svg" xmlns:xlink="http://www.w3.org/1999/xlink">
<g id="graph0" class="graph" transform="scale(1 1) rotate(0) translate(4 229.87)">
<title>ROS2Group_hardware</title>
<polygon fill="white" stroke="transparent" points="-4,4 -4,-229.87 1316.78,-229.87 1316.78,4 -4,4"/>
<text text-anchor="middle" x="656.39" y="-210.67" font-family="Times,serif" font-size="14.00">Group: hardware</text>
<g id="clust1" class="cluster">
<title>cluster_hardware</title>
<polygon fill="lightgrey" stroke="black" points="455,-61.87 455,-194.87 1304.78,-194.87 1304.78,-61.87 455,-61.87"/>
<text text-anchor="middle" x="879.89" y="-179.67" font-family="Times,serif" font-size="14.00">hardware</text>
</g>
<!-- /hardware/robot_state_publisher -->
<g id="node1" class="node">
<title>/hardware/robot_state_publisher</title>
<polygon fill="lightblue" stroke="black" points="712,-163.87 463,-163.87 463,-125.87 712,-125.87 712,-163.87"/>
<text text-anchor="middle" x="587.5" y="-148.67" font-family="Times,serif" font-size="14.00">/hardware/robot_state_publisher</text>
<text text-anchor="middle" x="587.5" y="-133.67" font-family="Times,serif" font-size="14.00">(robot_state_publisher)</text>
</g>
<!-- /hardware/robot_description -->
<g id="node3" class="node">
<title>/hardware/robot_description</title>
<ellipse fill="lightgreen" stroke="black" cx="1141.93" cy="-136.87" rx="154.71" ry="26.74"/>
<text text-anchor="middle" x="1141.93" y="-140.67" font-family="Times,serif" font-size="14.00">/hardware/robot_description</text>
<text text-anchor="middle" x="1141.93" y="-125.67" font-family="Times,serif" font-size="14.00">[std_msgs/msg/String]</text>
</g>
<!-- /hardware/robot_state_publisher&#45;&gt;/hardware/robot_description -->
<g id="edge1" class="edge">
<title>/hardware/robot_state_publisher&#45;&gt;/hardware/robot_description</title>
<path fill="none" stroke="black" d="M712.13,-143.08C790.45,-141.95 892.62,-140.47 977.59,-139.24"/>
<polygon fill="black" stroke="black" points="977.65,-142.74 987.6,-139.09 977.55,-135.74 977.65,-142.74"/>
<text text-anchor="middle" x="846" y="-145.67" font-family="Times,serif" font-size="14.00">pub</text>
</g>
<!-- /hardware/cartpole_simulator -->
<g id="node2" class="node">
<title>/hardware/cartpole_simulator</title>
<polygon fill="lightblue" stroke="black" points="701,-107.87 474,-107.87 474,-69.87 701,-69.87 701,-107.87"/>
<text text-anchor="middle" x="587.5" y="-92.67" font-family="Times,serif" font-size="14.00">/hardware/cartpole_simulator</text>
<text text-anchor="middle" x="587.5" y="-77.67" font-family="Times,serif" font-size="14.00">(breadcrumb_example)</text>
</g>
<!-- /hardware/joint_states -->
<g id="node4" class="node">
<title>/hardware/joint_states</title>
<ellipse fill="lightgreen" stroke="black" cx="1141.93" cy="-26.87" rx="161.85" ry="26.74"/>
<text text-anchor="middle" x="1141.93" y="-30.67" font-family="Times,serif" font-size="14.00">/hardware/joint_states</text>
<text text-anchor="middle" x="1141.93" y="-15.67" font-family="Times,serif" font-size="14.00">[sensor_msgs/msg/JointState]</text>
</g>
<!-- /hardware/cartpole_simulator&#45;&gt;/hardware/joint_states -->
<g id="edge2" class="edge">
<title>/hardware/cartpole_simulator&#45;&gt;/hardware/joint_states</title>
<path fill="none" stroke="orange" stroke-width="2" d="M665.99,-69.84C686.68,-65.32 709.1,-60.93 730,-57.87 810.11,-46.13 899.7,-38.71 974.73,-34.09"/>
<polygon fill="orange" stroke="orange" stroke-width="2" points="974.97,-37.58 984.74,-33.48 974.55,-30.59 974.97,-37.58"/>
<text text-anchor="middle" x="846" y="-61.67" font-family="Times,serif" font-size="14.00">pub INCOMPATIBLE_QOS</text>
</g>
<!-- /hardware/joint_states&#45;&gt;/hardware/robot_state_publisher -->
<g id="edge3" class="edge">
<title>/hardware/joint_states&#45;&gt;/hardware/robot_state_publisher</title>
<path fill="none" stroke="orange" stroke-width="2" d="M1017.17,-44.04C1004.32,-47.77 991.7,-52.33 980,-57.87 970.59,-62.33 971.41,-68.41 962,-72.87 950.17,-78.48 809.58,-104.78 704.36,-123.98"/>
<polygon fill="orange" stroke="orange" stroke-width="2" points="703.5,-120.58 694.29,-125.82 704.75,-127.47 703.5,-120.58"/>
<text text-anchor="middle" x="846" y="-121.67" font-family="Times,serif" font-size="14.00">subbed by INCOMPATIBLE_QOS</text>
</g>
<!-- /hardware/request/force -->
<g id="node5" class="node">
<title>/hardware/request/force</title>
<ellipse fill="lightgreen" stroke="black" cx="171" cy="-129.87" rx="133.79" ry="26.74"/>
<text text-anchor="middle" x="171" y="-133.67" font-family="Times,serif" font-size="14.00">/hardware/request/force</text>
<text text-anchor="middle" x="171" y="-118.67" font-family="Times,serif" font-size="14.00">[std_msgs/msg/Float64]</text>
</g>
<!-- /hardware/request/force&#45;&gt;/hardware/cartpole_simulator -->
<g id="edge4" class="edge">
<title>/hardware/request/force&#45;&gt;/hardware/cartpole_simulator</title>
<path fill="none" stroke="black" d="M291.33,-118.07C345.37,-112.72 409.19,-106.41 463.64,-101.02"/>
<polygon fill="black" stroke="black" points="464.09,-104.5 473.7,-100.03 463.4,-97.53 464.09,-104.5"/>
<text text-anchor="middle" x="402.5" y="-113.67" font-family="Times,serif" font-size="14.00">subbed by</text>
</g>
<!-- /hardware/reset -->
<g id="node6" class="node">
<title>/hardware/reset</title>
<polygon fill="lightyellow" stroke="black" points="171,-84.87 0,-46.87 171,-8.87 342,-46.87 171,-84.87"/>
<text text-anchor="middle" x="171" y="-50.67" font-family="Times,serif" font-size="14.00">/hardware/reset</text>
<text text-anchor="middle" x="171" y="-35.67" font-family="Times,serif" font-size="14.00">[std_srvs/srv/Trigger]</text>
</g>
<!-- /hardware/reset&#45;&gt;/hardware/cartpole_simulator -->
<g id="edge5" class="edge">
<title>/hardware/reset&#45;&gt;/hardware/cartpole_simulator</title>
<path fill="none" stroke="black" stroke-dasharray="5,2" d="M288.84,-58.71C343.39,-64.24 408.32,-70.82 463.61,-76.42"/>
<polygon fill="black" stroke="black" points="463.51,-79.93 473.81,-77.45 464.22,-72.96 463.51,-79.93"/>
<text text-anchor="middle" x="402.5" y="-77.67" font-family="Times,serif" font-size="14.00">provided by</text>
</g>
</g>
</svg>
