<?xml version="1.0" encoding="UTF-8" standalone="no"?>
<!DOCTYPE svg PUBLIC "-//W3C//DTD SVG 1.1//EN"
 "http://www.w3.org/Graphics/SVG/1.1/DTD/svg11.dtd">
<!-- Generated by graphviz version 2.43.0 (0)
 -->
<!-- Title: ROS2TopLevel Pages: 1 -->
<svg width="1939pt" height="482pt"
 viewBox="0.00 0.00 1939.12 481.85" xmlns="http://www.w3.org/2000/svg" xmlns:xlink="http://www.w3.org/1999/xlink">
<g id="graph0" class="graph" transform="scale(1 1) rotate(0) translate(4 477.85)">
<title>ROS2TopLevel</title>
<polygon fill="white" stroke="transparent" points="-4,4 -4,-477.85 1935.12,-477.85 1935.12,4 -4,4"/>
<g id="clust1" class="cluster">
<title>cluster_control</title>
<polygon fill="lightgrey" stroke="black" points="242,-232.85 242,-427.85 1894.83,-427.85 1894.83,-232.85 242,-232.85"/>
<text text-anchor="middle" x="1068.42" y="-412.65" font-family="Times,serif" font-size="14.00">control</text>
</g>
<g id="clust2" class="cluster">
<title>cluster_hardware</title>
<polygon fill="lightgrey" stroke="black" points="404.13,-109.85 404.13,-224.85 1923.12,-224.85 1923.12,-109.85 404.13,-109.85"/>
<text text-anchor="middle" x="1163.62" y="-209.65" font-family="Times,serif" font-size="14.00">hardware</text>
</g>
<!-- control -->
<g id="node1" class="node">
<title>control</title>
<polygon fill="lightblue" stroke="black" points="1291.26,-306.85 1216.26,-306.85 1216.26,-268.85 1291.26,-268.85 1291.26,-306.85"/>
<text text-anchor="middle" x="1253.76" y="-291.65" font-family="Times,serif" font-size="14.00">control</text>
<text text-anchor="middle" x="1253.76" y="-276.65" font-family="Times,serif" font-size="14.00">(1 node)</text>
</g>
<!-- /test/test -->
<g id="node2" class="node">
<title>/test/test</title>
<ellipse fill="lightgreen" stroke="black" cx="1753.19" cy="-359.85" rx="125.73" ry="26.74"/>
<text text-anchor="middle" x="1753.19" y="-363.65" font-family="Times,serif" font-size="14.00">/test/test</text>
<text text-anchor="middle" x="1753.19" y="-348.65" font-family="Times,serif" font-size="14.00">[std_msgs/msg/String]</text>
</g>
<!-- control&#45;&gt;/test/test -->
<g id="edge5" class="edge">
<title>control&#45;&gt;/test/test</title>
<path fill="none" stroke="black" d="M1291.36,-299.26C1298.88,-301.34 1306.79,-303.32 1314.26,-304.85 1418.18,-326.09 1537.74,-340.44 1625.66,-349.14"/>
<polygon fill="black" stroke="black" points="1625.39,-352.63 1635.68,-350.12 1626.07,-345.67 1625.39,-352.63"/>
<text text-anchor="middle" x="1443.76" y="-345.65" font-family="Times,serif" font-size="14.00">publishes</text>
</g>
<!-- /hardware/request/force -->
<g id="node3" class="node">
<title>/hardware/request/force</title>
<ellipse fill="lightgreen" stroke="black" cx="1753.19" cy="-277.85" rx="133.79" ry="26.74"/>
<text text-anchor="middle" x="1753.19" y="-281.65" font-family="Times,serif" font-size="14.00">/hardware/request/force</text>
<text text-anchor="middle" x="1753.19" y="-266.65" font-family="Times,serif" font-size="14.00">[std_msgs/msg/Float64]</text>
</g>
<!-- control&#45;&gt;/hardware/request/force -->
<g id="edge7" class="edge">
<title>control&#45;&gt;/hardware/request/force</title>
<path fill="none" stroke="black" d="M1291.34,-287.12C1357.59,-285.78 1500.71,-282.91 1609.99,-280.71"/>
<polygon fill="black" stroke="black" points="1610.2,-284.21 1620.13,-280.51 1610.06,-277.21 1610.2,-284.21"/>
<text text-anchor="middle" x="1443.76" y="-289.65" font-family="Times,serif" font-size="14.00">publishes</text>
</g>
<!-- /cartpole_ui -->
<g id="node9" class="node">
<title>/cartpole_ui</title>
<polygon fill="lightyellow" stroke="black" points="181,-290.85 0,-290.85 0,-252.85 181,-252.85 181,-290.85"/>
<text text-anchor="middle" x="90.5" y="-275.65" font-family="Times,serif" font-size="14.00">/cartpole_ui</text>
<text text-anchor="middle" x="90.5" y="-260.65" font-family="Times,serif" font-size="14.00">(breadcrumb_example)</text>
</g>
<!-- /test/test&#45;&gt;/cartpole_ui -->
<g id="edge6" class="edge">
<title>/test/test&#45;&gt;/cartpole_ui</title>
<path fill="none" stroke="black" d="M1652.92,-376.13C1356.28,-422.73 482.13,-544.72 242,-405.85 230.24,-399.05 191.6,-308.35 181,-299.85 179.43,-298.59 177.8,-297.39 176.12,-296.24"/>
<polygon fill="black" stroke="black" points="177.74,-293.13 167.38,-290.92 174.11,-299.11 177.74,-293.13"/>
<text text-anchor="middle" x="1063.76" y="-462.65" font-family="Times,serif" font-size="14.00">subscribed by</text>
</g>
<!-- hardware -->
<g id="node6" class="node">
<title>hardware</title>
<polygon fill="lightblue" stroke="black" points="1296.26,-187.85 1211.26,-187.85 1211.26,-149.85 1296.26,-149.85 1296.26,-187.85"/>
<text text-anchor="middle" x="1253.76" y="-172.65" font-family="Times,serif" font-size="14.00">hardware</text>
<text text-anchor="middle" x="1253.76" y="-157.65" font-family="Times,serif" font-size="14.00">(2 nodes)</text>
</g>
<!-- /hardware/request/force&#45;&gt;hardware -->
<g id="edge8" class="edge">
<title>/hardware/request/force&#45;&gt;hardware</title>
<path fill="none" stroke="black" d="M1662.52,-257.98C1638.52,-250.7 1613.17,-241.14 1591.26,-228.85 1581.93,-223.62 1583.06,-217.17 1573.26,-212.85 1467.36,-166.16 1427.89,-207.83 1314.26,-185.85 1311.63,-185.34 1308.95,-184.77 1306.25,-184.16"/>
<polygon fill="black" stroke="black" points="1307.02,-180.74 1296.47,-181.76 1305.35,-187.54 1307.02,-180.74"/>
<text text-anchor="middle" x="1443.76" y="-216.65" font-family="Times,serif" font-size="14.00">subscribed by</text>
</g>
<!-- /control/enable -->
<g id="node4" class="node">
<title>/control/enable</title>
<polygon fill="lightyellow" stroke="black" points="583.13,-396.85 410.13,-358.85 583.13,-320.85 756.13,-358.85 583.13,-396.85"/>
<text text-anchor="middle" x="583.13" y="-362.65" font-family="Times,serif" font-size="14.00">/control/enable</text>
<text text-anchor="middle" x="583.13" y="-347.65" font-family="Times,serif" font-size="14.00">[std_srvs/srv/SetBool]</text>
</g>
<!-- /control/enable&#45;&gt;control -->
<g id="edge9" class="edge">
<title>/control/enable&#45;&gt;control</title>
<path fill="none" stroke="black" stroke-dasharray="5,2" d="M732.28,-353.58C856.29,-347.3 1037.46,-333.74 1193.26,-304.85 1197.48,-304.07 1201.83,-303.12 1206.17,-302.07"/>
<polygon fill="black" stroke="black" points="1207.4,-305.37 1216.2,-299.47 1205.65,-298.59 1207.4,-305.37"/>
<text text-anchor="middle" x="1063.76" y="-341.65" font-family="Times,serif" font-size="14.00">provided by</text>
</g>
<!-- /control/track_position -->
<g id="node5" class="node">
<title>/control/track_position</title>
<polygon fill="lightcoral" stroke="black" points="916.39,-271.85 749.76,-302.91 416.5,-302.91 249.87,-271.85 416.5,-240.8 749.76,-240.8 916.39,-271.85"/>
<text text-anchor="middle" x="583.13" y="-275.65" font-family="Times,serif" font-size="14.00">/control/track_position</text>
<text text-anchor="middle" x="583.13" y="-260.65" font-family="Times,serif" font-size="14.00">[breadcrumb_example_interfaces/action/TrackPosition]</text>
</g>
<!-- /control/track_position&#45;&gt;control -->
<g id="edge13" class="edge">
<title>/control/track_position&#45;&gt;control</title>
<path fill="none" stroke="black" stroke-dasharray="1,5" d="M878.86,-278.9C1004.4,-281.91 1137.5,-285.09 1205.99,-286.73"/>
<polygon fill="black" stroke="black" points="1205.93,-290.23 1216.01,-286.97 1206.1,-283.23 1205.93,-290.23"/>
<text text-anchor="middle" x="1063.76" y="-289.65" font-family="Times,serif" font-size="14.00">served by</text>
</g>
<!-- /hardware/joint_states -->
<g id="node7" class="node">
<title>/hardware/joint_states</title>
<ellipse fill="lightgreen" stroke="black" cx="1753.19" cy="-155.85" rx="161.85" ry="26.74"/>
<text text-anchor="middle" x="1753.19" y="-159.65" font-family="Times,serif" font-size="14.00">/hardware/joint_states</text>
<text text-anchor="middle" x="1753.19" y="-144.65" font-family="Times,serif" font-size="14.00">[sensor_msgs/msg/JointState]</text>
</g>
<!-- hardware&#45;&gt;/hardware/joint_states -->
<g id="edge1" class="edge">
<title>hardware&#45;&gt;/hardware/joint_states</title>
<path fill="none" stroke="orange" stroke-width="2" d="M1283.54,-149.69C1292.94,-144.47 1303.68,-139.52 1314.26,-136.85 1422.56,-109.58 1550.6,-119.82 1640.16,-133.52"/>
<polygon fill="orange" stroke="orange" stroke-width="2" points="1639.65,-136.98 1650.07,-135.08 1640.73,-130.07 1639.65,-136.98"/>
<text text-anchor="middle" x="1443.76" y="-140.65" font-family="Times,serif" font-size="14.00">publishes INCOMPATIBLE_QOS</text>
</g>
<!-- /hardware/joint_states&#45;&gt;control -->
<g id="edge3" class="edge">
<title>/hardware/joint_states&#45;&gt;control</title>
<path fill="none" stroke="black" d="M1699.36,-181.21C1664.35,-196.99 1616.99,-216.38 1573.26,-227.85 1460.96,-257.31 1426.12,-230.74 1314.26,-261.85 1309.87,-263.07 1305.37,-264.56 1300.92,-266.19"/>
<polygon fill="black" stroke="black" points="1299.34,-263.06 1291.31,-269.97 1301.9,-269.57 1299.34,-263.06"/>
<text text-anchor="middle" x="1443.76" y="-265.65" font-family="Times,serif" font-size="14.00">subscribed by</text>
</g>
<!-- /hardware/joint_states&#45;&gt;hardware -->
<g id="edge4" class="edge">
<title>/hardware/joint_states&#45;&gt;hardware</title>
<path fill="none" stroke="orange" stroke-width="2" d="M1593.11,-160.01C1494.4,-162.59 1373.95,-165.74 1306.65,-167.5"/>
<polygon fill="orange" stroke="orange" stroke-width="2" points="1306.22,-164.01 1296.32,-167.77 1306.4,-171 1306.22,-164.01"/>
<text text-anchor="middle" x="1443.76" y="-170.65" font-family="Times,serif" font-size="14.00">subscribed by INCOMPATIBLE_QOS</text>
</g>
<!-- /hardware/joint_states&#45;&gt;/cartpole_ui -->
<g id="edge2" class="edge">
<title>/hardware/joint_states&#45;&gt;/cartpole_ui</title>
<path fill="none" stroke="orange" stroke-width="2" d="M1677.63,-132.04C1450.31,-63.79 750.53,113.76 242,-108.85 178.79,-136.52 130.35,-205.28 106.96,-244.08"/>
<polygon fill="orange" stroke="orange" stroke-width="2" points="103.89,-242.4 101.82,-252.79 109.92,-245.96 103.89,-242.4"/>
<text text-anchor="middle" x="1063.76" y="-29.65" font-family="Times,serif" font-size="14.00">subscribed by INCOMPATIBLE_QOS</text>
</g>
<!-- /hardware/reset -->
<g id="node8" class="node">
<title>/hardware/reset</title>
<polygon fill="lightyellow" stroke="black" points="583.13,-193.85 412.13,-155.85 583.13,-117.85 754.13,-155.85 583.13,-193.85"/>
<text text-anchor="middle" x="583.13" y="-159.65" font-family="Times,serif" font-size="14.00">/hardware/reset</text>
<text text-anchor="middle" x="583.13" y="-144.65" font-family="Times,serif" font-size="14.00">[std_srvs/srv/Trigger]</text>
</g>
<!-- /hardware/reset&#45;&gt;hardware -->
<g id="edge11" class="edge">
<title>/hardware/reset&#45;&gt;hardware</title>
<path fill="none" stroke="black" stroke-dasharray="5,2" d="M740.47,-158.89C888.86,-161.78 1103.28,-165.94 1200.88,-167.84"/>
<polygon fill="black" stroke="black" points="1201.01,-171.35 1211.07,-168.04 1201.14,-164.35 1201.01,-171.35"/>
<text text-anchor="middle" x="1063.76" y="-170.65" font-family="Times,serif" font-size="14.00">provided by</text>
</g>
<!-- /cartpole_ui&#45;&gt;/control/enable -->
<g id="edge10" class="edge">
<title>/cartpole_ui&#45;&gt;/control/enable</title>
<path fill="none" stroke="black" stroke-dasharray="5,2" d="M156.28,-290.93C182.7,-298.22 213.64,-306.15 242,-311.85 312.31,-326 391.66,-337.23 456.02,-345.16"/>
<polygon fill="black" stroke="black" points="455.87,-348.67 466.22,-346.4 456.72,-341.72 455.87,-348.67"/>
<text text-anchor="middle" x="215.5" y="-312.65" font-family="Times,serif" font-size="14.00">calls</text>
</g>
<!-- /cartpole_ui&#45;&gt;/control/track_position -->
<g id="edge14" class="edge">
<title>/cartpole_ui&#45;&gt;/control/track_position</title>
<path fill="none" stroke="black" stroke-dasharray="1,5" d="M181.2,-271.85C199.11,-271.85 218.89,-271.85 239.8,-271.85"/>
<polygon fill="black" stroke="black" points="239.82,-275.35 249.82,-271.85 239.82,-268.35 239.82,-275.35"/>
<text text-anchor="middle" x="215.5" y="-275.65" font-family="Times,serif" font-size="14.00">calls</text>
</g>
<!-- /cartpole_ui&#45;&gt;/hardware/reset -->
<g id="edge12" class="edge">
<title>/cartpole_ui&#45;&gt;/hardware/reset</title>
<path fill="none" stroke="black" stroke-dasharray="5,2" d="M154.59,-252.81C181.42,-244.97 213.13,-236.06 242,-228.85 322.14,-208.83 413.74,-189.36 481.67,-175.57"/>
<polygon fill="black" stroke="black" points="482.41,-179 491.52,-173.58 481.02,-172.13 482.41,-179"/>
<text text-anchor="middle" x="215.5" y="-242.65" font-family="Times,serif" font-size="14.00">calls</text>
</g>
<!-- /rviz2 -->
<g id="node10" class="node">
<title>/rviz2</title>
<polygon fill="lightyellow" stroke="black" points="122,-346.85 59,-346.85 59,-308.85 122,-308.85 122,-346.85"/>
<text text-anchor="middle" x="90.5" y="-331.65" font-family="Times,serif" font-size="14.00">/rviz2</text>
<text text-anchor="middle" x="90.5" y="-316.65" font-family="Times,serif" font-size="14.00">(rviz2)</text>
</g>
</g>
</svg>
