<?xml version="1.0" encoding="UTF-8" standalone="no"?>
<!DOCTYPE svg PUBLIC "-//W3C//DTD SVG 1.1//EN"
 "http://www.w3.org/Graphics/SVG/1.1/DTD/svg11.dtd">
<!-- Generated by graphviz version 2.43.0 (0)
 -->
<!-- Title: ROS2Group_hardware Pages: 1 -->
<svg width="1363pt" height="234pt"
 viewBox="0.00 0.00 1362.78 233.87" xmlns="http://www.w3.org/2000/svg" xmlns:xlink="http://www.w3.org/1999/xlink">
<g id="graph0" class="graph" transform="scale(1 1) rotate(0) translate(4 229.87)">
<title>ROS2Group_hardware</title>
<polygon fill="white" stroke="transparent" points="-4,4 -4,-229.87 1358.78,-229.87 1358.78,4 -4,4"/>
<text text-anchor="middle" x="677.39" y="-210.67" font-family="Times,serif" font-size="14.00">Group: hardware</text>
<g id="clust1" class="cluster">
<title>cluster_hardware</title>
<polygon fill="lightgrey" stroke="black" points="470,-61.87 470,-194.87 1346.78,-194.87 1346.78,-61.87 470,-61.87"/>
<text text-anchor="middle" x="908.39" y="-179.67" font-family="Times,serif" font-size="14.00">hardware</text>
</g>
<!-- /hardware/robot_state_publisher -->
<g id="node1" class="node">
<title>/hardware/robot_state_publisher</title>
<polygon fill="lightblue" stroke="black" points="727,-163.87 478,-163.87 478,-125.87 727,-125.87 727,-163.87"/>
<text text-anchor="middle" x="602.5" y="-148.67" font-family="Times,serif" font-size="14.00">/hardware/robot_state_publisher</text>
<text text-anchor="middle" x="602.5" y="-133.67" font-family="Times,serif" font-size="14.00">(robot_state_publisher)</text>
</g>
<!-- /hardware/robot_description -->
<g id="node3" class="node">
<title>/hardware/robot_description</title>
<ellipse fill="lightgreen" stroke="black" cx="1183.93" cy="-136.87" rx="154.71" ry="26.74"/>
<text text-anchor="middle" x="1183.93" y="-140.67" font-family="Times,serif" font-size="14.00">/hardware/robot_description</text>
<text text-anchor="middle" x="1183.93" y="-125.67" font-family="Times,serif" font-size="14.00">[std_msgs/msg/String]</text>
</g>
<!-- /hardware/robot_state_publisher&#45;&gt;/hardware/robot_description -->
<g id="edge1" class="edge">
<title>/hardware/robot_state_publisher&#45;&gt;/hardware/robot_description</title>
<path fill="none" stroke="black" d="M727.09,-143.16C812.31,-141.99 926.5,-140.41 1019.27,-139.13"/>
<polygon fill="black" stroke="black" points="1019.37,-142.63 1029.32,-138.99 1019.27,-135.63 1019.37,-142.63"/>
<text text-anchor="middle" x="874.5" y="-145.67" font-family="Times,serif" font-size="14.00">publishes</text>
</g>
<!-- /hardware/cartpole_simulator -->
<g id="node2" class="node">
<title>/hardware/cartpole_simulator</title>
<polygon fill="lightblue" stroke="black" points="716,-107.87 489,-107.87 489,-69.87 716,-69.87 716,-107.87"/>
<text text-anchor="middle" x="602.5" y="-92.67" font-family="Times,serif" font-size="14.00">/hardware/cartpole_simulator</text>
<text text-anchor="middle" x="602.5" y="-77.67" font-family="Times,serif" font-size="14.00">(breadcrumb_example)</text>
</g>
<!-- /hardware/joint_states -->
<g id="node4" class="node">
<title>/hardware/joint_states</title>
<ellipse fill="lightgreen" stroke="black" cx="1183.93" cy="-26.87" rx="161.85" ry="26.74"/>
<text text-anchor="middle" x="1183.93" y="-30.67" font-family="Times,serif" font-size="14.00">/hardware/joint_states</text>
<text text-anchor="middle" x="1183.93" y="-15.67" font-family="Times,serif" font-size="14.00">[sensor_msgs/msg/JointState]</text>
</g>
<!-- /hardware/cartpole_simulator&#45;&gt;/hardware/joint_states -->
<g id="edge2" class="edge">
<title>/hardware/cartpole_simulator&#45;&gt;/hardware/joint_states</title>
<path fill="none" stroke="orange" stroke-width="2" d="M680.61,-69.86C701.4,-65.31 723.97,-60.9 745,-57.87 833.71,-45.08 933.33,-37.5 1015.12,-33.04"/>
<polygon fill="orange" stroke="orange" stroke-width="2" points="1015.71,-36.51 1025.51,-32.49 1015.34,-29.52 1015.71,-36.51"/>
<text text-anchor="middle" x="874.5" y="-61.67" font-family="Times,serif" font-size="14.00">publishes INCOMPATIBLE_QOS</text>
</g>
<!-- /hardware/joint_states&#45;&gt;/hardware/robot_state_publisher -->
<g id="edge3" class="edge">
<title>/hardware/joint_states&#45;&gt;/hardware/robot_state_publisher</title>
<path fill="none" stroke="orange" stroke-width="2" d="M1059.17,-44.04C1046.32,-47.77 1033.7,-52.33 1022,-57.87 1012.59,-62.33 1013.44,-68.47 1004,-72.87 1000.73,-74.4 838.3,-103.34 721.33,-124.05"/>
<polygon fill="orange" stroke="orange" stroke-width="2" points="720.46,-120.65 711.22,-125.84 721.68,-127.55 720.46,-120.65"/>
<text text-anchor="middle" x="874.5" y="-121.67" font-family="Times,serif" font-size="14.00">subscribed by INCOMPATIBLE_QOS</text>
</g>
<!-- /hardware/request/force -->
<g id="node5" class="node">
<title>/hardware/request/force</title>
<ellipse fill="lightgreen" stroke="black" cx="171" cy="-129.87" rx="133.79" ry="26.74"/>
<text text-anchor="middle" x="171" y="-133.67" font-family="Times,serif" font-size="14.00">/hardware/request/force</text>
<text text-anchor="middle" x="171" y="-118.67" font-family="Times,serif" font-size="14.00">[std_msgs/msg/Float64]</text>
</g>
<!-- /hardware/request/force&#45;&gt;/hardware/cartpole_simulator -->
<g id="edge4" class="edge">
<title>/hardware/request/force&#45;&gt;/hardware/cartpole_simulator</title>
<path fill="none" stroke="black" d="M291.93,-118.42C350.23,-112.86 420.2,-106.18 478.86,-100.58"/>
<polygon fill="black" stroke="black" points="479.3,-104.05 488.92,-99.62 478.63,-97.08 479.3,-104.05"/>
<text text-anchor="middle" x="410" y="-114.67" font-family="Times,serif" font-size="14.00">subscribed by</text>
</g>
<!-- /hardware/reset -->
<g id="node6" class="node">
<title>/hardware/reset</title>
<polygon fill="lightyellow" stroke="black" points="171,-84.87 0,-46.87 171,-8.87 342,-46.87 171,-84.87"/>
<text text-anchor="middle" x="171" y="-50.67" font-family="Times,serif" font-size="14.00">/hardware/reset</text>
<text text-anchor="middle" x="171" y="-35.67" font-family="Times,serif" font-size="14.00">[std_srvs/srv/Trigger]</text>
</g>
<!-- /hardware/reset&#45;&gt;/hardware/cartpole_simulator -->
<g id="edge5" class="edge">
<title>/hardware/reset&#45;&gt;/hardware/cartpole_simulator</title>
<path fill="none" stroke="black" stroke-dasharray="5,2" d="M290.22,-58.43C348.78,-64.16 419.45,-71.07 478.63,-76.86"/>
<polygon fill="black" stroke="black" points="478.49,-80.36 488.79,-77.85 479.18,-73.39 478.49,-80.36"/>
<text text-anchor="middle" x="410" y="-77.67" font-family="Times,serif" font-size="14.00">provided by</text>
</g>
</g>
</svg>
