<?xml version="1.0" encoding="UTF-8" standalone="no"?>
<!DOCTYPE svg PUBLIC "-//W3C//DTD SVG 1.1//EN"
 "http://www.w3.org/Graphics/SVG/1.1/DTD/svg11.dtd">
<!-- Generated by graphviz version 2.43.0 (0)
 -->
<!-- Title: ROS2Graph Pages: 1 -->
<svg width="1709pt" height="571pt"
 viewBox="0.00 0.00 1708.97 571.00" xmlns="http://www.w3.org/2000/svg" xmlns:xlink="http://www.w3.org/1999/xlink">
<g id="graph0" class="graph" transform="scale(1 1) rotate(0) translate(4 567)">
<title>ROS2Graph</title>
<polygon fill="white" stroke="transparent" points="-4,4 -4,-567 1704.97,-567 1704.97,4 -4,4"/>
<g id="clust1" class="cluster">
<title>cluster__cartpole_ui</title>
<polygon fill="lightgrey" stroke="black" points="1088.26,-248 1088.26,-325 1285.26,-325 1285.26,-248 1088.26,-248"/>
<text text-anchor="middle" x="1186.76" y="-309.8" font-family="Times,serif" font-size="14.00">/cartpole_ui</text>
</g>
<g id="clust2" class="cluster">
<title>cluster__control_cartpole_controller</title>
<polygon fill="lightgrey" stroke="black" points="16,-203 16,-470 1008.26,-470 1008.26,-203 16,-203"/>
<text text-anchor="middle" x="512.13" y="-454.8" font-family="Times,serif" font-size="14.00">/control/cartpole_controller</text>
</g>
<g id="clust3" class="cluster">
<title>cluster__hardware_robot_state_publisher</title>
<polygon fill="lightgrey" stroke="black" points="1054.26,-102 1054.26,-195 1692.97,-195 1692.97,-102 1054.26,-102"/>
<text text-anchor="middle" x="1373.62" y="-179.8" font-family="Times,serif" font-size="14.00">/hardware/robot_state_publisher</text>
</g>
<g id="clust4" class="cluster">
<title>cluster__hardware_cartpole_simulator</title>
<polygon fill="lightgrey" stroke="black" points="8,-8 8,-195 846.13,-195 846.13,-8 8,-8"/>
<text text-anchor="middle" x="427.07" y="-179.8" font-family="Times,serif" font-size="14.00">/hardware/cartpole_simulator</text>
</g>
<g id="clust5" class="cluster">
<title>cluster__rviz2</title>
<polygon fill="lightgrey" stroke="black" points="90,-478 90,-555 169,-555 169,-478 90,-478"/>
<text text-anchor="middle" x="129.5" y="-539.8" font-family="Times,serif" font-size="14.00">/rviz2</text>
</g>
<!-- /cartpole_ui -->
<g id="node1" class="node">
<title>/cartpole_ui</title>
<polygon fill="lightblue" stroke="black" points="1277.26,-294 1096.26,-294 1096.26,-256 1277.26,-256 1277.26,-294"/>
<text text-anchor="middle" x="1186.76" y="-278.8" font-family="Times,serif" font-size="14.00">/cartpole_ui</text>
<text text-anchor="middle" x="1186.76" y="-263.8" font-family="Times,serif" font-size="14.00">(breadcrumb_example)</text>
</g>
<!-- /control/cartpole_controller -->
<g id="node2" class="node">
<title>/control/cartpole_controller</title>
<polygon fill="lightblue" stroke="black" points="235,-317 24,-317 24,-279 235,-279 235,-317"/>
<text text-anchor="middle" x="129.5" y="-301.8" font-family="Times,serif" font-size="14.00">/control/cartpole_controller</text>
<text text-anchor="middle" x="129.5" y="-286.8" font-family="Times,serif" font-size="14.00">(breadcrumb_example)</text>
</g>
<!-- /hardware/request/force -->
<g id="node3" class="node">
<title>/hardware/request/force</title>
<ellipse fill="lightgreen" stroke="black" cx="667.13" cy="-238" rx="133.79" ry="26.74"/>
<text text-anchor="middle" x="667.13" y="-241.8" font-family="Times,serif" font-size="14.00">/hardware/request/force</text>
<text text-anchor="middle" x="667.13" y="-226.8" font-family="Times,serif" font-size="14.00">[std_msgs/msg/Float64]</text>
</g>
<!-- /control/cartpole_controller&#45;&gt;/hardware/request/force -->
<g id="edge5" class="edge">
<title>/control/cartpole_controller&#45;&gt;/hardware/request/force</title>
<path fill="none" stroke="black" d="M235.05,-285.48C266.82,-281.72 301.83,-277.64 334,-274 401.42,-266.37 476.58,-258.2 538.33,-251.57"/>
<polygon fill="black" stroke="black" points="538.94,-255.02 548.51,-250.48 538.2,-248.06 538.94,-255.02"/>
<text text-anchor="middle" x="288.5" y="-285.8" font-family="Times,serif" font-size="14.00">pub</text>
</g>
<!-- /control/enable -->
<g id="node4" class="node">
<title>/control/enable</title>
<polygon fill="lightyellow" stroke="black" points="667.13,-359 494.13,-321 667.13,-283 840.13,-321 667.13,-359"/>
<text text-anchor="middle" x="667.13" y="-324.8" font-family="Times,serif" font-size="14.00">/control/enable</text>
<text text-anchor="middle" x="667.13" y="-309.8" font-family="Times,serif" font-size="14.00">[std_srvs/srv/SetBool]</text>
</g>
<!-- /control/cartpole_controller&#45;&gt;/control/enable -->
<g id="edge8" class="edge">
<title>/control/cartpole_controller&#45;&gt;/control/enable</title>
<path fill="none" stroke="black" stroke-dasharray="5,2" d="M235.05,-302.49C313.83,-305.87 423.1,-310.56 511.91,-314.38"/>
<polygon fill="black" stroke="black" points="511.94,-317.88 522.08,-314.81 512.24,-310.89 511.94,-317.88"/>
<text text-anchor="middle" x="288.5" y="-308.8" font-family="Times,serif" font-size="14.00">provide</text>
</g>
<!-- /control/track_position -->
<g id="node5" class="node">
<title>/control/track_position</title>
<polygon fill="lightcoral" stroke="black" points="1000.39,-408 833.76,-439.05 500.5,-439.05 333.87,-408 500.5,-376.95 833.76,-376.95 1000.39,-408"/>
<text text-anchor="middle" x="667.13" y="-411.8" font-family="Times,serif" font-size="14.00">/control/track_position</text>
<text text-anchor="middle" x="667.13" y="-396.8" font-family="Times,serif" font-size="14.00">[breadcrumb_example_interfaces/action/TrackPosition]</text>
</g>
<!-- /control/cartpole_controller&#45;&gt;/control/track_position -->
<g id="edge12" class="edge">
<title>/control/cartpole_controller&#45;&gt;/control/track_position</title>
<path fill="none" stroke="black" stroke-dasharray="1,5" d="M176.97,-317.14C217.69,-333.15 278.83,-355.34 334,-368 365.55,-375.24 399.1,-381.22 432.3,-386.15"/>
<polygon fill="black" stroke="black" points="432.18,-389.67 442.58,-387.65 433.19,-382.75 432.18,-389.67"/>
<text text-anchor="middle" x="288.5" y="-365.8" font-family="Times,serif" font-size="14.00">serve</text>
</g>
<!-- /hardware/cartpole_simulator -->
<g id="node8" class="node">
<title>/hardware/cartpole_simulator</title>
<polygon fill="lightblue" stroke="black" points="243,-156 16,-156 16,-118 243,-118 243,-156"/>
<text text-anchor="middle" x="129.5" y="-140.8" font-family="Times,serif" font-size="14.00">/hardware/cartpole_simulator</text>
<text text-anchor="middle" x="129.5" y="-125.8" font-family="Times,serif" font-size="14.00">(breadcrumb_example)</text>
</g>
<!-- /hardware/request/force&#45;&gt;/hardware/cartpole_simulator -->
<g id="edge6" class="edge">
<title>/hardware/request/force&#45;&gt;/hardware/cartpole_simulator</title>
<path fill="none" stroke="black" d="M523.6,-234.72C463.73,-229.93 394.17,-219.79 334,-199 325.14,-195.94 324.6,-191.72 316,-188 285.5,-174.8 250.69,-164.16 219.52,-156.08"/>
<polygon fill="black" stroke="black" points="523.66,-238.24 533.89,-235.5 524.18,-231.26 523.66,-238.24"/>
<text text-anchor="middle" x="288.5" y="-191.8" font-family="Times,serif" font-size="14.00">sub</text>
</g>
<!-- /control/enable&#45;&gt;/cartpole_ui -->
<g id="edge9" class="edge">
<title>/control/enable&#45;&gt;/cartpole_ui</title>
<path fill="none" stroke="black" stroke-dasharray="5,2" d="M800.81,-309.21C893.41,-300.98 1014.52,-290.22 1095.96,-282.98"/>
<polygon fill="black" stroke="black" points="800.45,-305.73 790.8,-310.1 801.07,-312.7 800.45,-305.73"/>
<text text-anchor="middle" x="1031.26" y="-292.8" font-family="Times,serif" font-size="14.00">call</text>
</g>
<!-- /control/track_position&#45;&gt;/cartpole_ui -->
<g id="edge13" class="edge">
<title>/control/track_position&#45;&gt;/cartpole_ui</title>
<path fill="none" stroke="black" stroke-dasharray="1,5" d="M918.67,-389.14C949.21,-383.74 979.69,-376.83 1008.26,-368 1064.27,-350.69 1123.44,-315.87 1157.36,-294.1"/>
<polygon fill="black" stroke="black" points="918.03,-385.7 908.76,-390.84 919.21,-392.6 918.03,-385.7"/>
<text text-anchor="middle" x="1031.26" y="-367.8" font-family="Times,serif" font-size="14.00">call</text>
</g>
<!-- /hardware/robot_state_publisher -->
<g id="node6" class="node">
<title>/hardware/robot_state_publisher</title>
<polygon fill="lightblue" stroke="black" points="1311.26,-156 1062.26,-156 1062.26,-118 1311.26,-118 1311.26,-156"/>
<text text-anchor="middle" x="1186.76" y="-140.8" font-family="Times,serif" font-size="14.00">/hardware/robot_state_publisher</text>
<text text-anchor="middle" x="1186.76" y="-125.8" font-family="Times,serif" font-size="14.00">(robot_state_publisher)</text>
</g>
<!-- /hardware/robot_description -->
<g id="node7" class="node">
<title>/hardware/robot_description</title>
<ellipse fill="lightgreen" stroke="black" cx="1530.12" cy="-137" rx="154.71" ry="26.74"/>
<text text-anchor="middle" x="1530.12" y="-140.8" font-family="Times,serif" font-size="14.00">/hardware/robot_description</text>
<text text-anchor="middle" x="1530.12" y="-125.8" font-family="Times,serif" font-size="14.00">[std_msgs/msg/String]</text>
</g>
<!-- /hardware/robot_state_publisher&#45;&gt;/hardware/robot_description -->
<g id="edge7" class="edge">
<title>/hardware/robot_state_publisher&#45;&gt;/hardware/robot_description</title>
<path fill="none" stroke="black" d="M1311.48,-137C1328.95,-137 1347.13,-137 1365.2,-137"/>
<polygon fill="black" stroke="black" points="1365.23,-140.5 1375.23,-137 1365.23,-133.5 1365.23,-140.5"/>
<text text-anchor="middle" x="1343.26" y="-140.8" font-family="Times,serif" font-size="14.00">pub</text>
</g>
<!-- /hardware/joint_states -->
<g id="node9" class="node">
<title>/hardware/joint_states</title>
<ellipse fill="lightgreen" stroke="black" cx="667.13" cy="-137" rx="161.85" ry="26.74"/>
<text text-anchor="middle" x="667.13" y="-140.8" font-family="Times,serif" font-size="14.00">/hardware/joint_states</text>
<text text-anchor="middle" x="667.13" y="-125.8" font-family="Times,serif" font-size="14.00">[sensor_msgs/msg/JointState]</text>
</g>
<!-- /hardware/cartpole_simulator&#45;&gt;/hardware/joint_states -->
<g id="edge1" class="edge">
<title>/hardware/cartpole_simulator&#45;&gt;/hardware/joint_states</title>
<path fill="none" stroke="orange" stroke-width="2" d="M243.11,-137C316.09,-137 412.55,-137 494.92,-137"/>
<polygon fill="orange" stroke="orange" stroke-width="2" points="495.15,-140.5 505.15,-137 495.15,-133.5 495.15,-140.5"/>
<text text-anchor="middle" x="288.5" y="-140.8" font-family="Times,serif" font-size="14.00">pub</text>
</g>
<!-- /hardware/reset -->
<g id="node10" class="node">
<title>/hardware/reset</title>
<polygon fill="lightyellow" stroke="black" points="667.13,-92 496.13,-54 667.13,-16 838.13,-54 667.13,-92"/>
<text text-anchor="middle" x="667.13" y="-57.8" font-family="Times,serif" font-size="14.00">/hardware/reset</text>
<text text-anchor="middle" x="667.13" y="-42.8" font-family="Times,serif" font-size="14.00">[std_srvs/srv/Trigger]</text>
</g>
<!-- /hardware/cartpole_simulator&#45;&gt;/hardware/reset -->
<g id="edge10" class="edge">
<title>/hardware/cartpole_simulator&#45;&gt;/hardware/reset</title>
<path fill="none" stroke="black" stroke-dasharray="5,2" d="M233.91,-117.99C265.95,-112.3 301.4,-106.19 334,-101 405.38,-89.64 485.61,-78.25 549.33,-69.52"/>
<polygon fill="black" stroke="black" points="549.98,-72.97 559.42,-68.15 549.04,-66.03 549.98,-72.97"/>
<text text-anchor="middle" x="288.5" y="-116.8" font-family="Times,serif" font-size="14.00">provide</text>
</g>
<!-- /hardware/joint_states&#45;&gt;/cartpole_ui -->
<g id="edge2" class="edge">
<title>/hardware/joint_states&#45;&gt;/cartpole_ui</title>
<path fill="none" stroke="orange" stroke-width="2" d="M806.05,-154.94C868.56,-164.91 942.93,-179.33 1008.26,-199 1058.01,-213.98 1112.59,-238.68 1147.91,-255.84"/>
<polygon fill="orange" stroke="orange" stroke-width="2" points="806.55,-151.48 796.13,-153.38 805.46,-158.39 806.55,-151.48"/>
<text text-anchor="middle" x="1031.26" y="-213.8" font-family="Times,serif" font-size="14.00">sub</text>
</g>
<!-- /hardware/joint_states&#45;&gt;/control/cartpole_controller -->
<g id="edge3" class="edge">
<title>/hardware/joint_states&#45;&gt;/control/cartpole_controller</title>
<path fill="none" stroke="black" d="M526.41,-154.55C466.27,-164.28 395.74,-178.63 334,-199 270.76,-219.86 202.05,-256.5 162.84,-278.88"/>
<polygon fill="black" stroke="black" points="527.03,-158 536.35,-152.97 525.93,-151.08 527.03,-158"/>
<text text-anchor="middle" x="288.5" y="-229.8" font-family="Times,serif" font-size="14.00">sub</text>
</g>
<!-- /hardware/joint_states&#45;&gt;/hardware/robot_state_publisher -->
<g id="edge4" class="edge">
<title>/hardware/joint_states&#45;&gt;/hardware/robot_state_publisher</title>
<path fill="none" stroke="black" d="M839.27,-137C912.03,-137 995.27,-137 1061.92,-137"/>
<polygon fill="black" stroke="black" points="839.07,-133.5 829.07,-137 839.07,-140.5 839.07,-133.5"/>
<text text-anchor="middle" x="1031.26" y="-140.8" font-family="Times,serif" font-size="14.00">sub</text>
</g>
<!-- /hardware/reset&#45;&gt;/cartpole_ui -->
<g id="edge11" class="edge">
<title>/hardware/reset&#45;&gt;/cartpole_ui</title>
<path fill="none" stroke="black" stroke-dasharray="5,2" d="M809.55,-63.85C871.46,-70.63 944.4,-81.99 1008.26,-101 1025.22,-106.05 1033.89,-103.66 1044.26,-118 1065.52,-147.39 1034.24,-168.75 1054.26,-199 1071.8,-225.49 1101.96,-243.89 1128.98,-255.93"/>
<polygon fill="black" stroke="black" points="809.63,-60.34 799.31,-62.76 808.88,-67.3 809.63,-60.34"/>
<text text-anchor="middle" x="1031.26" y="-121.8" font-family="Times,serif" font-size="14.00">call</text>
</g>
<!-- /rviz2 -->
<g id="node11" class="node">
<title>/rviz2</title>
<polygon fill="lightblue" stroke="black" points="161,-524 98,-524 98,-486 161,-486 161,-524"/>
<text text-anchor="middle" x="129.5" y="-508.8" font-family="Times,serif" font-size="14.00">/rviz2</text>
<text text-anchor="middle" x="129.5" y="-493.8" font-family="Times,serif" font-size="14.00">(rviz2)</text>
</g>
</g>
</svg>
