<?xml version="1.0" encoding="UTF-8" standalone="no"?>
<!DOCTYPE svg PUBLIC "-//W3C//DTD SVG 1.1//EN"
 "http://www.w3.org/Graphics/SVG/1.1/DTD/svg11.dtd">
<!-- Generated by graphviz version 2.43.0 (0)
 -->
<!-- Title: ROS2Graph Pages: 1 -->
<svg width="2499pt" height="624pt"
 viewBox="0.00 0.00 2498.97 624.00" xmlns="http://www.w3.org/2000/svg" xmlns:xlink="http://www.w3.org/1999/xlink">
<g id="graph0" class="graph" transform="scale(1 1) rotate(0) translate(4 620)">
<title>ROS2Graph</title>
<polygon fill="white" stroke="transparent" points="-4,4 -4,-620 2494.97,-620 2494.97,4 -4,4"/>
<g id="clust1" class="cluster">
<title>cluster__cartpole_ui</title>
<polygon fill="lightgrey" stroke="black" points="494,-240 494,-405 1579.94,-405 1579.94,-240 494,-240"/>
<text text-anchor="middle" x="1036.97" y="-389.8" font-family="Times,serif" font-size="14.00">/cartpole_ui</text>
</g>
<g id="clust2" class="cluster">
<title>cluster__control_cartpole_controller</title>
<polygon fill="lightgrey" stroke="black" points="1001,-413 1001,-608 2461.76,-608 2461.76,-413 1001,-413"/>
<text text-anchor="middle" x="1731.38" y="-592.8" font-family="Times,serif" font-size="14.00">/control/cartpole_controller</text>
</g>
<g id="clust3" class="cluster">
<title>cluster__hardware_robot_state_publisher</title>
<polygon fill="lightgrey" stroke="black" points="1803.26,-8 1803.26,-101 2482.97,-101 2482.97,-8 1803.26,-8"/>
<text text-anchor="middle" x="2143.12" y="-85.8" font-family="Times,serif" font-size="14.00">/hardware/robot_state_publisher</text>
</g>
<g id="clust4" class="cluster">
<title>cluster__hardware_cartpole_simulator</title>
<polygon fill="lightgrey" stroke="black" points="8,-117 8,-232 1512.06,-232 1512.06,-117 8,-117"/>
<text text-anchor="middle" x="760.03" y="-216.8" font-family="Times,serif" font-size="14.00">/hardware/cartpole_simulator</text>
</g>
<g id="clust5" class="cluster">
<title>cluster__rviz2</title>
<polygon fill="lightgrey" stroke="black" points="147.5,-385 147.5,-462 226.5,-462 226.5,-385 147.5,-385"/>
<text text-anchor="middle" x="187" y="-446.8" font-family="Times,serif" font-size="14.00">/rviz2</text>
</g>
<!-- /cartpole_ui -->
<g id="node1" class="node">
<title>/cartpole_ui</title>
<polygon fill="lightblue" stroke="black" points="683,-355 502,-355 502,-317 683,-317 683,-355"/>
<text text-anchor="middle" x="592.5" y="-339.8" font-family="Times,serif" font-size="14.00">/cartpole_ui</text>
<text text-anchor="middle" x="592.5" y="-324.8" font-family="Times,serif" font-size="14.00">(breadcrumb_example)</text>
</g>
<!-- /cartpole/safety_controller/emergency_stop -->
<g id="node2" class="node">
<title>/cartpole/safety_controller/emergency_stop</title>
<ellipse fill="lightgreen" stroke="black" cx="1342.13" cy="-347" rx="229.62" ry="26.74"/>
<text text-anchor="middle" x="1342.13" y="-350.8" font-family="Times,serif" font-size="14.00">/cartpole/safety_controller/emergency_stop</text>
<text text-anchor="middle" x="1342.13" y="-335.8" font-family="Times,serif" font-size="14.00">[std_msgs/msg/Bool]</text>
</g>
<!-- /cartpole_ui&#45;&gt;/cartpole/safety_controller/emergency_stop -->
<g id="edge1" class="edge">
<title>/cartpole_ui&#45;&gt;/cartpole/safety_controller/emergency_stop</title>
<path fill="none" stroke="black" d="M683.31,-337.32C786.65,-338.84 960.5,-341.4 1103.53,-343.5"/>
<polygon fill="black" stroke="black" points="1103.72,-347.01 1113.78,-343.65 1103.83,-340.01 1103.72,-347.01"/>
<text text-anchor="middle" x="857.5" y="-344.8" font-family="Times,serif" font-size="14.00">publishes</text>
</g>
<!-- /cartpole/bumper/emergency_stop -->
<g id="node3" class="node">
<title>/cartpole/bumper/emergency_stop</title>
<ellipse fill="lightgreen" stroke="black" cx="1342.13" cy="-275" rx="183.7" ry="26.74"/>
<text text-anchor="middle" x="1342.13" y="-278.8" font-family="Times,serif" font-size="14.00">/cartpole/bumper/emergency_stop</text>
<text text-anchor="middle" x="1342.13" y="-263.8" font-family="Times,serif" font-size="14.00">[std_msgs/msg/Bool]</text>
</g>
<!-- /cartpole_ui&#45;&gt;/cartpole/bumper/emergency_stop -->
<g id="edge3" class="edge">
<title>/cartpole_ui&#45;&gt;/cartpole/bumper/emergency_stop</title>
<path fill="none" stroke="black" d="M683.26,-322.81C696.89,-321.04 710.81,-319.37 724,-318 869.73,-302.89 1035.38,-291.67 1158.35,-284.49"/>
<polygon fill="black" stroke="black" points="1158.84,-287.97 1168.62,-283.9 1158.43,-280.98 1158.84,-287.97"/>
<text text-anchor="middle" x="857.5" y="-321.8" font-family="Times,serif" font-size="14.00">publishes</text>
</g>
<!-- /control/enable -->
<g id="node7" class="node">
<title>/control/enable</title>
<polygon fill="lightyellow" stroke="black" points="1342.13,-577 1169.13,-539 1342.13,-501 1515.13,-539 1342.13,-577"/>
<text text-anchor="middle" x="1342.13" y="-542.8" font-family="Times,serif" font-size="14.00">/control/enable</text>
<text text-anchor="middle" x="1342.13" y="-527.8" font-family="Times,serif" font-size="14.00">[std_srvs/srv/SetBool]</text>
</g>
<!-- /cartpole_ui&#45;&gt;/control/enable -->
<g id="edge16" class="edge">
<title>/cartpole_ui&#45;&gt;/control/enable</title>
<path fill="none" stroke="black" stroke-dasharray="5,2" d="M616.02,-355.15C640.9,-375.35 682.9,-406.75 724,-425 874.52,-491.84 1062.44,-519.49 1191.12,-530.93"/>
<polygon fill="black" stroke="black" points="1191.18,-534.45 1201.44,-531.83 1191.78,-527.48 1191.18,-534.45"/>
<text text-anchor="middle" x="857.5" y="-505.8" font-family="Times,serif" font-size="14.00">calls</text>
</g>
<!-- /control/track_position -->
<g id="node8" class="node">
<title>/control/track_position</title>
<polygon fill="lightcoral" stroke="black" points="1675.39,-452 1508.76,-483.05 1175.5,-483.05 1008.87,-452 1175.5,-420.95 1508.76,-420.95 1675.39,-452"/>
<text text-anchor="middle" x="1342.13" y="-455.8" font-family="Times,serif" font-size="14.00">/control/track_position</text>
<text text-anchor="middle" x="1342.13" y="-440.8" font-family="Times,serif" font-size="14.00">[breadcrumb_example_interfaces/action/TrackPosition]</text>
</g>
<!-- /cartpole_ui&#45;&gt;/control/track_position -->
<g id="edge20" class="edge">
<title>/cartpole_ui&#45;&gt;/control/track_position</title>
<path fill="none" stroke="black" stroke-dasharray="1,5" d="M683.34,-352.61C696.96,-355.1 710.85,-357.63 724,-360 847.04,-382.2 877.39,-390.27 1001,-409 1041.86,-415.19 1085.58,-421.19 1127.6,-426.64"/>
<polygon fill="black" stroke="black" points="1127.3,-430.13 1137.67,-427.94 1128.2,-423.19 1127.3,-430.13"/>
<text text-anchor="middle" x="857.5" y="-409.8" font-family="Times,serif" font-size="14.00">calls</text>
</g>
<!-- /hardware/reset -->
<g id="node13" class="node">
<title>/hardware/reset</title>
<polygon fill="lightyellow" stroke="black" points="187,-201 16,-163 187,-125 358,-163 187,-201"/>
<text text-anchor="middle" x="187" y="-166.8" font-family="Times,serif" font-size="14.00">/hardware/reset</text>
<text text-anchor="middle" x="187" y="-151.8" font-family="Times,serif" font-size="14.00">[std_srvs/srv/Trigger]</text>
</g>
<!-- /cartpole_ui&#45;&gt;/hardware/reset -->
<g id="edge18" class="edge">
<title>/cartpole_ui&#45;&gt;/hardware/reset</title>
<path fill="none" stroke="black" stroke-dasharray="5,2" d="M546.98,-316.91C476.4,-286.65 338.39,-227.48 255.56,-191.97"/>
<polygon fill="black" stroke="black" points="256.81,-188.69 246.24,-187.97 254.05,-195.13 256.81,-188.69"/>
<text text-anchor="middle" x="418.5" y="-283.8" font-family="Times,serif" font-size="14.00">calls</text>
</g>
<!-- /control/cartpole_controller -->
<g id="node4" class="node">
<title>/control/cartpole_controller</title>
<polygon fill="lightblue" stroke="black" points="2041.26,-467 1830.26,-467 1830.26,-429 2041.26,-429 2041.26,-467"/>
<text text-anchor="middle" x="1935.76" y="-451.8" font-family="Times,serif" font-size="14.00">/control/cartpole_controller</text>
<text text-anchor="middle" x="1935.76" y="-436.8" font-family="Times,serif" font-size="14.00">(breadcrumb_example)</text>
</g>
<!-- /cartpole/safety_controller/emergency_stop&#45;&gt;/control/cartpole_controller -->
<g id="edge2" class="edge">
<title>/cartpole/safety_controller/emergency_stop&#45;&gt;/control/cartpole_controller</title>
<path fill="none" stroke="black" d="M1472.97,-369.16C1576.56,-386.85 1720.29,-411.39 1819.77,-428.37"/>
<polygon fill="black" stroke="black" points="1819.41,-431.86 1829.86,-430.09 1820.59,-424.96 1819.41,-431.86"/>
<text text-anchor="middle" x="1743.26" y="-426.8" font-family="Times,serif" font-size="14.00">subscribed by</text>
</g>
<!-- /cartpole/bumper/emergency_stop&#45;&gt;/control/cartpole_controller -->
<g id="edge4" class="edge">
<title>/cartpole/bumper/emergency_stop&#45;&gt;/control/cartpole_controller</title>
<path fill="none" stroke="black" d="M1520.16,-281.74C1571.03,-287 1626.04,-295.94 1675.26,-311 1760.34,-337.02 1850.1,-391.29 1898.56,-423.16"/>
<polygon fill="black" stroke="black" points="1896.85,-426.23 1907.12,-428.84 1900.72,-420.4 1896.85,-426.23"/>
<text text-anchor="middle" x="1743.26" y="-360.8" font-family="Times,serif" font-size="14.00">subscribed by</text>
</g>
<!-- /status/cartpole -->
<g id="node5" class="node">
<title>/status/cartpole</title>
<ellipse fill="lightgreen" stroke="black" cx="2320.12" cy="-535" rx="125.73" ry="26.74"/>
<text text-anchor="middle" x="2320.12" y="-538.8" font-family="Times,serif" font-size="14.00">/status/cartpole</text>
<text text-anchor="middle" x="2320.12" y="-523.8" font-family="Times,serif" font-size="14.00">[std_msgs/msg/String]</text>
</g>
<!-- /control/cartpole_controller&#45;&gt;/status/cartpole -->
<g id="edge10" class="edge">
<title>/control/cartpole_controller&#45;&gt;/status/cartpole</title>
<path fill="none" stroke="black" d="M2020.67,-467.09C2080.56,-480.72 2161.21,-499.07 2223.57,-513.26"/>
<polygon fill="black" stroke="black" points="2222.89,-516.69 2233.42,-515.5 2224.44,-509.87 2222.89,-516.69"/>
<text text-anchor="middle" x="2112.76" y="-497.8" font-family="Times,serif" font-size="14.00">publishes</text>
</g>
<!-- /hardware/request/force -->
<g id="node6" class="node">
<title>/hardware/request/force</title>
<ellipse fill="lightgreen" stroke="black" cx="2320.12" cy="-448" rx="133.79" ry="26.74"/>
<text text-anchor="middle" x="2320.12" y="-451.8" font-family="Times,serif" font-size="14.00">/hardware/request/force</text>
<text text-anchor="middle" x="2320.12" y="-436.8" font-family="Times,serif" font-size="14.00">[std_msgs/msg/Float64]</text>
</g>
<!-- /control/cartpole_controller&#45;&gt;/hardware/request/force -->
<g id="edge12" class="edge">
<title>/control/cartpole_controller&#45;&gt;/hardware/request/force</title>
<path fill="none" stroke="black" d="M2041.49,-448C2083.02,-448 2131.43,-448 2176.09,-448"/>
<polygon fill="black" stroke="black" points="2176.15,-451.5 2186.15,-448 2176.15,-444.5 2176.15,-451.5"/>
<text text-anchor="middle" x="2112.76" y="-451.8" font-family="Times,serif" font-size="14.00">publishes</text>
</g>
<!-- /status/cartpole&#45;&gt;/cartpole_ui -->
<g id="edge11" class="edge">
<title>/status/cartpole&#45;&gt;/cartpole_ui</title>
<path fill="none" stroke="black" d="M2214.89,-549.86C1991.55,-579.34 1450.58,-638.04 1001,-586 875.38,-571.46 828.83,-591.72 724,-521 665.18,-481.32 624.42,-405.6 605.5,-364.41"/>
<polygon fill="black" stroke="black" points="608.66,-362.9 601.37,-355.21 602.27,-365.76 608.66,-362.9"/>
<text text-anchor="middle" x="1743.26" y="-601.8" font-family="Times,serif" font-size="14.00">subscribed by</text>
</g>
<!-- /hardware/cartpole_simulator -->
<g id="node11" class="node">
<title>/hardware/cartpole_simulator</title>
<polygon fill="lightblue" stroke="black" points="706,-182 479,-182 479,-144 706,-144 706,-182"/>
<text text-anchor="middle" x="592.5" y="-166.8" font-family="Times,serif" font-size="14.00">/hardware/cartpole_simulator</text>
<text text-anchor="middle" x="592.5" y="-151.8" font-family="Times,serif" font-size="14.00">(breadcrumb_example)</text>
</g>
<!-- /hardware/request/force&#45;&gt;/hardware/cartpole_simulator -->
<g id="edge13" class="edge">
<title>/hardware/request/force&#45;&gt;/hardware/cartpole_simulator</title>
<path fill="none" stroke="black" d="M2290.63,-421.77C2216.04,-355.09 2005.97,-180.06 1793.26,-119 1390.86,-3.49 881.33,-96.33 680.5,-141.68"/>
<polygon fill="black" stroke="black" points="679.57,-138.3 670.6,-143.93 681.12,-145.13 679.57,-138.3"/>
<text text-anchor="middle" x="1743.26" y="-122.8" font-family="Times,serif" font-size="14.00">subscribed by</text>
</g>
<!-- /control/enable&#45;&gt;/control/cartpole_controller -->
<g id="edge15" class="edge">
<title>/control/enable&#45;&gt;/control/cartpole_controller</title>
<path fill="none" stroke="black" stroke-dasharray="5,2" d="M1450.19,-524.61C1515.32,-515.66 1600.17,-503.68 1675.26,-492 1722.7,-484.62 1774.9,-475.89 1819.97,-468.16"/>
<polygon fill="black" stroke="black" points="1820.81,-471.57 1830.07,-466.42 1819.62,-464.67 1820.81,-471.57"/>
<text text-anchor="middle" x="1743.26" y="-491.8" font-family="Times,serif" font-size="14.00">provided by</text>
</g>
<!-- /control/track_position&#45;&gt;/control/cartpole_controller -->
<g id="edge19" class="edge">
<title>/control/track_position&#45;&gt;/control/cartpole_controller</title>
<path fill="none" stroke="black" stroke-dasharray="1,5" d="M1664.05,-449.83C1719.86,-449.45 1774.48,-449.08 1819.86,-448.78"/>
<polygon fill="black" stroke="black" points="1820.02,-452.28 1830,-448.71 1819.98,-445.28 1820.02,-452.28"/>
<text text-anchor="middle" x="1743.26" y="-452.8" font-family="Times,serif" font-size="14.00">served by</text>
</g>
<!-- /hardware/robot_state_publisher -->
<g id="node9" class="node">
<title>/hardware/robot_state_publisher</title>
<polygon fill="lightblue" stroke="black" points="2060.26,-68 1811.26,-68 1811.26,-30 2060.26,-30 2060.26,-68"/>
<text text-anchor="middle" x="1935.76" y="-52.8" font-family="Times,serif" font-size="14.00">/hardware/robot_state_publisher</text>
<text text-anchor="middle" x="1935.76" y="-37.8" font-family="Times,serif" font-size="14.00">(robot_state_publisher)</text>
</g>
<!-- /hardware/robot_description -->
<g id="node10" class="node">
<title>/hardware/robot_description</title>
<ellipse fill="lightgreen" stroke="black" cx="2320.12" cy="-43" rx="154.71" ry="26.74"/>
<text text-anchor="middle" x="2320.12" y="-46.8" font-family="Times,serif" font-size="14.00">/hardware/robot_description</text>
<text text-anchor="middle" x="2320.12" y="-31.8" font-family="Times,serif" font-size="14.00">[std_msgs/msg/String]</text>
</g>
<!-- /hardware/robot_state_publisher&#45;&gt;/hardware/robot_description -->
<g id="edge14" class="edge">
<title>/hardware/robot_state_publisher&#45;&gt;/hardware/robot_description</title>
<path fill="none" stroke="black" d="M2060.37,-47.06C2090.69,-46.58 2123.61,-46.07 2155.49,-45.57"/>
<polygon fill="black" stroke="black" points="2155.86,-49.06 2165.8,-45.41 2155.75,-42.06 2155.86,-49.06"/>
<text text-anchor="middle" x="2112.76" y="-50.8" font-family="Times,serif" font-size="14.00">publishes</text>
</g>
<!-- /hardware/joint_states -->
<g id="node12" class="node">
<title>/hardware/joint_states</title>
<ellipse fill="lightgreen" stroke="black" cx="1342.13" cy="-174" rx="161.85" ry="26.74"/>
<text text-anchor="middle" x="1342.13" y="-177.8" font-family="Times,serif" font-size="14.00">/hardware/joint_states</text>
<text text-anchor="middle" x="1342.13" y="-162.8" font-family="Times,serif" font-size="14.00">[sensor_msgs/msg/JointState]</text>
</g>
<!-- /hardware/cartpole_simulator&#45;&gt;/hardware/joint_states -->
<g id="edge5" class="edge">
<title>/hardware/cartpole_simulator&#45;&gt;/hardware/joint_states</title>
<path fill="none" stroke="orange" stroke-width="2" d="M706.24,-164.66C829.43,-166.47 1028.19,-169.4 1170.5,-171.49"/>
<polygon fill="orange" stroke="orange" stroke-width="2" points="1170.6,-174.99 1180.65,-171.64 1170.7,-167.99 1170.6,-174.99"/>
<text text-anchor="middle" x="857.5" y="-172.8" font-family="Times,serif" font-size="14.00">publishes (INCOMPATIBLE QOS)</text>
</g>
<!-- /hardware/joint_states&#45;&gt;/cartpole_ui -->
<g id="edge6" class="edge">
<title>/hardware/joint_states&#45;&gt;/cartpole_ui</title>
<path fill="none" stroke="black" d="M1230.75,-193.63C1164.16,-205.59 1077.64,-221.35 1001,-236 996.55,-236.85 995.47,-237.23 991,-238 872.83,-258.43 839.09,-243.3 724,-277 694.17,-285.74 662.35,-300.01 637.6,-312.33"/>
<polygon fill="black" stroke="black" points="635.82,-309.31 628.47,-316.94 638.98,-315.55 635.82,-309.31"/>
<text text-anchor="middle" x="857.5" y="-280.8" font-family="Times,serif" font-size="14.00">subscribed by</text>
</g>
<!-- /hardware/joint_states&#45;&gt;/cartpole_ui -->
<g id="edge7" class="edge">
<title>/hardware/joint_states&#45;&gt;/cartpole_ui</title>
<path fill="none" stroke="orange" stroke-width="2" d="M1184.11,-179.98C1015.16,-187.28 765.05,-200.92 724,-219 713.93,-223.43 714.11,-228.57 706,-236 678.25,-261.43 646.12,-289.89 623.32,-309.93"/>
<polygon fill="orange" stroke="orange" stroke-width="2" points="620.87,-307.42 615.66,-316.65 625.49,-312.68 620.87,-307.42"/>
<text text-anchor="middle" x="857.5" y="-222.8" font-family="Times,serif" font-size="14.00">subscribed by (INCOMPATIBLE QOS)</text>
</g>
<!-- /hardware/joint_states&#45;&gt;/control/cartpole_controller -->
<g id="edge8" class="edge">
<title>/hardware/joint_states&#45;&gt;/control/cartpole_controller</title>
<path fill="none" stroke="black" d="M1486.67,-186.2C1581.71,-200.51 1704.7,-231.56 1793.26,-299 1841.2,-335.5 1887.48,-388.7 1913.42,-420.67"/>
<polygon fill="black" stroke="black" points="1910.88,-423.1 1919.87,-428.71 1916.34,-418.72 1910.88,-423.1"/>
<text text-anchor="middle" x="1743.26" y="-302.8" font-family="Times,serif" font-size="14.00">subscribed by</text>
</g>
<!-- /hardware/joint_states&#45;&gt;/hardware/robot_state_publisher -->
<g id="edge9" class="edge">
<title>/hardware/joint_states&#45;&gt;/hardware/robot_state_publisher</title>
<path fill="none" stroke="black" d="M1500.42,-179.67C1588.57,-178.38 1699.33,-169.19 1793.26,-138 1834.94,-124.16 1876.8,-95.58 1904.05,-74.52"/>
<polygon fill="black" stroke="black" points="1906.33,-77.18 1912.02,-68.25 1902,-71.68 1906.33,-77.18"/>
<text text-anchor="middle" x="1743.26" y="-165.8" font-family="Times,serif" font-size="14.00">subscribed by</text>
</g>
<!-- /hardware/reset&#45;&gt;/hardware/cartpole_simulator -->
<g id="edge17" class="edge">
<title>/hardware/reset&#45;&gt;/hardware/cartpole_simulator</title>
<path fill="none" stroke="black" stroke-dasharray="5,2" d="M358.24,-163C395.37,-163 433.95,-163 468.79,-163"/>
<polygon fill="black" stroke="black" points="469,-166.5 479,-163 469,-159.5 469,-166.5"/>
<text text-anchor="middle" x="418.5" y="-166.8" font-family="Times,serif" font-size="14.00">provided by</text>
</g>
<!-- /rviz2 -->
<g id="node14" class="node">
<title>/rviz2</title>
<polygon fill="lightblue" stroke="black" points="218.5,-431 155.5,-431 155.5,-393 218.5,-393 218.5,-431"/>
<text text-anchor="middle" x="187" y="-415.8" font-family="Times,serif" font-size="14.00">/rviz2</text>
<text text-anchor="middle" x="187" y="-400.8" font-family="Times,serif" font-size="14.00">(rviz2)</text>
</g>
</g>
</svg>
