<?xml version="1.0" encoding="UTF-8" standalone="no"?>
<!DOCTYPE svg PUBLIC "-//W3C//DTD SVG 1.1//EN"
 "http://www.w3.org/Graphics/SVG/1.1/DTD/svg11.dtd">
<!-- Generated by graphviz version 2.43.0 (0)
 -->
<!-- Title: ROS2TopLevel Pages: 1 -->
<svg width="1492pt" height="524pt"
 viewBox="0.00 0.00 1492.26 524.00" xmlns="http://www.w3.org/2000/svg" xmlns:xlink="http://www.w3.org/1999/xlink">
<g id="graph0" class="graph" transform="scale(1 1) rotate(0) translate(4 520)">
<title>ROS2TopLevel</title>
<polygon fill="white" stroke="transparent" points="-4,4 -4,-520 1488.26,-520 1488.26,4 -4,4"/>
<g id="clust1" class="cluster">
<title>cluster_control</title>
<polygon fill="lightgrey" stroke="black" points="13,-203 13,-470 1043.26,-470 1043.26,-203 13,-203"/>
<text text-anchor="middle" x="528.13" y="-454.8" font-family="Times,serif" font-size="14.00">control</text>
</g>
<g id="clust2" class="cluster">
<title>cluster_hardware</title>
<polygon fill="lightgrey" stroke="black" points="8,-8 8,-195 881.13,-195 881.13,-8 8,-8"/>
<text text-anchor="middle" x="444.57" y="-179.8" font-family="Times,serif" font-size="14.00">hardware</text>
</g>
<!-- control -->
<g id="node1" class="node">
<title>control</title>
<polygon fill="lightblue" stroke="black" points="96,-311 21,-311 21,-273 96,-273 96,-311"/>
<text text-anchor="middle" x="58.5" y="-295.8" font-family="Times,serif" font-size="14.00">control</text>
<text text-anchor="middle" x="58.5" y="-280.8" font-family="Times,serif" font-size="14.00">(1 node)</text>
</g>
<!-- /hardware/request/force -->
<g id="node2" class="node">
<title>/hardware/request/force</title>
<ellipse fill="lightgreen" stroke="black" cx="702.13" cy="-238" rx="133.79" ry="26.74"/>
<text text-anchor="middle" x="702.13" y="-241.8" font-family="Times,serif" font-size="14.00">/hardware/request/force</text>
<text text-anchor="middle" x="702.13" y="-226.8" font-family="Times,serif" font-size="14.00">[std_msgs/msg/Float64]</text>
</g>
<!-- control&#45;&gt;/hardware/request/force -->
<g id="edge5" class="edge">
<title>control&#45;&gt;/hardware/request/force</title>
<path fill="none" stroke="black" d="M96.03,-280.23C103.56,-278.18 111.48,-276.3 119,-275 267.36,-249.4 439.73,-241.05 558.19,-238.56"/>
<polygon fill="black" stroke="black" points="558.48,-242.05 568.4,-238.35 558.34,-235.05 558.48,-242.05"/>
<text text-anchor="middle" x="235" y="-278.8" font-family="Times,serif" font-size="14.00">pub</text>
</g>
<!-- /control/enable -->
<g id="node3" class="node">
<title>/control/enable</title>
<polygon fill="lightyellow" stroke="black" points="702.13,-439 529.13,-401 702.13,-363 875.13,-401 702.13,-439"/>
<text text-anchor="middle" x="702.13" y="-404.8" font-family="Times,serif" font-size="14.00">/control/enable</text>
<text text-anchor="middle" x="702.13" y="-389.8" font-family="Times,serif" font-size="14.00">[std_srvs/srv/SetBool]</text>
</g>
<!-- control&#45;&gt;/control/enable -->
<g id="edge7" class="edge">
<title>control&#45;&gt;/control/enable</title>
<path fill="none" stroke="black" stroke-dasharray="5,2" d="M95.64,-311.11C103.19,-314.51 111.23,-317.69 119,-320 262.86,-362.78 433.58,-383.14 552.8,-392.72"/>
<polygon fill="black" stroke="black" points="552.85,-396.24 563.1,-393.53 553.4,-389.26 552.85,-396.24"/>
<text text-anchor="middle" x="235" y="-370.8" font-family="Times,serif" font-size="14.00">provide</text>
</g>
<!-- /control/track_position -->
<g id="node4" class="node">
<title>/control/track_position</title>
<polygon fill="lightcoral" stroke="black" points="1035.39,-314 868.76,-345.05 535.5,-345.05 368.87,-314 535.5,-282.95 868.76,-282.95 1035.39,-314"/>
<text text-anchor="middle" x="702.13" y="-317.8" font-family="Times,serif" font-size="14.00">/control/track_position</text>
<text text-anchor="middle" x="702.13" y="-302.8" font-family="Times,serif" font-size="14.00">[breadcrumb_example_interfaces/action/TrackPosition]</text>
</g>
<!-- control&#45;&gt;/control/track_position -->
<g id="edge11" class="edge">
<title>control&#45;&gt;/control/track_position</title>
<path fill="none" stroke="black" stroke-dasharray="1,5" d="M96.3,-293.26C157.81,-295.37 286.93,-299.8 410.13,-304.02"/>
<polygon fill="black" stroke="black" points="410.01,-307.52 420.13,-304.37 410.25,-300.52 410.01,-307.52"/>
<text text-anchor="middle" x="235" y="-304.8" font-family="Times,serif" font-size="14.00">serve</text>
</g>
<!-- hardware -->
<g id="node5" class="node">
<title>hardware</title>
<polygon fill="lightblue" stroke="black" points="101,-138 16,-138 16,-100 101,-100 101,-138"/>
<text text-anchor="middle" x="58.5" y="-122.8" font-family="Times,serif" font-size="14.00">hardware</text>
<text text-anchor="middle" x="58.5" y="-107.8" font-family="Times,serif" font-size="14.00">(2 nodes)</text>
</g>
<!-- /hardware/request/force&#45;&gt;hardware -->
<g id="edge6" class="edge">
<title>/hardware/request/force&#45;&gt;hardware</title>
<path fill="none" stroke="black" d="M568.49,-237.71C506.16,-233.77 431.9,-223.48 369,-199 359.8,-195.42 360.1,-189.83 351,-186 254.55,-145.44 219.01,-176.76 119,-146 115.04,-144.78 110.99,-143.36 106.97,-141.82"/>
<polygon fill="black" stroke="black" points="108.25,-138.56 97.67,-138.04 105.62,-145.05 108.25,-138.56"/>
<text text-anchor="middle" x="235" y="-189.8" font-family="Times,serif" font-size="14.00">subbed by</text>
</g>
<!-- /cartpole_ui -->
<g id="node8" class="node">
<title>/cartpole_ui</title>
<polygon fill="lightyellow" stroke="black" points="1484.26,-239 1303.26,-239 1303.26,-201 1484.26,-201 1484.26,-239"/>
<text text-anchor="middle" x="1393.76" y="-223.8" font-family="Times,serif" font-size="14.00">/cartpole_ui</text>
<text text-anchor="middle" x="1393.76" y="-208.8" font-family="Times,serif" font-size="14.00">(breadcrumb_example)</text>
</g>
<!-- /control/enable&#45;&gt;/cartpole_ui -->
<g id="edge8" class="edge">
<title>/control/enable&#45;&gt;/cartpole_ui</title>
<path fill="none" stroke="black" stroke-dasharray="5,2" d="M838.06,-392.77C959.5,-381.36 1140.57,-354.25 1285.26,-290 1312.1,-278.08 1339.8,-259.88 1360.36,-245.02"/>
<polygon fill="black" stroke="black" points="1362.45,-247.83 1368.44,-239.09 1358.3,-242.19 1362.45,-247.83"/>
<text text-anchor="middle" x="1169.26" y="-364.8" font-family="Times,serif" font-size="14.00">called by</text>
</g>
<!-- /control/track_position&#45;&gt;/cartpole_ui -->
<g id="edge12" class="edge">
<title>/control/track_position&#45;&gt;/cartpole_ui</title>
<path fill="none" stroke="black" stroke-dasharray="1,5" d="M911.04,-290.76C954.75,-285.54 1000.55,-279.81 1043.26,-274 1127.63,-262.53 1223.15,-247.64 1292.99,-236.4"/>
<polygon fill="black" stroke="black" points="1293.79,-239.82 1303.1,-234.77 1292.67,-232.9 1293.79,-239.82"/>
<text text-anchor="middle" x="1169.26" y="-274.8" font-family="Times,serif" font-size="14.00">called by</text>
</g>
<!-- /hardware/joint_states -->
<g id="node6" class="node">
<title>/hardware/joint_states</title>
<ellipse fill="lightgreen" stroke="black" cx="702.13" cy="-137" rx="161.85" ry="26.74"/>
<text text-anchor="middle" x="702.13" y="-140.8" font-family="Times,serif" font-size="14.00">/hardware/joint_states</text>
<text text-anchor="middle" x="702.13" y="-125.8" font-family="Times,serif" font-size="14.00">[sensor_msgs/msg/JointState]</text>
</g>
<!-- hardware&#45;&gt;/hardware/joint_states -->
<g id="edge1" class="edge">
<title>hardware&#45;&gt;/hardware/joint_states</title>
<path fill="none" stroke="orange" stroke-width="2" d="M101.08,-104.74C107.03,-103.2 113.13,-101.87 119,-101 221,-85.91 248.02,-95.72 351,-101 421.09,-104.59 498.77,-112.21 563.11,-119.51"/>
<polygon fill="orange" stroke="orange" stroke-width="2" points="562.99,-123.02 573.32,-120.68 563.79,-116.07 562.99,-123.02"/>
<text text-anchor="middle" x="235" y="-104.8" font-family="Times,serif" font-size="14.00">pub INCOMPATIBLE_QOS</text>
</g>
<!-- /hardware/reset -->
<g id="node7" class="node">
<title>/hardware/reset</title>
<polygon fill="lightyellow" stroke="black" points="702.13,-92 531.13,-54 702.13,-16 873.13,-54 702.13,-92"/>
<text text-anchor="middle" x="702.13" y="-57.8" font-family="Times,serif" font-size="14.00">/hardware/reset</text>
<text text-anchor="middle" x="702.13" y="-42.8" font-family="Times,serif" font-size="14.00">[std_srvs/srv/Trigger]</text>
</g>
<!-- hardware&#45;&gt;/hardware/reset -->
<g id="edge9" class="edge">
<title>hardware&#45;&gt;/hardware/reset</title>
<path fill="none" stroke="black" stroke-dasharray="5,2" d="M78.31,-99.96C89.2,-90.27 103.74,-79.41 119,-74 274.15,-18.95 467.39,-25.83 587.53,-38.13"/>
<polygon fill="black" stroke="black" points="587.17,-41.62 597.49,-39.18 587.91,-34.65 587.17,-41.62"/>
<text text-anchor="middle" x="235" y="-77.8" font-family="Times,serif" font-size="14.00">provide</text>
</g>
<!-- /hardware/joint_states&#45;&gt;control -->
<g id="edge3" class="edge">
<title>/hardware/joint_states&#45;&gt;control</title>
<path fill="none" stroke="black" d="M597.61,-157.63C528.06,-171.07 434.24,-188.38 351,-201 248.31,-216.57 211.74,-182.24 119,-229 102.8,-237.17 88.66,-251.62 78.23,-264.62"/>
<polygon fill="black" stroke="black" points="75.22,-262.8 71.93,-272.88 80.78,-267.05 75.22,-262.8"/>
<text text-anchor="middle" x="235" y="-232.8" font-family="Times,serif" font-size="14.00">subbed by</text>
</g>
<!-- /hardware/joint_states&#45;&gt;hardware -->
<g id="edge4" class="edge">
<title>/hardware/joint_states&#45;&gt;hardware</title>
<path fill="none" stroke="orange" stroke-width="2" d="M542.2,-132.54C401.3,-128.59 203.94,-123.05 111.34,-120.45"/>
<polygon fill="orange" stroke="orange" stroke-width="2" points="111.2,-116.95 101.1,-120.17 111,-123.95 111.2,-116.95"/>
<text text-anchor="middle" x="235" y="-130.8" font-family="Times,serif" font-size="14.00">subbed by INCOMPATIBLE_QOS</text>
</g>
<!-- /hardware/joint_states&#45;&gt;/cartpole_ui -->
<g id="edge2" class="edge">
<title>/hardware/joint_states&#45;&gt;/cartpole_ui</title>
<path fill="none" stroke="orange" stroke-width="2" d="M833.66,-152.71C967.25,-168.79 1171.96,-193.43 1293.09,-208"/>
<polygon fill="orange" stroke="orange" stroke-width="2" points="1292.75,-211.49 1303.1,-209.21 1293.59,-204.54 1292.75,-211.49"/>
<text text-anchor="middle" x="1169.26" y="-209.8" font-family="Times,serif" font-size="14.00">subbed by INCOMPATIBLE_QOS</text>
</g>
<!-- /hardware/reset&#45;&gt;/cartpole_ui -->
<g id="edge10" class="edge">
<title>/hardware/reset&#45;&gt;/cartpole_ui</title>
<path fill="none" stroke="black" stroke-dasharray="5,2" d="M831,-63.43C951.56,-75.56 1135.59,-102.52 1285.26,-161 1308.99,-170.27 1334.03,-183.77 1353.96,-195.51"/>
<polygon fill="black" stroke="black" points="1352.36,-198.63 1362.74,-200.77 1355.95,-192.63 1352.36,-198.63"/>
<text text-anchor="middle" x="1169.26" y="-164.8" font-family="Times,serif" font-size="14.00">called by</text>
</g>
<!-- /rviz2 -->
<g id="node9" class="node">
<title>/rviz2</title>
<polygon fill="lightyellow" stroke="black" points="90,-516 27,-516 27,-478 90,-478 90,-516"/>
<text text-anchor="middle" x="58.5" y="-500.8" font-family="Times,serif" font-size="14.00">/rviz2</text>
<text text-anchor="middle" x="58.5" y="-485.8" font-family="Times,serif" font-size="14.00">(rviz2)</text>
</g>
</g>
</svg>
