<?xml version="1.0" encoding="UTF-8" standalone="no"?>
<!DOCTYPE svg PUBLIC "-//W3C//DTD SVG 1.1//EN"
 "http://www.w3.org/Graphics/SVG/1.1/DTD/svg11.dtd">
<!-- Generated by graphviz version 2.43.0 (0)
 -->
<!-- Title: ROS2Graph Pages: 1 -->
<svg width="2888pt" height="395pt"
 viewBox="0.00 0.00 2887.83 395.27" xmlns="http://www.w3.org/2000/svg" xmlns:xlink="http://www.w3.org/1999/xlink">
<g id="graph0" class="graph" transform="scale(1 1) rotate(0) translate(4 391.27)">
<title>ROS2Graph</title>
<polygon fill="white" stroke="transparent" points="-4,4 -4,-391.27 2883.83,-391.27 2883.83,4 -4,4"/>
<g id="clust1" class="cluster">
<title>cluster__cartpole_ui</title>
<polygon fill="lightgrey" stroke="black" points="8,-118.27 8,-195.27 205,-195.27 205,-118.27 8,-118.27"/>
<text text-anchor="middle" x="106.5" y="-180.07" font-family="Times,serif" font-size="14.00">/cartpole_ui</text>
</g>
<g id="clust2" class="cluster">
<title>cluster__control_cartpole_controller</title>
<polygon fill="lightgrey" stroke="black" points="258,-184.27 258,-379.27 1952.83,-379.27 1952.83,-184.27 258,-184.27"/>
<text text-anchor="middle" x="1105.42" y="-364.07" font-family="Times,serif" font-size="14.00">/control/cartpole_controller</text>
</g>
<g id="clust3" class="cluster">
<title>cluster__hardware_robot_state_publisher</title>
<polygon fill="lightgrey" stroke="black" points="2233.12,-73.27 2233.12,-166.27 2871.83,-166.27 2871.83,-73.27 2233.12,-73.27"/>
<text text-anchor="middle" x="2552.47" y="-151.07" font-family="Times,serif" font-size="14.00">/hardware/robot_state_publisher</text>
</g>
<g id="clust4" class="cluster">
<title>cluster__hardware_cartpole_simulator</title>
<polygon fill="lightgrey" stroke="black" points="420.13,-61.27 420.13,-176.27 1981.12,-176.27 1981.12,-61.27 420.13,-61.27"/>
<text text-anchor="middle" x="1200.62" y="-161.07" font-family="Times,serif" font-size="14.00">/hardware/cartpole_simulator</text>
</g>
<g id="clust5" class="cluster">
<title>cluster__rviz2</title>
<polygon fill="lightgrey" stroke="black" points="67,-271.27 67,-348.27 146,-348.27 146,-271.27 67,-271.27"/>
<text text-anchor="middle" x="106.5" y="-333.07" font-family="Times,serif" font-size="14.00">/rviz2</text>
</g>
<!-- /cartpole_ui -->
<g id="node1" class="node">
<title>/cartpole_ui</title>
<polygon fill="lightblue" stroke="black" points="197,-164.27 16,-164.27 16,-126.27 197,-126.27 197,-164.27"/>
<text text-anchor="middle" x="106.5" y="-149.07" font-family="Times,serif" font-size="14.00">/cartpole_ui</text>
<text text-anchor="middle" x="106.5" y="-134.07" font-family="Times,serif" font-size="14.00">(breadcrumb_example)</text>
</g>
<!-- /control/enable -->
<g id="node4" class="node">
<title>/control/enable</title>
<polygon fill="lightyellow" stroke="black" points="599.13,-348.27 426.13,-310.27 599.13,-272.27 772.13,-310.27 599.13,-348.27"/>
<text text-anchor="middle" x="599.13" y="-314.07" font-family="Times,serif" font-size="14.00">/control/enable</text>
<text text-anchor="middle" x="599.13" y="-299.07" font-family="Times,serif" font-size="14.00">[std_srvs/srv/SetBool]</text>
</g>
<!-- /cartpole_ui&#45;&gt;/control/enable -->
<g id="edge9" class="edge">
<title>/cartpole_ui&#45;&gt;/control/enable</title>
<path fill="none" stroke="black" stroke-dasharray="5,2" d="M125.31,-164.58C151.51,-191.62 203.29,-240.07 258,-263.27 312.88,-286.55 376.78,-298.81 434.28,-305.12"/>
<polygon fill="black" stroke="black" points="434.26,-308.63 444.57,-306.19 434.98,-301.67 434.26,-308.63"/>
<text text-anchor="middle" x="231.5" y="-260.07" font-family="Times,serif" font-size="14.00">calls</text>
</g>
<!-- /control/track_position -->
<g id="node5" class="node">
<title>/control/track_position</title>
<polygon fill="lightcoral" stroke="black" points="932.39,-223.27 765.76,-254.33 432.5,-254.33 265.87,-223.27 432.5,-192.22 765.76,-192.22 932.39,-223.27"/>
<text text-anchor="middle" x="599.13" y="-227.07" font-family="Times,serif" font-size="14.00">/control/track_position</text>
<text text-anchor="middle" x="599.13" y="-212.07" font-family="Times,serif" font-size="14.00">[breadcrumb_example_interfaces/action/TrackPosition]</text>
</g>
<!-- /cartpole_ui&#45;&gt;/control/track_position -->
<g id="edge13" class="edge">
<title>/cartpole_ui&#45;&gt;/control/track_position</title>
<path fill="none" stroke="black" stroke-dasharray="1,5" d="M182.59,-164.34C206.58,-170 233.31,-175.86 258,-180.27 296.97,-187.25 338.65,-193.5 379.01,-198.94"/>
<polygon fill="black" stroke="black" points="378.58,-202.41 388.96,-200.27 379.51,-195.48 378.58,-202.41"/>
<text text-anchor="middle" x="231.5" y="-181.07" font-family="Times,serif" font-size="14.00">calls</text>
</g>
<!-- /hardware/reset -->
<g id="node10" class="node">
<title>/hardware/reset</title>
<polygon fill="lightyellow" stroke="black" points="599.13,-145.27 428.13,-107.27 599.13,-69.27 770.13,-107.27 599.13,-145.27"/>
<text text-anchor="middle" x="599.13" y="-111.07" font-family="Times,serif" font-size="14.00">/hardware/reset</text>
<text text-anchor="middle" x="599.13" y="-96.07" font-family="Times,serif" font-size="14.00">[std_srvs/srv/Trigger]</text>
</g>
<!-- /cartpole_ui&#45;&gt;/hardware/reset -->
<g id="edge11" class="edge">
<title>/cartpole_ui&#45;&gt;/hardware/reset</title>
<path fill="none" stroke="black" stroke-dasharray="5,2" d="M197.2,-138.33C271.07,-132.61 377,-124.4 461.43,-117.86"/>
<polygon fill="black" stroke="black" points="461.92,-121.34 471.62,-117.07 461.37,-114.36 461.92,-121.34"/>
<text text-anchor="middle" x="231.5" y="-139.07" font-family="Times,serif" font-size="14.00">calls</text>
</g>
<!-- /control/cartpole_controller -->
<g id="node2" class="node">
<title>/control/cartpole_controller</title>
<polygon fill="lightblue" stroke="black" points="1419.26,-241.27 1208.26,-241.27 1208.26,-203.27 1419.26,-203.27 1419.26,-241.27"/>
<text text-anchor="middle" x="1313.76" y="-226.07" font-family="Times,serif" font-size="14.00">/control/cartpole_controller</text>
<text text-anchor="middle" x="1313.76" y="-211.07" font-family="Times,serif" font-size="14.00">(breadcrumb_example)</text>
</g>
<!-- /hardware/request/force -->
<g id="node3" class="node">
<title>/hardware/request/force</title>
<ellipse fill="lightgreen" stroke="black" cx="1811.19" cy="-221.27" rx="133.79" ry="26.74"/>
<text text-anchor="middle" x="1811.19" y="-225.07" font-family="Times,serif" font-size="14.00">/hardware/request/force</text>
<text text-anchor="middle" x="1811.19" y="-210.07" font-family="Times,serif" font-size="14.00">[std_msgs/msg/Float64]</text>
</g>
<!-- /control/cartpole_controller&#45;&gt;/hardware/request/force -->
<g id="edge5" class="edge">
<title>/control/cartpole_controller&#45;&gt;/hardware/request/force</title>
<path fill="none" stroke="black" d="M1419.53,-222.06C1491.55,-221.92 1588.1,-221.72 1667.19,-221.56"/>
<polygon fill="black" stroke="black" points="1667.24,-225.06 1677.24,-221.54 1667.23,-218.06 1667.24,-225.06"/>
<text text-anchor="middle" x="1538.26" y="-225.07" font-family="Times,serif" font-size="14.00">pub</text>
</g>
<!-- /hardware/cartpole_simulator -->
<g id="node8" class="node">
<title>/hardware/cartpole_simulator</title>
<polygon fill="lightblue" stroke="black" points="1427.26,-127.27 1200.26,-127.27 1200.26,-89.27 1427.26,-89.27 1427.26,-127.27"/>
<text text-anchor="middle" x="1313.76" y="-112.07" font-family="Times,serif" font-size="14.00">/hardware/cartpole_simulator</text>
<text text-anchor="middle" x="1313.76" y="-97.07" font-family="Times,serif" font-size="14.00">(breadcrumb_example)</text>
</g>
<!-- /hardware/request/force&#45;&gt;/hardware/cartpole_simulator -->
<g id="edge6" class="edge">
<title>/hardware/request/force&#45;&gt;/hardware/cartpole_simulator</title>
<path fill="none" stroke="black" d="M1700.25,-206.2C1681.99,-200.2 1664.17,-191.86 1649.26,-180.27 1636.07,-170.03 1645.08,-156.67 1631.26,-147.27 1631,-147.1 1526.56,-134.25 1437.74,-123.35"/>
<polygon fill="black" stroke="black" points="1437.9,-119.84 1427.55,-122.1 1437.05,-126.79 1437.9,-119.84"/>
<text text-anchor="middle" x="1538.26" y="-151.07" font-family="Times,serif" font-size="14.00">subbed by</text>
</g>
<!-- /control/enable&#45;&gt;/control/cartpole_controller -->
<g id="edge8" class="edge">
<title>/control/enable&#45;&gt;/control/cartpole_controller</title>
<path fill="none" stroke="black" stroke-dasharray="5,2" d="M714.57,-297.62C832.04,-284.42 1020.07,-262.69 1182.26,-241.27 1187.38,-240.6 1192.61,-239.89 1197.89,-239.17"/>
<polygon fill="black" stroke="black" points="1198.66,-242.6 1208.09,-237.76 1197.7,-235.66 1198.66,-242.6"/>
<text text-anchor="middle" x="1066.26" y="-273.07" font-family="Times,serif" font-size="14.00">provided by</text>
</g>
<!-- /control/track_position&#45;&gt;/control/cartpole_controller -->
<g id="edge12" class="edge">
<title>/control/track_position&#45;&gt;/control/cartpole_controller</title>
<path fill="none" stroke="black" stroke-dasharray="1,5" d="M930.11,-222.81C1026.12,-222.68 1124.7,-222.54 1197.75,-222.44"/>
<polygon fill="black" stroke="black" points="1197.89,-225.94 1207.89,-222.42 1197.88,-218.94 1197.89,-225.94"/>
<text text-anchor="middle" x="1066.26" y="-226.07" font-family="Times,serif" font-size="14.00">served by</text>
</g>
<!-- /hardware/robot_state_publisher -->
<g id="node6" class="node">
<title>/hardware/robot_state_publisher</title>
<polygon fill="lightblue" stroke="black" points="2490.12,-127.27 2241.12,-127.27 2241.12,-89.27 2490.12,-89.27 2490.12,-127.27"/>
<text text-anchor="middle" x="2365.62" y="-112.07" font-family="Times,serif" font-size="14.00">/hardware/robot_state_publisher</text>
<text text-anchor="middle" x="2365.62" y="-97.07" font-family="Times,serif" font-size="14.00">(robot_state_publisher)</text>
</g>
<!-- /hardware/robot_description -->
<g id="node7" class="node">
<title>/hardware/robot_description</title>
<ellipse fill="lightgreen" stroke="black" cx="2708.97" cy="-108.27" rx="154.71" ry="26.74"/>
<text text-anchor="middle" x="2708.97" y="-112.07" font-family="Times,serif" font-size="14.00">/hardware/robot_description</text>
<text text-anchor="middle" x="2708.97" y="-97.07" font-family="Times,serif" font-size="14.00">[std_msgs/msg/String]</text>
</g>
<!-- /hardware/robot_state_publisher&#45;&gt;/hardware/robot_description -->
<g id="edge7" class="edge">
<title>/hardware/robot_state_publisher&#45;&gt;/hardware/robot_description</title>
<path fill="none" stroke="black" d="M2490.34,-108.27C2507.8,-108.27 2525.98,-108.27 2544.06,-108.27"/>
<polygon fill="black" stroke="black" points="2544.09,-111.77 2554.09,-108.27 2544.09,-104.77 2544.09,-111.77"/>
<text text-anchor="middle" x="2522.12" y="-112.07" font-family="Times,serif" font-size="14.00">pub</text>
</g>
<!-- /hardware/joint_states -->
<g id="node9" class="node">
<title>/hardware/joint_states</title>
<ellipse fill="lightgreen" stroke="black" cx="1811.19" cy="-108.27" rx="161.85" ry="26.74"/>
<text text-anchor="middle" x="1811.19" y="-112.07" font-family="Times,serif" font-size="14.00">/hardware/joint_states</text>
<text text-anchor="middle" x="1811.19" y="-97.07" font-family="Times,serif" font-size="14.00">[sensor_msgs/msg/JointState]</text>
</g>
<!-- /hardware/cartpole_simulator&#45;&gt;/hardware/joint_states -->
<g id="edge1" class="edge">
<title>/hardware/cartpole_simulator&#45;&gt;/hardware/joint_states</title>
<path fill="none" stroke="orange" stroke-width="2" d="M1427.49,-108.27C1489.95,-108.27 1568.89,-108.27 1638.83,-108.27"/>
<polygon fill="orange" stroke="orange" stroke-width="2" points="1639.09,-111.77 1649.09,-108.27 1639.09,-104.77 1639.09,-111.77"/>
<text text-anchor="middle" x="1538.26" y="-112.07" font-family="Times,serif" font-size="14.00">pub INCOMPATIBLE_QOS</text>
</g>
<!-- /hardware/joint_states&#45;&gt;/cartpole_ui -->
<g id="edge2" class="edge">
<title>/hardware/joint_states&#45;&gt;/cartpole_ui</title>
<path fill="none" stroke="orange" stroke-width="2" d="M1665.25,-96.56C1593.66,-91.05 1505.96,-84.74 1427.26,-80.27 908.35,-50.83 760.67,71.87 258,-60.27 213.89,-71.87 169.1,-99.66 140,-120.33"/>
<polygon fill="orange" stroke="orange" stroke-width="2" points="137.9,-117.52 131.85,-126.22 142,-123.19 137.9,-117.52"/>
<text text-anchor="middle" x="1066.26" y="-61.07" font-family="Times,serif" font-size="14.00">subbed by INCOMPATIBLE_QOS</text>
</g>
<!-- /hardware/joint_states&#45;&gt;/control/cartpole_controller -->
<g id="edge3" class="edge">
<title>/hardware/joint_states&#45;&gt;/control/cartpole_controller</title>
<path fill="none" stroke="black" d="M1737.11,-132.24C1704.87,-142.31 1666.4,-153.67 1631.26,-162.27 1564.88,-178.53 1489.76,-192.94 1429.37,-203.56"/>
<polygon fill="black" stroke="black" points="1428.67,-200.13 1419.42,-205.3 1429.87,-207.03 1428.67,-200.13"/>
<text text-anchor="middle" x="1538.26" y="-203.07" font-family="Times,serif" font-size="14.00">subbed by</text>
</g>
<!-- /hardware/joint_states&#45;&gt;/hardware/robot_state_publisher -->
<g id="edge4" class="edge">
<title>/hardware/joint_states&#45;&gt;/hardware/robot_state_publisher</title>
<path fill="none" stroke="orange" stroke-width="2" d="M1973.46,-108.27C2055.14,-108.27 2153.15,-108.27 2230.62,-108.27"/>
<polygon fill="orange" stroke="orange" stroke-width="2" points="2230.93,-111.77 2240.93,-108.27 2230.93,-104.77 2230.93,-111.77"/>
<text text-anchor="middle" x="2107.12" y="-112.07" font-family="Times,serif" font-size="14.00">subbed by INCOMPATIBLE_QOS</text>
</g>
<!-- /hardware/reset&#45;&gt;/hardware/cartpole_simulator -->
<g id="edge10" class="edge">
<title>/hardware/reset&#45;&gt;/hardware/cartpole_simulator</title>
<path fill="none" stroke="black" stroke-dasharray="5,2" d="M769.47,-107.51C898.73,-107.69 1073.8,-107.94 1189.87,-108.1"/>
<polygon fill="black" stroke="black" points="1190.21,-111.6 1200.21,-108.12 1190.22,-104.6 1190.21,-111.6"/>
<text text-anchor="middle" x="1066.26" y="-112.07" font-family="Times,serif" font-size="14.00">provided by</text>
</g>
<!-- /rviz2 -->
<g id="node11" class="node">
<title>/rviz2</title>
<polygon fill="lightblue" stroke="black" points="138,-317.27 75,-317.27 75,-279.27 138,-279.27 138,-317.27"/>
<text text-anchor="middle" x="106.5" y="-302.07" font-family="Times,serif" font-size="14.00">/rviz2</text>
<text text-anchor="middle" x="106.5" y="-287.07" font-family="Times,serif" font-size="14.00">(rviz2)</text>
</g>
</g>
</svg>
