<?xml version="1.0" encoding="UTF-8" standalone="no"?>
<!DOCTYPE svg PUBLIC "-//W3C//DTD SVG 1.1//EN"
 "http://www.w3.org/Graphics/SVG/1.1/DTD/svg11.dtd">
<!-- Generated by graphviz version 2.43.0 (0)
 -->
<!-- Title: ROS2Group_control Pages: 1 -->
<svg width="1394pt" height="259pt"
 viewBox="0.00 0.00 1393.55 258.90" xmlns="http://www.w3.org/2000/svg" xmlns:xlink="http://www.w3.org/1999/xlink">
<g id="graph0" class="graph" transform="scale(1 1) rotate(0) translate(4 254.9)">
<title>ROS2Group_control</title>
<polygon fill="white" stroke="transparent" points="-4,4 -4,-254.9 1389.55,-254.9 1389.55,4 -4,4"/>
<text text-anchor="middle" x="692.77" y="-235.7" font-family="Times,serif" font-size="14.00">Group: control</text>
<g id="clust1" class="cluster">
<title>cluster_control</title>
<polygon fill="lightgrey" stroke="black" points="794.26,-91.03 794.26,-168.03 1021.26,-168.03 1021.26,-91.03 794.26,-91.03"/>
<text text-anchor="middle" x="907.76" y="-152.83" font-family="Times,serif" font-size="14.00">control</text>
</g>
<!-- /control/cartpole_controller -->
<g id="node1" class="node">
<title>/control/cartpole_controller</title>
<polygon fill="lightblue" stroke="black" points="1013.26,-137.03 802.26,-137.03 802.26,-99.03 1013.26,-99.03 1013.26,-137.03"/>
<text text-anchor="middle" x="907.76" y="-121.83" font-family="Times,serif" font-size="14.00">/control/cartpole_controller</text>
<text text-anchor="middle" x="907.76" y="-106.83" font-family="Times,serif" font-size="14.00">(breadcrumb_example)</text>
</g>
<!-- /test/test -->
<g id="node3" class="node">
<title>/test/test</title>
<ellipse fill="lightgreen" stroke="black" cx="1251.9" cy="-154.03" rx="125.73" ry="26.74"/>
<text text-anchor="middle" x="1251.9" y="-157.83" font-family="Times,serif" font-size="14.00">/test/test</text>
<text text-anchor="middle" x="1251.9" y="-142.83" font-family="Times,serif" font-size="14.00">[std_msgs/msg/String]</text>
</g>
<!-- /control/cartpole_controller&#45;&gt;/test/test -->
<g id="edge2" class="edge">
<title>/control/cartpole_controller&#45;&gt;/test/test</title>
<path fill="none" stroke="black" d="M1013.27,-129.02C1049.72,-132.86 1090.93,-137.19 1128.68,-141.17"/>
<polygon fill="black" stroke="black" points="1128.4,-144.66 1138.71,-142.22 1129.13,-137.69 1128.4,-144.66"/>
<text text-anchor="middle" x="1065.76" y="-140.83" font-family="Times,serif" font-size="14.00">publishes</text>
</g>
<!-- /hardware/request/force -->
<g id="node4" class="node">
<title>/hardware/request/force</title>
<ellipse fill="lightgreen" stroke="black" cx="1251.9" cy="-82.03" rx="133.79" ry="26.74"/>
<text text-anchor="middle" x="1251.9" y="-85.83" font-family="Times,serif" font-size="14.00">/hardware/request/force</text>
<text text-anchor="middle" x="1251.9" y="-70.83" font-family="Times,serif" font-size="14.00">[std_msgs/msg/Float64]</text>
</g>
<!-- /control/cartpole_controller&#45;&gt;/hardware/request/force -->
<g id="edge3" class="edge">
<title>/control/cartpole_controller&#45;&gt;/hardware/request/force</title>
<path fill="none" stroke="black" d="M1013.27,-107.03C1047.85,-103.39 1086.73,-99.3 1122.87,-95.5"/>
<polygon fill="black" stroke="black" points="1123.4,-98.96 1132.98,-94.43 1122.67,-92 1123.4,-98.96"/>
<text text-anchor="middle" x="1065.76" y="-107.83" font-family="Times,serif" font-size="14.00">publishes</text>
</g>
<!-- /hardware/joint_states -->
<g id="node2" class="node">
<title>/hardware/joint_states</title>
<ellipse fill="lightgreen" stroke="black" cx="333.13" cy="-201.03" rx="161.85" ry="26.74"/>
<text text-anchor="middle" x="333.13" y="-204.83" font-family="Times,serif" font-size="14.00">/hardware/joint_states</text>
<text text-anchor="middle" x="333.13" y="-189.83" font-family="Times,serif" font-size="14.00">[sensor_msgs/msg/JointState]</text>
</g>
<!-- /hardware/joint_states&#45;&gt;/control/cartpole_controller -->
<g id="edge1" class="edge">
<title>/hardware/joint_states&#45;&gt;/control/cartpole_controller</title>
<path fill="none" stroke="black" d="M475.89,-188.34C534.9,-182.36 604.04,-174.46 666.26,-165.03 713.38,-157.88 765.32,-147.99 808.83,-139.12"/>
<polygon fill="black" stroke="black" points="809.74,-142.51 818.84,-137.07 808.34,-135.65 809.74,-142.51"/>
<text text-anchor="middle" x="734.26" y="-164.83" font-family="Times,serif" font-size="14.00">subscribed by</text>
</g>
<!-- /control/enable -->
<g id="node5" class="node">
<title>/control/enable</title>
<polygon fill="lightyellow" stroke="black" points="333.13,-156.03 160.13,-118.03 333.13,-80.03 506.13,-118.03 333.13,-156.03"/>
<text text-anchor="middle" x="333.13" y="-121.83" font-family="Times,serif" font-size="14.00">/control/enable</text>
<text text-anchor="middle" x="333.13" y="-106.83" font-family="Times,serif" font-size="14.00">[std_srvs/srv/SetBool]</text>
</g>
<!-- /control/enable&#45;&gt;/control/cartpole_controller -->
<g id="edge4" class="edge">
<title>/control/enable&#45;&gt;/control/cartpole_controller</title>
<path fill="none" stroke="black" stroke-dasharray="5,2" d="M506.33,-118.03C598.81,-118.03 710.29,-118.03 792.11,-118.03"/>
<polygon fill="black" stroke="black" points="792.19,-121.53 802.19,-118.03 792.19,-114.53 792.19,-121.53"/>
<text text-anchor="middle" x="734.26" y="-121.83" font-family="Times,serif" font-size="14.00">provided by</text>
</g>
<!-- /control/track_position -->
<g id="node6" class="node">
<title>/control/track_position</title>
<polygon fill="lightcoral" stroke="black" points="666.39,-31.03 499.76,-62.08 166.5,-62.08 -0.13,-31.03 166.5,0.03 499.76,0.03 666.39,-31.03"/>
<text text-anchor="middle" x="333.13" y="-34.83" font-family="Times,serif" font-size="14.00">/control/track_position</text>
<text text-anchor="middle" x="333.13" y="-19.83" font-family="Times,serif" font-size="14.00">[breadcrumb_example_interfaces/action/TrackPosition]</text>
</g>
<!-- /control/track_position&#45;&gt;/control/cartpole_controller -->
<g id="edge5" class="edge">
<title>/control/track_position&#45;&gt;/control/cartpole_controller</title>
<path fill="none" stroke="black" stroke-dasharray="1,5" d="M543.96,-53.94C584.61,-59.04 626.82,-64.81 666.26,-71.03 712.95,-78.39 764.41,-88.21 807.7,-96.98"/>
<polygon fill="black" stroke="black" points="807.17,-100.44 817.67,-99 808.56,-93.58 807.17,-100.44"/>
<text text-anchor="middle" x="734.26" y="-94.83" font-family="Times,serif" font-size="14.00">served by</text>
</g>
</g>
</svg>
