<?xml version="1.0" encoding="UTF-8" standalone="no"?>
<!DOCTYPE svg PUBLIC "-//W3C//DTD SVG 1.1//EN"
 "http://www.w3.org/Graphics/SVG/1.1/DTD/svg11.dtd">
<!-- Generated by graphviz version 2.43.0 (0)
 -->
<!-- Title: ROS2TopLevel Pages: 1 -->
<svg width="2196pt" height="280pt"
 viewBox="0.00 0.00 2195.55 280.03" xmlns="http://www.w3.org/2000/svg" xmlns:xlink="http://www.w3.org/1999/xlink">
<g id="graph0" class="graph" transform="scale(1 1) rotate(0) translate(4 276.03)">
<title>ROS2TopLevel</title>
<polygon fill="white" stroke="transparent" points="-4,4 -4,-276.03 2191.55,-276.03 2191.55,4 -4,4"/>
<!-- control -->
<g id="node1" class="node">
<title>control</title>
<polygon fill="lightblue" stroke="black" points="75,-144.03 0,-144.03 0,-106.03 75,-106.03 75,-144.03"/>
<text text-anchor="middle" x="37.5" y="-128.83" font-family="Times,serif" font-size="14.00">control</text>
<text text-anchor="middle" x="37.5" y="-113.83" font-family="Times,serif" font-size="14.00">(1 node)</text>
</g>
<!-- /hardware/request/force -->
<g id="node6" class="node">
<title>/hardware/request/force</title>
<ellipse fill="lightgreen" stroke="black" cx="299.64" cy="-204.03" rx="133.79" ry="26.74"/>
<text text-anchor="middle" x="299.64" y="-207.83" font-family="Times,serif" font-size="14.00">/hardware/request/force</text>
<text text-anchor="middle" x="299.64" y="-192.83" font-family="Times,serif" font-size="14.00">[std_msgs/msg/Float64]</text>
</g>
<!-- control&#45;&gt;/hardware/request/force -->
<g id="edge5" class="edge">
<title>control&#45;&gt;/hardware/request/force</title>
<path fill="none" stroke="black" d="M64.97,-144.07C73.57,-149.56 83.39,-155.12 93,-159.03 121.05,-170.45 152.5,-179.19 182.2,-185.79"/>
<polygon fill="black" stroke="black" points="181.68,-189.26 192.19,-187.95 183.16,-182.42 181.68,-189.26"/>
<text text-anchor="middle" x="120.5" y="-180.83" font-family="Times,serif" font-size="14.00">pub</text>
</g>
<!-- /control/enable -->
<g id="node7" class="node">
<title>/control/enable</title>
<polygon fill="lightyellow" stroke="black" points="624.29,-122.03 451.29,-84.03 624.29,-46.03 797.29,-84.03 624.29,-122.03"/>
<text text-anchor="middle" x="624.29" y="-87.83" font-family="Times,serif" font-size="14.00">/control/enable</text>
<text text-anchor="middle" x="624.29" y="-72.83" font-family="Times,serif" font-size="14.00">[std_srvs/srv/SetBool]</text>
</g>
<!-- control&#45;&gt;/control/enable -->
<g id="edge7" class="edge">
<title>control&#45;&gt;/control/enable</title>
<path fill="none" stroke="black" stroke-dasharray="5,2" d="M75.07,-118.45C81.05,-117.53 87.19,-116.68 93,-116.03 216.97,-102.09 357.98,-93.95 463.41,-89.37"/>
<polygon fill="black" stroke="black" points="463.66,-92.86 473.5,-88.93 463.36,-85.86 463.66,-92.86"/>
<text text-anchor="middle" x="120.5" y="-119.83" font-family="Times,serif" font-size="14.00">provide</text>
</g>
<!-- /control/track_position -->
<g id="node9" class="node">
<title>/control/track_position</title>
<polygon fill="lightcoral" stroke="black" points="1584.68,-31.03 1418.05,-62.08 1084.79,-62.08 918.16,-31.03 1084.79,0.03 1418.05,0.03 1584.68,-31.03"/>
<text text-anchor="middle" x="1251.42" y="-34.83" font-family="Times,serif" font-size="14.00">/control/track_position</text>
<text text-anchor="middle" x="1251.42" y="-19.83" font-family="Times,serif" font-size="14.00">[breadcrumb_example_interfaces/action/TrackPosition]</text>
</g>
<!-- control&#45;&gt;/control/track_position -->
<g id="edge11" class="edge">
<title>control&#45;&gt;/control/track_position</title>
<path fill="none" stroke="black" stroke-dasharray="1,5" d="M75.15,-106.33C100.11,-94.48 134.25,-79.94 166,-72.03 448.22,-1.72 784.42,-1.3 1006.86,-12.04"/>
<polygon fill="black" stroke="black" points="1006.87,-15.55 1017.03,-12.54 1007.22,-8.56 1006.87,-15.55"/>
<text text-anchor="middle" x="299.64" y="-75.83" font-family="Times,serif" font-size="14.00">serve</text>
</g>
<!-- hardware -->
<g id="node2" class="node">
<title>hardware</title>
<polygon fill="lightblue" stroke="black" points="900.29,-233.03 815.29,-233.03 815.29,-195.03 900.29,-195.03 900.29,-233.03"/>
<text text-anchor="middle" x="857.79" y="-217.83" font-family="Times,serif" font-size="14.00">hardware</text>
<text text-anchor="middle" x="857.79" y="-202.83" font-family="Times,serif" font-size="14.00">(2 nodes)</text>
</g>
<!-- /hardware/joint_states -->
<g id="node5" class="node">
<title>/hardware/joint_states</title>
<ellipse fill="lightgreen" stroke="black" cx="1773.55" cy="-234.03" rx="161.85" ry="26.74"/>
<text text-anchor="middle" x="1773.55" y="-237.83" font-family="Times,serif" font-size="14.00">/hardware/joint_states</text>
<text text-anchor="middle" x="1773.55" y="-222.83" font-family="Times,serif" font-size="14.00">[sensor_msgs/msg/JointState]</text>
</g>
<!-- hardware&#45;&gt;/hardware/joint_states -->
<g id="edge1" class="edge">
<title>hardware&#45;&gt;/hardware/joint_states</title>
<path fill="none" stroke="black" d="M900.37,-228.27C906.32,-229.82 912.42,-231.15 918.29,-232.03 1161.17,-268.25 1447.23,-258.45 1619.01,-247.01"/>
<polygon fill="black" stroke="black" points="1619.4,-250.49 1629.14,-246.33 1618.92,-243.51 1619.4,-250.49"/>
<text text-anchor="middle" x="1251.42" y="-260.83" font-family="Times,serif" font-size="14.00">pub</text>
</g>
<!-- /hardware/reset -->
<g id="node8" class="node">
<title>/hardware/reset</title>
<polygon fill="lightyellow" stroke="black" points="1773.55,-189.03 1602.55,-151.03 1773.55,-113.03 1944.55,-151.03 1773.55,-189.03"/>
<text text-anchor="middle" x="1773.55" y="-154.83" font-family="Times,serif" font-size="14.00">/hardware/reset</text>
<text text-anchor="middle" x="1773.55" y="-139.83" font-family="Times,serif" font-size="14.00">[std_srvs/srv/Trigger]</text>
</g>
<!-- hardware&#45;&gt;/hardware/reset -->
<g id="edge9" class="edge">
<title>hardware&#45;&gt;/hardware/reset</title>
<path fill="none" stroke="black" stroke-dasharray="5,2" d="M893.49,-194.89C901.42,-191.31 909.97,-188.07 918.29,-186.03 1166.71,-125.13 1467.75,-130.36 1638.02,-140.28"/>
<polygon fill="black" stroke="black" points="1637.84,-143.78 1648.03,-140.88 1638.26,-136.79 1637.84,-143.78"/>
<text text-anchor="middle" x="1251.42" y="-189.83" font-family="Times,serif" font-size="14.00">provide</text>
</g>
<!-- /cartpole_ui -->
<g id="node3" class="node">
<title>/cartpole_ui</title>
<polygon fill="lightyellow" stroke="black" points="2187.55,-120.03 2006.55,-120.03 2006.55,-82.03 2187.55,-82.03 2187.55,-120.03"/>
<text text-anchor="middle" x="2097.05" y="-104.83" font-family="Times,serif" font-size="14.00">/cartpole_ui</text>
<text text-anchor="middle" x="2097.05" y="-89.83" font-family="Times,serif" font-size="14.00">(breadcrumb_example)</text>
</g>
<!-- /rviz2 -->
<g id="node4" class="node">
<title>/rviz2</title>
<polygon fill="lightyellow" stroke="black" points="69,-200.03 6,-200.03 6,-162.03 69,-162.03 69,-200.03"/>
<text text-anchor="middle" x="37.5" y="-184.83" font-family="Times,serif" font-size="14.00">/rviz2</text>
<text text-anchor="middle" x="37.5" y="-169.83" font-family="Times,serif" font-size="14.00">(rviz2)</text>
</g>
<!-- /hardware/joint_states&#45;&gt;control -->
<g id="edge3" class="edge">
<title>/hardware/joint_states&#45;&gt;control</title>
<path fill="none" stroke="black" d="M1630.16,-214.82C1620.29,-210.26 1610.94,-204.73 1602.55,-198.03 1587.63,-186.12 1600.53,-169.47 1584.55,-159.03 1515.16,-113.71 175.71,-136.34 93,-131.03 87.21,-130.65 81.08,-130.12 75.11,-129.52"/>
<polygon fill="black" stroke="black" points="1628.79,-218.04 1639.37,-218.74 1631.54,-211.6 1628.79,-218.04"/>
<text text-anchor="middle" x="624.29" y="-133.83" font-family="Times,serif" font-size="14.00">sub</text>
</g>
<!-- /hardware/joint_states&#45;&gt;hardware -->
<g id="edge4" class="edge">
<title>/hardware/joint_states&#45;&gt;hardware</title>
<path fill="none" stroke="black" d="M1633.95,-216.78C1617.32,-215.24 1600.57,-213.92 1584.55,-213.03 1324.76,-198.56 1011.85,-208.08 900.56,-212.31"/>
<polygon fill="black" stroke="black" points="1633.98,-220.3 1644.27,-217.77 1634.65,-213.33 1633.98,-220.3"/>
<text text-anchor="middle" x="1251.42" y="-216.83" font-family="Times,serif" font-size="14.00">sub</text>
</g>
<!-- /hardware/joint_states&#45;&gt;/cartpole_ui -->
<g id="edge2" class="edge">
<title>/hardware/joint_states&#45;&gt;/cartpole_ui</title>
<path fill="none" stroke="black" d="M1900.48,-212.74C1915.58,-208.62 1930.58,-203.75 1944.55,-198.03 1993.38,-178 2043.77,-142.14 2072.37,-120.08"/>
<polygon fill="black" stroke="black" points="1899.34,-209.42 1890.55,-215.34 1901.11,-216.19 1899.34,-209.42"/>
<text text-anchor="middle" x="1975.55" y="-190.83" font-family="Times,serif" font-size="14.00">sub</text>
</g>
<!-- /hardware/request/force&#45;&gt;hardware -->
<g id="edge6" class="edge">
<title>/hardware/request/force&#45;&gt;hardware</title>
<path fill="none" stroke="black" d="M443.1,-206.59C566.63,-208.81 737.46,-211.88 815.23,-213.28"/>
<polygon fill="black" stroke="black" points="442.86,-203.08 432.79,-206.4 442.73,-210.08 442.86,-203.08"/>
<text text-anchor="middle" x="624.29" y="-215.83" font-family="Times,serif" font-size="14.00">sub</text>
</g>
<!-- /control/enable&#45;&gt;/cartpole_ui -->
<g id="edge8" class="edge">
<title>/control/enable&#45;&gt;/cartpole_ui</title>
<path fill="none" stroke="black" stroke-dasharray="5,2" d="M799.15,-86.04C1114,-89.68 1768.04,-97.24 2006.54,-99.99"/>
<polygon fill="black" stroke="black" points="799.05,-82.54 789.01,-85.92 798.97,-89.53 799.05,-82.54"/>
<text text-anchor="middle" x="1251.42" y="-99.83" font-family="Times,serif" font-size="14.00">call</text>
</g>
<!-- /hardware/reset&#45;&gt;/cartpole_ui -->
<g id="edge10" class="edge">
<title>/hardware/reset&#45;&gt;/cartpole_ui</title>
<path fill="none" stroke="black" stroke-dasharray="5,2" d="M1884.93,-133.86C1924.59,-127.69 1968.8,-120.82 2006.48,-114.96"/>
<polygon fill="black" stroke="black" points="1884.29,-130.42 1874.95,-135.41 1885.37,-137.33 1884.29,-130.42"/>
<text text-anchor="middle" x="1975.55" y="-125.83" font-family="Times,serif" font-size="14.00">call</text>
</g>
<!-- /control/track_position&#45;&gt;/cartpole_ui -->
<g id="edge12" class="edge">
<title>/control/track_position&#45;&gt;/cartpole_ui</title>
<path fill="none" stroke="black" stroke-dasharray="1,5" d="M1565.16,-25.63C1684.54,-27.93 1821.49,-35.86 1944.55,-56.03 1978.26,-61.55 2015.01,-72.34 2043.88,-81.98"/>
<polygon fill="black" stroke="black" points="1565.2,-22.13 1555.14,-25.45 1565.07,-29.13 1565.2,-22.13"/>
<text text-anchor="middle" x="1773.55" y="-59.83" font-family="Times,serif" font-size="14.00">call</text>
</g>
</g>
</svg>
