<?xml version="1.0" encoding="UTF-8" standalone="no"?>
<!DOCTYPE svg PUBLIC "-//W3C//DTD SVG 1.1//EN"
 "http://www.w3.org/Graphics/SVG/1.1/DTD/svg11.dtd">
<!-- Generated by graphviz version 2.43.0 (0)
 -->
<!-- Title: ROS2TopLevel Pages: 1 -->
<svg width="2237pt" height="524pt"
 viewBox="0.00 0.00 2236.55 523.61" xmlns="http://www.w3.org/2000/svg" xmlns:xlink="http://www.w3.org/1999/xlink">
<g id="graph0" class="graph" transform="scale(1 1) rotate(0) translate(4 519.61)">
<title>ROS2TopLevel</title>
<polygon fill="white" stroke="transparent" points="-4,4 -4,-519.61 2232.55,-519.61 2232.55,4 -4,4"/>
<g id="clust1" class="cluster">
<title>cluster_control</title>
<polygon fill="lightgrey" stroke="black" points="955,-16.61 955,-211.61 2220.55,-211.61 2220.55,-16.61 955,-16.61"/>
<text text-anchor="middle" x="1587.77" y="-196.41" font-family="Times,serif" font-size="14.00">control</text>
</g>
<g id="clust2" class="cluster">
<title>cluster_hardware</title>
<polygon fill="lightgrey" stroke="black" points="8,-354.61 8,-469.61 1466.06,-469.61 1466.06,-354.61 8,-354.61"/>
<text text-anchor="middle" x="737.03" y="-454.41" font-family="Times,serif" font-size="14.00">hardware</text>
</g>
<!-- control -->
<g id="node1" class="node">
<title>control</title>
<polygon fill="lightblue" stroke="black" points="1840.26,-172.61 1765.26,-172.61 1765.26,-134.61 1840.26,-134.61 1840.26,-172.61"/>
<text text-anchor="middle" x="1802.76" y="-157.41" font-family="Times,serif" font-size="14.00">control</text>
<text text-anchor="middle" x="1802.76" y="-142.41" font-family="Times,serif" font-size="14.00">(1 node)</text>
</g>
<!-- /status/cartpole -->
<g id="node2" class="node">
<title>/status/cartpole</title>
<ellipse fill="lightgreen" stroke="black" cx="2078.9" cy="-66.61" rx="125.73" ry="26.74"/>
<text text-anchor="middle" x="2078.9" y="-70.41" font-family="Times,serif" font-size="14.00">/status/cartpole</text>
<text text-anchor="middle" x="2078.9" y="-55.41" font-family="Times,serif" font-size="14.00">[std_msgs/msg/String]</text>
</g>
<!-- control&#45;&gt;/status/cartpole -->
<g id="edge10" class="edge">
<title>control&#45;&gt;/status/cartpole</title>
<path fill="none" stroke="black" d="M1840.35,-140.66C1846.32,-138.6 1852.45,-136.52 1858.26,-134.61 1903.37,-119.77 1953.99,-104.04 1995.25,-91.45"/>
<polygon fill="black" stroke="black" points="1996.44,-94.75 2004.99,-88.48 1994.4,-88.05 1996.44,-94.75"/>
<text text-anchor="middle" x="1892.76" y="-138.41" font-family="Times,serif" font-size="14.00">publishes</text>
</g>
<!-- /hardware/request/force -->
<g id="node3" class="node">
<title>/hardware/request/force</title>
<ellipse fill="lightgreen" stroke="black" cx="2078.9" cy="-153.61" rx="133.79" ry="26.74"/>
<text text-anchor="middle" x="2078.9" y="-157.41" font-family="Times,serif" font-size="14.00">/hardware/request/force</text>
<text text-anchor="middle" x="2078.9" y="-142.41" font-family="Times,serif" font-size="14.00">[std_msgs/msg/Float64]</text>
</g>
<!-- control&#45;&gt;/hardware/request/force -->
<g id="edge12" class="edge">
<title>control&#45;&gt;/hardware/request/force</title>
<path fill="none" stroke="black" d="M1840.45,-153.61C1865.21,-153.61 1899.66,-153.61 1934.64,-153.61"/>
<polygon fill="black" stroke="black" points="1935.01,-157.11 1945.01,-153.61 1935.01,-150.11 1935.01,-157.11"/>
<text text-anchor="middle" x="1892.76" y="-157.41" font-family="Times,serif" font-size="14.00">publishes</text>
</g>
<!-- /cartpole_ui -->
<g id="node9" class="node">
<title>/cartpole_ui</title>
<polygon fill="lightyellow" stroke="black" points="660,-268.61 479,-268.61 479,-230.61 660,-230.61 660,-268.61"/>
<text text-anchor="middle" x="569.5" y="-253.41" font-family="Times,serif" font-size="14.00">/cartpole_ui</text>
<text text-anchor="middle" x="569.5" y="-238.41" font-family="Times,serif" font-size="14.00">(breadcrumb_example)</text>
</g>
<!-- /status/cartpole&#45;&gt;/cartpole_ui -->
<g id="edge11" class="edge">
<title>/status/cartpole&#45;&gt;/cartpole_ui</title>
<path fill="none" stroke="black" d="M1974.39,-51.48C1883.64,-39.01 1748.03,-22.34 1629.26,-15.61 1330.07,1.34 1253.74,7.97 955,-15.61 830.73,-25.42 780.41,11.46 678,-59.61 621.48,-98.84 591.06,-177.97 578.15,-220.69"/>
<polygon fill="black" stroke="black" points="574.74,-219.89 575.31,-230.47 581.46,-221.85 574.74,-219.89"/>
<text text-anchor="middle" x="1697.26" y="-28.41" font-family="Times,serif" font-size="14.00">subscribed by</text>
</g>
<!-- hardware -->
<g id="node6" class="node">
<title>hardware</title>
<polygon fill="lightblue" stroke="black" points="612,-433.61 527,-433.61 527,-395.61 612,-395.61 612,-433.61"/>
<text text-anchor="middle" x="569.5" y="-418.41" font-family="Times,serif" font-size="14.00">hardware</text>
<text text-anchor="middle" x="569.5" y="-403.41" font-family="Times,serif" font-size="14.00">(2 nodes)</text>
</g>
<!-- /hardware/request/force&#45;&gt;hardware -->
<g id="edge13" class="edge">
<title>/hardware/request/force&#45;&gt;hardware</title>
<path fill="none" stroke="black" d="M2051.11,-180.07C1985.9,-241.99 1810.91,-393.57 1629.26,-426.61 1248.27,-495.91 777.37,-443.03 622.52,-422.13"/>
<polygon fill="black" stroke="black" points="622.73,-418.63 612.35,-420.74 621.78,-425.56 622.73,-418.63"/>
<text text-anchor="middle" x="1697.26" y="-425.41" font-family="Times,serif" font-size="14.00">subscribed by</text>
</g>
<!-- /control/enable -->
<g id="node4" class="node">
<title>/control/enable</title>
<polygon fill="lightyellow" stroke="black" points="1296.13,-180.61 1123.13,-142.61 1296.13,-104.61 1469.13,-142.61 1296.13,-180.61"/>
<text text-anchor="middle" x="1296.13" y="-146.41" font-family="Times,serif" font-size="14.00">/control/enable</text>
<text text-anchor="middle" x="1296.13" y="-131.41" font-family="Times,serif" font-size="14.00">[std_srvs/srv/SetBool]</text>
</g>
<!-- /control/enable&#45;&gt;control -->
<g id="edge14" class="edge">
<title>/control/enable&#45;&gt;control</title>
<path fill="none" stroke="black" stroke-dasharray="5,2" d="M1453.69,-146.03C1557.52,-148.29 1686.77,-151.11 1754.81,-152.59"/>
<polygon fill="black" stroke="black" points="1755.12,-156.1 1765.19,-152.82 1755.27,-149.1 1755.12,-156.1"/>
<text text-anchor="middle" x="1697.26" y="-155.41" font-family="Times,serif" font-size="14.00">provided by</text>
</g>
<!-- /control/track_position -->
<g id="node5" class="node">
<title>/control/track_position</title>
<polygon fill="lightcoral" stroke="black" points="1629.39,-55.61 1462.76,-86.67 1129.5,-86.67 962.87,-55.61 1129.5,-24.56 1462.76,-24.56 1629.39,-55.61"/>
<text text-anchor="middle" x="1296.13" y="-59.41" font-family="Times,serif" font-size="14.00">/control/track_position</text>
<text text-anchor="middle" x="1296.13" y="-44.41" font-family="Times,serif" font-size="14.00">[breadcrumb_example_interfaces/action/TrackPosition]</text>
</g>
<!-- /control/track_position&#45;&gt;control -->
<g id="edge18" class="edge">
<title>/control/track_position&#45;&gt;control</title>
<path fill="none" stroke="black" stroke-dasharray="1,5" d="M1516.39,-76.71C1554.21,-81.86 1593,-88.11 1629.26,-95.61 1682.83,-106.7 1695.76,-112.17 1747.26,-130.61 1749.98,-131.59 1752.76,-132.62 1755.55,-133.7"/>
<polygon fill="black" stroke="black" points="1754.46,-137.03 1765.04,-137.46 1757.04,-130.52 1754.46,-137.03"/>
<text text-anchor="middle" x="1697.26" y="-134.41" font-family="Times,serif" font-size="14.00">served by</text>
</g>
<!-- /hardware/joint_states -->
<g id="node7" class="node">
<title>/hardware/joint_states</title>
<ellipse fill="lightgreen" stroke="black" cx="1296.13" cy="-390.61" rx="161.85" ry="26.74"/>
<text text-anchor="middle" x="1296.13" y="-394.41" font-family="Times,serif" font-size="14.00">/hardware/joint_states</text>
<text text-anchor="middle" x="1296.13" y="-379.41" font-family="Times,serif" font-size="14.00">[sensor_msgs/msg/JointState]</text>
</g>
<!-- hardware&#45;&gt;/hardware/joint_states -->
<g id="edge5" class="edge">
<title>hardware&#45;&gt;/hardware/joint_states</title>
<path fill="none" stroke="orange" stroke-width="2" d="M612.03,-399.69C631.73,-393.37 655.79,-386.75 678,-383.61 836.56,-361.21 1020.32,-367.35 1145.81,-376.34"/>
<polygon fill="orange" stroke="orange" stroke-width="2" points="1145.65,-379.84 1155.88,-377.08 1146.16,-372.86 1145.65,-379.84"/>
<text text-anchor="middle" x="811.5" y="-387.41" font-family="Times,serif" font-size="14.00">publishes (INCOMPATIBLE QOS)</text>
</g>
<!-- /hardware/joint_states&#45;&gt;control -->
<g id="edge8" class="edge">
<title>/hardware/joint_states&#45;&gt;control</title>
<path fill="none" stroke="black" d="M1445.34,-401.07C1545.32,-399.44 1672.25,-378.93 1747.26,-296.61 1776.68,-264.33 1790.79,-214.53 1797.12,-183.03"/>
<polygon fill="black" stroke="black" points="1800.58,-183.57 1798.98,-173.1 1793.7,-182.28 1800.58,-183.57"/>
<text text-anchor="middle" x="1697.26" y="-367.41" font-family="Times,serif" font-size="14.00">subscribed by</text>
</g>
<!-- /hardware/joint_states&#45;&gt;hardware -->
<g id="edge9" class="edge">
<title>/hardware/joint_states&#45;&gt;hardware</title>
<path fill="none" stroke="black" d="M1137.09,-395.85C973.75,-401.26 728.13,-409.39 622.17,-412.9"/>
<polygon fill="black" stroke="black" points="621.94,-409.41 612.06,-413.24 622.17,-416.4 621.94,-409.41"/>
<text text-anchor="middle" x="811.5" y="-413.41" font-family="Times,serif" font-size="14.00">subscribed by</text>
</g>
<!-- /hardware/joint_states&#45;&gt;/cartpole_ui -->
<g id="edge6" class="edge">
<title>/hardware/joint_states&#45;&gt;/cartpole_ui</title>
<path fill="none" stroke="black" d="M1134.6,-387.93C1076.81,-383.26 1011.87,-373.65 955,-354.61 950.08,-352.97 949.92,-350.24 945,-348.61 831.78,-311.25 790.13,-363.14 678,-322.61 648.91,-312.1 620.14,-291.91 599.7,-275.42"/>
<polygon fill="black" stroke="black" points="601.68,-272.52 591.74,-268.85 597.23,-277.92 601.68,-272.52"/>
<text text-anchor="middle" x="811.5" y="-352.41" font-family="Times,serif" font-size="14.00">subscribed by</text>
</g>
<!-- /hardware/joint_states&#45;&gt;/cartpole_ui -->
<g id="edge7" class="edge">
<title>/hardware/joint_states&#45;&gt;/cartpole_ui</title>
<path fill="none" stroke="orange" stroke-width="2" d="M1183.48,-409.99C1109.56,-416.08 1015.44,-409.95 955,-354.61 937.96,-339.02 962.3,-318.91 945,-303.61 922.72,-283.91 707.19,-290.31 678,-284.61 662.28,-281.54 645.65,-276.87 630.3,-271.93"/>
<polygon fill="orange" stroke="orange" stroke-width="2" points="631.01,-268.48 620.42,-268.66 628.81,-275.13 631.01,-268.48"/>
<text text-anchor="middle" x="811.5" y="-307.41" font-family="Times,serif" font-size="14.00">subscribed by (INCOMPATIBLE QOS)</text>
</g>
<!-- /hardware/reset -->
<g id="node8" class="node">
<title>/hardware/reset</title>
<polygon fill="lightyellow" stroke="black" points="187,-438.61 16,-400.61 187,-362.61 358,-400.61 187,-438.61"/>
<text text-anchor="middle" x="187" y="-404.41" font-family="Times,serif" font-size="14.00">/hardware/reset</text>
<text text-anchor="middle" x="187" y="-389.41" font-family="Times,serif" font-size="14.00">[std_srvs/srv/Trigger]</text>
</g>
<!-- /hardware/reset&#45;&gt;hardware -->
<g id="edge16" class="edge">
<title>/hardware/reset&#45;&gt;hardware</title>
<path fill="none" stroke="black" stroke-dasharray="5,2" d="M334.02,-405.99C398.32,-408.35 469.75,-410.98 516.68,-412.71"/>
<polygon fill="black" stroke="black" points="516.77,-416.21 526.9,-413.08 517.03,-409.22 516.77,-416.21"/>
<text text-anchor="middle" x="418.5" y="-413.41" font-family="Times,serif" font-size="14.00">provided by</text>
</g>
<!-- /cartpole_ui&#45;&gt;/control/enable -->
<g id="edge15" class="edge">
<title>/cartpole_ui&#45;&gt;/control/enable</title>
<path fill="none" stroke="black" stroke-dasharray="5,2" d="M608.36,-230.52C628.54,-221.18 654.07,-210.68 678,-204.61 826.88,-166.87 1001.44,-151.94 1126.85,-146.11"/>
<polygon fill="black" stroke="black" points="1127.09,-149.61 1136.93,-145.66 1126.78,-142.61 1127.09,-149.61"/>
<text text-anchor="middle" x="811.5" y="-208.41" font-family="Times,serif" font-size="14.00">calls</text>
</g>
<!-- /cartpole_ui&#45;&gt;/control/track_position -->
<g id="edge19" class="edge">
<title>/cartpole_ui&#45;&gt;/control/track_position</title>
<path fill="none" stroke="black" stroke-dasharray="1,5" d="M583.62,-230.39C601.73,-205.51 636.85,-162.83 678,-141.61 766.77,-95.83 871.78,-71.89 969.77,-59.98"/>
<polygon fill="black" stroke="black" points="970.32,-63.44 979.84,-58.8 969.5,-56.49 970.32,-63.44"/>
<text text-anchor="middle" x="811.5" y="-145.41" font-family="Times,serif" font-size="14.00">calls</text>
</g>
<!-- /cartpole_ui&#45;&gt;/hardware/reset -->
<g id="edge17" class="edge">
<title>/cartpole_ui&#45;&gt;/hardware/reset</title>
<path fill="none" stroke="black" stroke-dasharray="5,2" d="M520.48,-268.67C454.4,-294.89 334.97,-342.29 258.68,-372.56"/>
<polygon fill="black" stroke="black" points="257.14,-369.41 249.13,-376.35 259.72,-375.92 257.14,-369.41"/>
<text text-anchor="middle" x="418.5" y="-328.41" font-family="Times,serif" font-size="14.00">calls</text>
</g>
<!-- /cartpole/safety_controller/emergency_stop -->
<g id="node11" class="node">
<title>/cartpole/safety_controller/emergency_stop</title>
<ellipse fill="lightgreen" stroke="black" cx="1296.13" cy="-318.61" rx="229.62" ry="26.74"/>
<text text-anchor="middle" x="1296.13" y="-322.41" font-family="Times,serif" font-size="14.00">/cartpole/safety_controller/emergency_stop</text>
<text text-anchor="middle" x="1296.13" y="-307.41" font-family="Times,serif" font-size="14.00">[std_msgs/msg/Bool]</text>
</g>
<!-- /cartpole_ui&#45;&gt;/cartpole/safety_controller/emergency_stop -->
<g id="edge1" class="edge">
<title>/cartpole_ui&#45;&gt;/cartpole/safety_controller/emergency_stop</title>
<path fill="none" stroke="black" d="M660.15,-250.5C762.94,-252.12 920.47,-256.71 945,-269.61 951.45,-273.01 948.64,-279.05 955,-282.61 985.9,-299.91 1020.87,-311.1 1056.33,-318.09"/>
<polygon fill="black" stroke="black" points="1055.87,-321.57 1066.34,-319.96 1057.15,-314.69 1055.87,-321.57"/>
<text text-anchor="middle" x="811.5" y="-273.41" font-family="Times,serif" font-size="14.00">publishes</text>
</g>
<!-- /cartpole/bumper/emergency_stop -->
<g id="node12" class="node">
<title>/cartpole/bumper/emergency_stop</title>
<ellipse fill="lightgreen" stroke="black" cx="1296.13" cy="-246.61" rx="183.7" ry="26.74"/>
<text text-anchor="middle" x="1296.13" y="-250.41" font-family="Times,serif" font-size="14.00">/cartpole/bumper/emergency_stop</text>
<text text-anchor="middle" x="1296.13" y="-235.41" font-family="Times,serif" font-size="14.00">[std_msgs/msg/Bool]</text>
</g>
<!-- /cartpole_ui&#45;&gt;/cartpole/bumper/emergency_stop -->
<g id="edge3" class="edge">
<title>/cartpole_ui&#45;&gt;/cartpole/bumper/emergency_stop</title>
<path fill="none" stroke="black" d="M660.11,-233.47C666.15,-232.73 672.15,-232.1 678,-231.61 829.17,-219.04 1001.83,-224.96 1126.01,-232.76"/>
<polygon fill="black" stroke="black" points="1125.79,-236.25 1135.99,-233.4 1126.23,-229.27 1125.79,-236.25"/>
<text text-anchor="middle" x="811.5" y="-235.41" font-family="Times,serif" font-size="14.00">publishes</text>
</g>
<!-- /rviz2 -->
<g id="node10" class="node">
<title>/rviz2</title>
<polygon fill="lightyellow" stroke="black" points="218.5,-515.61 155.5,-515.61 155.5,-477.61 218.5,-477.61 218.5,-515.61"/>
<text text-anchor="middle" x="187" y="-500.41" font-family="Times,serif" font-size="14.00">/rviz2</text>
<text text-anchor="middle" x="187" y="-485.41" font-family="Times,serif" font-size="14.00">(rviz2)</text>
</g>
<!-- /cartpole/safety_controller/emergency_stop&#45;&gt;control -->
<g id="edge2" class="edge">
<title>/cartpole/safety_controller/emergency_stop&#45;&gt;control</title>
<path fill="none" stroke="black" d="M1501.88,-306.62C1544.45,-301.29 1588.68,-293.63 1629.26,-282.61 1684.75,-267.55 1702.75,-266 1747.26,-229.61 1763.44,-216.38 1777.13,-197.24 1786.74,-181.48"/>
<polygon fill="black" stroke="black" points="1789.88,-183.05 1791.92,-172.66 1783.84,-179.51 1789.88,-183.05"/>
<text text-anchor="middle" x="1697.26" y="-281.41" font-family="Times,serif" font-size="14.00">subscribed by</text>
</g>
<!-- /cartpole/bumper/emergency_stop&#45;&gt;control -->
<g id="edge4" class="edge">
<title>/cartpole/bumper/emergency_stop&#45;&gt;control</title>
<path fill="none" stroke="black" d="M1472.09,-238.59C1523.17,-234.01 1578.81,-226.84 1629.26,-215.61 1673.41,-205.78 1721.71,-187.76 1755.95,-173.66"/>
<polygon fill="black" stroke="black" points="1757.33,-176.88 1765.21,-169.8 1754.64,-170.42 1757.33,-176.88"/>
<text text-anchor="middle" x="1697.26" y="-214.41" font-family="Times,serif" font-size="14.00">subscribed by</text>
</g>
</g>
</svg>
