<?xml version="1.0" encoding="UTF-8" standalone="no"?>
<!DOCTYPE svg PUBLIC "-//W3C//DTD SVG 1.1//EN"
 "http://www.w3.org/Graphics/SVG/1.1/DTD/svg11.dtd">
<!-- Generated by graphviz version 2.43.0 (0)
 -->
<!-- Title: ROS2Graph Pages: 1 -->
<svg width="2939pt" height="325pt"
 viewBox="0.00 0.00 2938.83 324.87" xmlns="http://www.w3.org/2000/svg" xmlns:xlink="http://www.w3.org/1999/xlink">
<g id="graph0" class="graph" transform="scale(1 1) rotate(0) translate(4 320.87)">
<title>ROS2Graph</title>
<polygon fill="white" stroke="transparent" points="-4,4 -4,-320.87 2934.83,-320.87 2934.83,4 -4,4"/>
<!-- /cartpole_ui -->
<g id="node1" class="node">
<title>/cartpole_ui</title>
<polygon fill="lightblue" stroke="black" points="2930.83,-228.87 2749.83,-228.87 2749.83,-190.87 2930.83,-190.87 2930.83,-228.87"/>
<text text-anchor="middle" x="2840.33" y="-213.67" font-family="Times,serif" font-size="14.00">/cartpole_ui</text>
<text text-anchor="middle" x="2840.33" y="-198.67" font-family="Times,serif" font-size="14.00">(breadcrumb_example)</text>
</g>
<!-- /control/cartpole_controller -->
<g id="node2" class="node">
<title>/control/cartpole_controller</title>
<polygon fill="lightblue" stroke="black" points="615.85,-199.87 404.85,-199.87 404.85,-161.87 615.85,-161.87 615.85,-199.87"/>
<text text-anchor="middle" x="510.35" y="-184.67" font-family="Times,serif" font-size="14.00">/control/cartpole_controller</text>
<text text-anchor="middle" x="510.35" y="-169.67" font-family="Times,serif" font-size="14.00">(breadcrumb_example)</text>
</g>
<!-- /hardware/request/force -->
<g id="node7" class="node">
<title>/hardware/request/force</title>
<ellipse fill="lightgreen" stroke="black" cx="880.71" cy="-149.87" rx="133.79" ry="26.74"/>
<text text-anchor="middle" x="880.71" y="-153.67" font-family="Times,serif" font-size="14.00">/hardware/request/force</text>
<text text-anchor="middle" x="880.71" y="-138.67" font-family="Times,serif" font-size="14.00">[std_msgs/msg/Float64]</text>
</g>
<!-- /control/cartpole_controller&#45;&gt;/hardware/request/force -->
<g id="edge5" class="edge">
<title>/control/cartpole_controller&#45;&gt;/hardware/request/force</title>
<path fill="none" stroke="black" d="M616.05,-171.1C628.45,-169.99 640.93,-168.89 652.85,-167.87 682.83,-165.3 715.04,-162.67 745.51,-160.24"/>
<polygon fill="black" stroke="black" points="746.08,-163.71 755.77,-159.42 745.52,-156.73 746.08,-163.71"/>
<text text-anchor="middle" x="680.35" y="-171.67" font-family="Times,serif" font-size="14.00">pub</text>
</g>
<!-- /control/enable -->
<g id="node9" class="node">
<title>/control/enable</title>
<polygon fill="lightyellow" stroke="black" points="1226.57,-234.87 1053.57,-196.87 1226.57,-158.87 1399.57,-196.87 1226.57,-234.87"/>
<text text-anchor="middle" x="1226.57" y="-200.67" font-family="Times,serif" font-size="14.00">/control/enable</text>
<text text-anchor="middle" x="1226.57" y="-185.67" font-family="Times,serif" font-size="14.00">[std_srvs/srv/SetBool]</text>
</g>
<!-- /control/cartpole_controller&#45;&gt;/control/enable -->
<g id="edge8" class="edge">
<title>/control/cartpole_controller&#45;&gt;/control/enable</title>
<path fill="none" stroke="black" stroke-dasharray="5,2" d="M616.09,-183.34C651,-184.15 690.1,-185.06 725.85,-185.87 836.77,-188.38 961.54,-191.13 1058.65,-193.25"/>
<polygon fill="black" stroke="black" points="1058.79,-196.75 1068.86,-193.47 1058.94,-189.76 1058.79,-196.75"/>
<text text-anchor="middle" x="680.35" y="-188.67" font-family="Times,serif" font-size="14.00">provide</text>
</g>
<!-- /control/track_position -->
<g id="node11" class="node">
<title>/control/track_position</title>
<polygon fill="lightcoral" stroke="black" points="2328.96,-89.87 2162.33,-120.92 1829.07,-120.92 1662.44,-89.87 1829.07,-58.82 2162.33,-58.82 2328.96,-89.87"/>
<text text-anchor="middle" x="1995.7" y="-93.67" font-family="Times,serif" font-size="14.00">/control/track_position</text>
<text text-anchor="middle" x="1995.7" y="-78.67" font-family="Times,serif" font-size="14.00">[breadcrumb_example_interfaces/action/TrackPosition]</text>
</g>
<!-- /control/cartpole_controller&#45;&gt;/control/track_position -->
<g id="edge12" class="edge">
<title>/control/cartpole_controller&#45;&gt;/control/track_position</title>
<path fill="none" stroke="black" stroke-dasharray="1,5" d="M548.89,-161.77C590.79,-141.59 661.21,-111.04 725.85,-98.87 906.02,-64.95 1388.27,-71.33 1703.64,-79.95"/>
<polygon fill="black" stroke="black" points="1703.76,-83.45 1713.85,-80.23 1703.95,-76.46 1703.76,-83.45"/>
<text text-anchor="middle" x="880.71" y="-102.67" font-family="Times,serif" font-size="14.00">serve</text>
</g>
<!-- /hardware/robot_state_publisher -->
<g id="node3" class="node">
<title>/hardware/robot_state_publisher</title>
<polygon fill="lightblue" stroke="black" points="634.85,-101.87 385.85,-101.87 385.85,-63.87 634.85,-63.87 634.85,-101.87"/>
<text text-anchor="middle" x="510.35" y="-86.67" font-family="Times,serif" font-size="14.00">/hardware/robot_state_publisher</text>
<text text-anchor="middle" x="510.35" y="-71.67" font-family="Times,serif" font-size="14.00">(robot_state_publisher)</text>
</g>
<!-- /hardware/robot_description -->
<g id="node8" class="node">
<title>/hardware/robot_description</title>
<ellipse fill="lightgreen" stroke="black" cx="880.71" cy="-26.87" rx="154.71" ry="26.74"/>
<text text-anchor="middle" x="880.71" y="-30.67" font-family="Times,serif" font-size="14.00">/hardware/robot_description</text>
<text text-anchor="middle" x="880.71" y="-15.67" font-family="Times,serif" font-size="14.00">[std_msgs/msg/String]</text>
</g>
<!-- /hardware/robot_state_publisher&#45;&gt;/hardware/robot_description -->
<g id="edge7" class="edge">
<title>/hardware/robot_state_publisher&#45;&gt;/hardware/robot_description</title>
<path fill="none" stroke="black" d="M633.3,-63.87C639.91,-62.85 646.47,-61.85 652.85,-60.87 685.14,-55.94 720.03,-50.68 752.53,-45.81"/>
<polygon fill="black" stroke="black" points="753.16,-49.25 762.53,-44.31 752.13,-42.33 753.16,-49.25"/>
<text text-anchor="middle" x="680.35" y="-64.67" font-family="Times,serif" font-size="14.00">pub</text>
</g>
<!-- /hardware/cartpole_simulator -->
<g id="node4" class="node">
<title>/hardware/cartpole_simulator</title>
<polygon fill="lightblue" stroke="black" points="1644.57,-179.87 1417.57,-179.87 1417.57,-141.87 1644.57,-141.87 1644.57,-179.87"/>
<text text-anchor="middle" x="1531.07" y="-164.67" font-family="Times,serif" font-size="14.00">/hardware/cartpole_simulator</text>
<text text-anchor="middle" x="1531.07" y="-149.67" font-family="Times,serif" font-size="14.00">(breadcrumb_example)</text>
</g>
<!-- /hardware/joint_states -->
<g id="node6" class="node">
<title>/hardware/joint_states</title>
<ellipse fill="lightgreen" stroke="black" cx="161.93" cy="-233.87" rx="161.85" ry="26.74"/>
<text text-anchor="middle" x="161.93" y="-237.67" font-family="Times,serif" font-size="14.00">/hardware/joint_states</text>
<text text-anchor="middle" x="161.93" y="-222.67" font-family="Times,serif" font-size="14.00">[sensor_msgs/msg/JointState]</text>
</g>
<!-- /hardware/cartpole_simulator&#45;&gt;/hardware/joint_states -->
<g id="edge1" class="edge">
<title>/hardware/cartpole_simulator&#45;&gt;/hardware/joint_states</title>
<path fill="none" stroke="black" d="M1505.82,-180.05C1480.84,-198.49 1439.96,-225.09 1399.57,-235.87 1299.37,-262.61 645.98,-247.85 331.51,-239"/>
<polygon fill="black" stroke="black" points="331.49,-235.5 321.39,-238.71 331.29,-242.49 331.49,-235.5"/>
<text text-anchor="middle" x="680.35" y="-250.67" font-family="Times,serif" font-size="14.00">pub</text>
</g>
<!-- /hardware/reset -->
<g id="node10" class="node">
<title>/hardware/reset</title>
<polygon fill="lightyellow" stroke="black" points="2517.83,-198.87 2346.83,-160.87 2517.83,-122.87 2688.83,-160.87 2517.83,-198.87"/>
<text text-anchor="middle" x="2517.83" y="-164.67" font-family="Times,serif" font-size="14.00">/hardware/reset</text>
<text text-anchor="middle" x="2517.83" y="-149.67" font-family="Times,serif" font-size="14.00">[std_srvs/srv/Trigger]</text>
</g>
<!-- /hardware/cartpole_simulator&#45;&gt;/hardware/reset -->
<g id="edge10" class="edge">
<title>/hardware/cartpole_simulator&#45;&gt;/hardware/reset</title>
<path fill="none" stroke="black" stroke-dasharray="5,2" d="M1645.03,-160.87C1814.2,-160.87 2134.98,-160.87 2336.7,-160.87"/>
<polygon fill="black" stroke="black" points="2336.82,-164.37 2346.82,-160.87 2336.82,-157.37 2336.82,-164.37"/>
<text text-anchor="middle" x="1995.7" y="-164.67" font-family="Times,serif" font-size="14.00">provide</text>
</g>
<!-- /rviz2 -->
<g id="node5" class="node">
<title>/rviz2</title>
<polygon fill="lightblue" stroke="black" points="193.43,-316.87 130.43,-316.87 130.43,-278.87 193.43,-278.87 193.43,-316.87"/>
<text text-anchor="middle" x="161.93" y="-301.67" font-family="Times,serif" font-size="14.00">/rviz2</text>
<text text-anchor="middle" x="161.93" y="-286.67" font-family="Times,serif" font-size="14.00">(rviz2)</text>
</g>
<!-- /hardware/joint_states&#45;&gt;/cartpole_ui -->
<g id="edge2" class="edge">
<title>/hardware/joint_states&#45;&gt;/cartpole_ui</title>
<path fill="none" stroke="black" d="M264.19,-258.1C332.92,-272.46 426.1,-287.87 509.35,-287.87 509.35,-287.87 509.35,-287.87 2518.83,-287.87 2618.19,-287.87 2730.08,-252.04 2791.88,-228.95"/>
<polygon fill="black" stroke="black" points="264.73,-254.64 254.23,-255.99 263.28,-261.49 264.73,-254.64"/>
<text text-anchor="middle" x="1226.57" y="-291.67" font-family="Times,serif" font-size="14.00">sub</text>
</g>
<!-- /hardware/joint_states&#45;&gt;/control/cartpole_controller -->
<g id="edge3" class="edge">
<title>/hardware/joint_states&#45;&gt;/control/cartpole_controller</title>
<path fill="none" stroke="black" d="M291.58,-214.19C328.85,-208.49 369.07,-202.33 404.68,-196.88"/>
<polygon fill="black" stroke="black" points="291.02,-210.73 281.66,-215.7 292.08,-217.65 291.02,-210.73"/>
<text text-anchor="middle" x="354.85" y="-208.67" font-family="Times,serif" font-size="14.00">sub</text>
</g>
<!-- /hardware/joint_states&#45;&gt;/hardware/robot_state_publisher -->
<g id="edge4" class="edge">
<title>/hardware/joint_states&#45;&gt;/hardware/robot_state_publisher</title>
<path fill="none" stroke="black" d="M230.08,-204.6C299.63,-174.28 406.28,-127.8 465.64,-101.93"/>
<polygon fill="black" stroke="black" points="228.29,-201.56 220.52,-208.77 231.09,-207.98 228.29,-201.56"/>
<text text-anchor="middle" x="354.85" y="-156.67" font-family="Times,serif" font-size="14.00">sub</text>
</g>
<!-- /hardware/request/force&#45;&gt;/hardware/cartpole_simulator -->
<g id="edge6" class="edge">
<title>/hardware/request/force&#45;&gt;/hardware/cartpole_simulator</title>
<path fill="none" stroke="black" d="M1010.54,-137.07C1115.51,-128.82 1267.44,-121.84 1399.57,-134.87 1415.09,-136.4 1431.49,-138.93 1447.24,-141.83"/>
<polygon fill="black" stroke="black" points="1010.22,-133.59 1000.53,-137.87 1010.78,-140.56 1010.22,-133.59"/>
<text text-anchor="middle" x="1226.57" y="-138.67" font-family="Times,serif" font-size="14.00">sub</text>
</g>
<!-- /control/enable&#45;&gt;/cartpole_ui -->
<g id="edge9" class="edge">
<title>/control/enable&#45;&gt;/cartpole_ui</title>
<path fill="none" stroke="black" stroke-dasharray="5,2" d="M1402.12,-198.67C1622.32,-200.91 2012.64,-204.84 2346.83,-207.87 2517.94,-209.42 2560.71,-211.67 2731.83,-210.87 2737.61,-210.84 2743.58,-210.81 2749.58,-210.77"/>
<polygon fill="black" stroke="black" points="1402.12,-195.17 1392.09,-198.56 1402.05,-202.17 1402.12,-195.17"/>
<text text-anchor="middle" x="1995.7" y="-210.67" font-family="Times,serif" font-size="14.00">call</text>
</g>
<!-- /hardware/reset&#45;&gt;/cartpole_ui -->
<g id="edge11" class="edge">
<title>/hardware/reset&#45;&gt;/cartpole_ui</title>
<path fill="none" stroke="black" stroke-dasharray="5,2" d="M2630.17,-177.89C2669.25,-183.87 2712.63,-190.5 2749.71,-196.17"/>
<polygon fill="black" stroke="black" points="2630.21,-174.36 2619.8,-176.31 2629.15,-181.28 2630.21,-174.36"/>
<text text-anchor="middle" x="2719.33" y="-195.67" font-family="Times,serif" font-size="14.00">call</text>
</g>
<!-- /control/track_position&#45;&gt;/cartpole_ui -->
<g id="edge13" class="edge">
<title>/control/track_position&#45;&gt;/cartpole_ui</title>
<path fill="none" stroke="black" stroke-dasharray="1,5" d="M2190.81,-61.21C2332.57,-47.67 2527.39,-44.61 2688.83,-98.87 2743.92,-117.38 2795.55,-164.28 2821.62,-190.81"/>
<polygon fill="black" stroke="black" points="2190.31,-57.75 2180.7,-62.21 2190.99,-64.71 2190.31,-57.75"/>
<text text-anchor="middle" x="2517.83" y="-102.67" font-family="Times,serif" font-size="14.00">call</text>
</g>
</g>
</svg>
