<?xml version="1.0" encoding="UTF-8" standalone="no"?>
<!DOCTYPE svg PUBLIC "-//W3C//DTD SVG 1.1//EN"
 "http://www.w3.org/Graphics/SVG/1.1/DTD/svg11.dtd">
<!-- Generated by graphviz version 2.43.0 (0)
 -->
<!-- Title: ROS2TopLevel Pages: 1 -->
<svg width="1398pt" height="524pt"
 viewBox="0.00 0.00 1398.26 524.00" xmlns="http://www.w3.org/2000/svg" xmlns:xlink="http://www.w3.org/1999/xlink">
<g id="graph0" class="graph" transform="scale(1 1) rotate(0) translate(4 520)">
<title>ROS2TopLevel</title>
<polygon fill="white" stroke="transparent" points="-4,4 -4,-520 1394.26,-520 1394.26,4 -4,4"/>
<g id="clust1" class="cluster">
<title>cluster_control</title>
<polygon fill="lightgrey" stroke="black" points="13,-203 13,-470 997.26,-470 997.26,-203 13,-203"/>
<text text-anchor="middle" x="505.13" y="-454.8" font-family="Times,serif" font-size="14.00">control</text>
</g>
<g id="clust2" class="cluster">
<title>cluster_hardware</title>
<polygon fill="lightgrey" stroke="black" points="8,-8 8,-195 835.13,-195 835.13,-8 8,-8"/>
<text text-anchor="middle" x="421.57" y="-179.8" font-family="Times,serif" font-size="14.00">hardware</text>
</g>
<!-- control -->
<g id="node1" class="node">
<title>control</title>
<polygon fill="lightblue" stroke="black" points="96,-311 21,-311 21,-273 96,-273 96,-311"/>
<text text-anchor="middle" x="58.5" y="-295.8" font-family="Times,serif" font-size="14.00">control</text>
<text text-anchor="middle" x="58.5" y="-280.8" font-family="Times,serif" font-size="14.00">(1 node)</text>
</g>
<!-- /hardware/request/force -->
<g id="node2" class="node">
<title>/hardware/request/force</title>
<ellipse fill="lightgreen" stroke="black" cx="656.13" cy="-238" rx="133.79" ry="26.74"/>
<text text-anchor="middle" x="656.13" y="-241.8" font-family="Times,serif" font-size="14.00">/hardware/request/force</text>
<text text-anchor="middle" x="656.13" y="-226.8" font-family="Times,serif" font-size="14.00">[std_msgs/msg/Float64]</text>
</g>
<!-- control&#45;&gt;/hardware/request/force -->
<g id="edge5" class="edge">
<title>control&#45;&gt;/hardware/request/force</title>
<path fill="none" stroke="black" d="M96.04,-280.26C103.56,-278.21 111.49,-276.32 119,-275 251.11,-251.83 403.92,-243.02 512.51,-239.74"/>
<polygon fill="black" stroke="black" points="512.66,-243.24 522.55,-239.45 512.46,-236.24 512.66,-243.24"/>
<text text-anchor="middle" x="212" y="-278.8" font-family="Times,serif" font-size="14.00">pub</text>
</g>
<!-- /control/enable -->
<g id="node3" class="node">
<title>/control/enable</title>
<polygon fill="lightyellow" stroke="black" points="656.13,-439 483.13,-401 656.13,-363 829.13,-401 656.13,-439"/>
<text text-anchor="middle" x="656.13" y="-404.8" font-family="Times,serif" font-size="14.00">/control/enable</text>
<text text-anchor="middle" x="656.13" y="-389.8" font-family="Times,serif" font-size="14.00">[std_srvs/srv/SetBool]</text>
</g>
<!-- control&#45;&gt;/control/enable -->
<g id="edge7" class="edge">
<title>control&#45;&gt;/control/enable</title>
<path fill="none" stroke="black" stroke-dasharray="5,2" d="M96.01,-311.09C103.47,-314.45 111.37,-317.62 119,-320 248.84,-360.52 402.9,-381.1 512.48,-391.35"/>
<polygon fill="black" stroke="black" points="512.34,-394.85 522.61,-392.28 512.98,-387.88 512.34,-394.85"/>
<text text-anchor="middle" x="212" y="-364.8" font-family="Times,serif" font-size="14.00">provide</text>
</g>
<!-- /control/track_position -->
<g id="node4" class="node">
<title>/control/track_position</title>
<polygon fill="lightcoral" stroke="black" points="989.39,-314 822.76,-345.05 489.5,-345.05 322.87,-314 489.5,-282.95 822.76,-282.95 989.39,-314"/>
<text text-anchor="middle" x="656.13" y="-317.8" font-family="Times,serif" font-size="14.00">/control/track_position</text>
<text text-anchor="middle" x="656.13" y="-302.8" font-family="Times,serif" font-size="14.00">[breadcrumb_example_interfaces/action/TrackPosition]</text>
</g>
<!-- control&#45;&gt;/control/track_position -->
<g id="edge11" class="edge">
<title>control&#45;&gt;/control/track_position</title>
<path fill="none" stroke="black" stroke-dasharray="1,5" d="M96.31,-293.36C151.4,-295.39 260.33,-299.42 367.5,-303.38"/>
<polygon fill="black" stroke="black" points="367.41,-306.88 377.53,-303.75 367.67,-299.88 367.41,-306.88"/>
<text text-anchor="middle" x="212" y="-304.8" font-family="Times,serif" font-size="14.00">serve</text>
</g>
<!-- hardware -->
<g id="node5" class="node">
<title>hardware</title>
<polygon fill="lightblue" stroke="black" points="101,-138 16,-138 16,-100 101,-100 101,-138"/>
<text text-anchor="middle" x="58.5" y="-122.8" font-family="Times,serif" font-size="14.00">hardware</text>
<text text-anchor="middle" x="58.5" y="-107.8" font-family="Times,serif" font-size="14.00">(2 nodes)</text>
</g>
<!-- /hardware/request/force&#45;&gt;hardware -->
<g id="edge6" class="edge">
<title>/hardware/request/force&#45;&gt;hardware</title>
<path fill="none" stroke="black" d="M512.16,-237C452.07,-232.6 382.46,-222.14 323,-199 313.8,-195.42 314.02,-190.01 305,-186 227.75,-151.62 199.29,-172.51 119,-146 112.21,-143.76 105.16,-140.99 98.39,-138.08"/>
<polygon fill="black" stroke="black" points="512.28,-240.52 522.49,-237.71 512.75,-233.54 512.28,-240.52"/>
<text text-anchor="middle" x="212" y="-189.8" font-family="Times,serif" font-size="14.00">sub</text>
</g>
<!-- /cartpole_ui -->
<g id="node8" class="node">
<title>/cartpole_ui</title>
<polygon fill="lightyellow" stroke="black" points="1390.26,-239 1209.26,-239 1209.26,-201 1390.26,-201 1390.26,-239"/>
<text text-anchor="middle" x="1299.76" y="-223.8" font-family="Times,serif" font-size="14.00">/cartpole_ui</text>
<text text-anchor="middle" x="1299.76" y="-208.8" font-family="Times,serif" font-size="14.00">(breadcrumb_example)</text>
</g>
<!-- /control/enable&#45;&gt;/cartpole_ui -->
<g id="edge8" class="edge">
<title>/control/enable&#45;&gt;/cartpole_ui</title>
<path fill="none" stroke="black" stroke-dasharray="5,2" d="M796.78,-390.58C908.15,-377.97 1065.72,-350.32 1191.26,-290 1220.97,-275.72 1252.26,-254.56 1273.37,-239.24"/>
<polygon fill="black" stroke="black" points="796.38,-387.1 786.82,-391.68 797.15,-394.06 796.38,-387.1"/>
<text text-anchor="middle" x="1099.26" y="-356.8" font-family="Times,serif" font-size="14.00">call</text>
</g>
<!-- /control/track_position&#45;&gt;/cartpole_ui -->
<g id="edge12" class="edge">
<title>/control/track_position&#45;&gt;/cartpole_ui</title>
<path fill="none" stroke="black" stroke-dasharray="1,5" d="M877.94,-289.99C917.72,-285.11 958.77,-279.71 997.26,-274 1068.67,-263.42 1149.12,-248.87 1208.95,-237.55"/>
<polygon fill="black" stroke="black" points="877.36,-286.54 867.86,-291.22 878.21,-293.48 877.36,-286.54"/>
<text text-anchor="middle" x="1099.26" y="-274.8" font-family="Times,serif" font-size="14.00">call</text>
</g>
<!-- /hardware/joint_states -->
<g id="node6" class="node">
<title>/hardware/joint_states</title>
<ellipse fill="lightgreen" stroke="black" cx="656.13" cy="-137" rx="161.85" ry="26.74"/>
<text text-anchor="middle" x="656.13" y="-140.8" font-family="Times,serif" font-size="14.00">/hardware/joint_states</text>
<text text-anchor="middle" x="656.13" y="-125.8" font-family="Times,serif" font-size="14.00">[sensor_msgs/msg/JointState]</text>
</g>
<!-- hardware&#45;&gt;/hardware/joint_states -->
<g id="edge1" class="edge">
<title>hardware&#45;&gt;/hardware/joint_states</title>
<path fill="none" stroke="orange" stroke-width="2" d="M101.08,-104.74C107.03,-103.2 113.13,-101.87 119,-101 200.78,-88.9 222.44,-96.77 305,-101 375.09,-104.59 452.77,-112.21 517.11,-119.51"/>
<polygon fill="orange" stroke="orange" stroke-width="2" points="516.99,-123.02 527.32,-120.68 517.79,-116.07 516.99,-123.02"/>
<text text-anchor="middle" x="212" y="-104.8" font-family="Times,serif" font-size="14.00">pub INCOMPATIBLE_QOS</text>
</g>
<!-- /hardware/reset -->
<g id="node7" class="node">
<title>/hardware/reset</title>
<polygon fill="lightyellow" stroke="black" points="656.13,-92 485.13,-54 656.13,-16 827.13,-54 656.13,-92"/>
<text text-anchor="middle" x="656.13" y="-57.8" font-family="Times,serif" font-size="14.00">/hardware/reset</text>
<text text-anchor="middle" x="656.13" y="-42.8" font-family="Times,serif" font-size="14.00">[std_srvs/srv/Trigger]</text>
</g>
<!-- hardware&#45;&gt;/hardware/reset -->
<g id="edge9" class="edge">
<title>hardware&#45;&gt;/hardware/reset</title>
<path fill="none" stroke="black" stroke-dasharray="5,2" d="M79.53,-99.95C90.34,-90.93 104.43,-81.05 119,-76 256.01,-28.55 424.59,-30.67 535.71,-39.62"/>
<polygon fill="black" stroke="black" points="535.69,-43.13 545.95,-40.47 536.28,-36.15 535.69,-43.13"/>
<text text-anchor="middle" x="212" y="-79.8" font-family="Times,serif" font-size="14.00">provide</text>
</g>
<!-- /hardware/joint_states&#45;&gt;control -->
<g id="edge3" class="edge">
<title>/hardware/joint_states&#45;&gt;control</title>
<path fill="none" stroke="black" d="M537.65,-158.79C469.7,-171.31 382.56,-187.24 305,-201 222.41,-215.65 193.57,-194.58 119,-233 100.64,-242.46 84.34,-259.58 73.46,-272.95"/>
<polygon fill="black" stroke="black" points="538.33,-162.22 547.53,-156.97 537.06,-155.34 538.33,-162.22"/>
<text text-anchor="middle" x="212" y="-236.8" font-family="Times,serif" font-size="14.00">sub</text>
</g>
<!-- /hardware/joint_states&#45;&gt;hardware -->
<g id="edge4" class="edge">
<title>/hardware/joint_states&#45;&gt;hardware</title>
<path fill="none" stroke="black" d="M486.47,-131.9C354.35,-127.91 180.16,-122.65 101.38,-120.27"/>
<polygon fill="black" stroke="black" points="486.61,-135.41 496.71,-132.21 486.82,-128.41 486.61,-135.41"/>
<text text-anchor="middle" x="212" y="-130.8" font-family="Times,serif" font-size="14.00">sub</text>
</g>
<!-- /hardware/joint_states&#45;&gt;/cartpole_ui -->
<g id="edge2" class="edge">
<title>/hardware/joint_states&#45;&gt;/cartpole_ui</title>
<path fill="none" stroke="orange" stroke-width="2" d="M794.34,-154.75C919.67,-170.96 1101.37,-194.47 1209.05,-208.39"/>
<polygon fill="orange" stroke="orange" stroke-width="2" points="794.65,-151.26 784.28,-153.45 793.75,-158.2 794.65,-151.26"/>
<text text-anchor="middle" x="1099.26" y="-209.8" font-family="Times,serif" font-size="14.00">sub INCOMPATIBLE_QOS</text>
</g>
<!-- /hardware/reset&#45;&gt;/cartpole_ui -->
<g id="edge10" class="edge">
<title>/hardware/reset&#45;&gt;/cartpole_ui</title>
<path fill="none" stroke="black" stroke-dasharray="5,2" d="M786.65,-66.45C850.54,-73.97 928.46,-85.21 997.26,-101 1085.62,-121.28 1107.66,-128.94 1191.26,-164 1216.88,-174.74 1244.66,-189.3 1265.56,-200.87"/>
<polygon fill="black" stroke="black" points="786.85,-62.95 776.52,-65.27 786.05,-69.9 786.85,-62.95"/>
<text text-anchor="middle" x="1099.26" y="-167.8" font-family="Times,serif" font-size="14.00">call</text>
</g>
<!-- /rviz2 -->
<g id="node9" class="node">
<title>/rviz2</title>
<polygon fill="lightyellow" stroke="black" points="90,-516 27,-516 27,-478 90,-478 90,-516"/>
<text text-anchor="middle" x="58.5" y="-500.8" font-family="Times,serif" font-size="14.00">/rviz2</text>
<text text-anchor="middle" x="58.5" y="-485.8" font-family="Times,serif" font-size="14.00">(rviz2)</text>
</g>
</g>
</svg>
