<?xml version="1.0" encoding="UTF-8" standalone="no"?>
<!DOCTYPE svg PUBLIC "-//W3C//DTD SVG 1.1//EN"
 "http://www.w3.org/Graphics/SVG/1.1/DTD/svg11.dtd">
<!-- Generated by graphviz version 2.43.0 (0)
 -->
<!-- Title: ROS2Group_control Pages: 1 -->
<svg width="1362pt" height="259pt"
 viewBox="0.00 0.00 1362.12 258.90" xmlns="http://www.w3.org/2000/svg" xmlns:xlink="http://www.w3.org/1999/xlink">
<g id="graph0" class="graph" transform="scale(1 1) rotate(0) translate(4 254.9)">
<title>ROS2Group_control</title>
<polygon fill="white" stroke="transparent" points="-4,4 -4,-254.9 1358.12,-254.9 1358.12,4 -4,4"/>
<text text-anchor="middle" x="677.06" y="-235.7" font-family="Times,serif" font-size="14.00">Group: control</text>
<g id="clust1" class="cluster">
<title>cluster_control</title>
<polygon fill="lightgrey" stroke="black" points="377.85,-91.03 377.85,-168.03 604.85,-168.03 604.85,-91.03 377.85,-91.03"/>
<text text-anchor="middle" x="491.35" y="-152.83" font-family="Times,serif" font-size="14.00">control</text>
</g>
<!-- /control/cartpole_controller -->
<g id="node1" class="node">
<title>/control/cartpole_controller</title>
<polygon fill="lightblue" stroke="black" points="596.85,-137.03 385.85,-137.03 385.85,-99.03 596.85,-99.03 596.85,-137.03"/>
<text text-anchor="middle" x="491.35" y="-121.83" font-family="Times,serif" font-size="14.00">/control/cartpole_controller</text>
<text text-anchor="middle" x="491.35" y="-106.83" font-family="Times,serif" font-size="14.00">(breadcrumb_example)</text>
</g>
<!-- /hardware/request/force -->
<g id="node3" class="node">
<title>/hardware/request/force</title>
<ellipse fill="lightgreen" stroke="black" cx="1020.99" cy="-201.03" rx="133.79" ry="26.74"/>
<text text-anchor="middle" x="1020.99" y="-204.83" font-family="Times,serif" font-size="14.00">/hardware/request/force</text>
<text text-anchor="middle" x="1020.99" y="-189.83" font-family="Times,serif" font-size="14.00">[std_msgs/msg/Float64]</text>
</g>
<!-- /control/cartpole_controller&#45;&gt;/hardware/request/force -->
<g id="edge2" class="edge">
<title>/control/cartpole_controller&#45;&gt;/hardware/request/force</title>
<path fill="none" stroke="black" d="M562.03,-137.07C599.15,-146.63 645.72,-157.71 687.85,-165.03 752.68,-176.28 825.26,-184.63 886.01,-190.44"/>
<polygon fill="black" stroke="black" points="885.75,-193.93 896.04,-191.39 886.41,-186.96 885.75,-193.93"/>
<text text-anchor="middle" x="642.35" y="-164.83" font-family="Times,serif" font-size="14.00">pub</text>
</g>
<!-- /control/enable -->
<g id="node4" class="node">
<title>/control/enable</title>
<polygon fill="lightyellow" stroke="black" points="1020.99,-156.03 847.99,-118.03 1020.99,-80.03 1193.99,-118.03 1020.99,-156.03"/>
<text text-anchor="middle" x="1020.99" y="-121.83" font-family="Times,serif" font-size="14.00">/control/enable</text>
<text text-anchor="middle" x="1020.99" y="-106.83" font-family="Times,serif" font-size="14.00">[std_srvs/srv/SetBool]</text>
</g>
<!-- /control/cartpole_controller&#45;&gt;/control/enable -->
<g id="edge3" class="edge">
<title>/control/cartpole_controller&#45;&gt;/control/enable</title>
<path fill="none" stroke="black" stroke-dasharray="5,2" d="M596.91,-118.03C665.55,-118.03 757.18,-118.03 837.61,-118.03"/>
<polygon fill="black" stroke="black" points="837.87,-121.53 847.87,-118.03 837.87,-114.53 837.87,-121.53"/>
<text text-anchor="middle" x="642.35" y="-121.83" font-family="Times,serif" font-size="14.00">provide</text>
</g>
<!-- /control/track_position -->
<g id="node5" class="node">
<title>/control/track_position</title>
<polygon fill="lightcoral" stroke="black" points="1354.25,-31.03 1187.62,-62.08 854.35,-62.08 687.72,-31.03 854.35,0.03 1187.62,0.03 1354.25,-31.03"/>
<text text-anchor="middle" x="1020.99" y="-34.83" font-family="Times,serif" font-size="14.00">/control/track_position</text>
<text text-anchor="middle" x="1020.99" y="-19.83" font-family="Times,serif" font-size="14.00">[breadcrumb_example_interfaces/action/TrackPosition]</text>
</g>
<!-- /control/cartpole_controller&#45;&gt;/control/track_position -->
<g id="edge4" class="edge">
<title>/control/cartpole_controller&#45;&gt;/control/track_position</title>
<path fill="none" stroke="black" stroke-dasharray="1,5" d="M562.98,-98.95C599.95,-89.5 646.11,-78.53 687.85,-71.03 722.6,-64.78 759.57,-59.24 795.75,-54.43"/>
<polygon fill="black" stroke="black" points="796.47,-57.87 805.93,-53.1 795.56,-50.93 796.47,-57.87"/>
<text text-anchor="middle" x="642.35" y="-89.83" font-family="Times,serif" font-size="14.00">serve</text>
</g>
<!-- /hardware/joint_states -->
<g id="node2" class="node">
<title>/hardware/joint_states</title>
<ellipse fill="lightgreen" stroke="black" cx="161.93" cy="-118.03" rx="161.85" ry="26.74"/>
<text text-anchor="middle" x="161.93" y="-121.83" font-family="Times,serif" font-size="14.00">/hardware/joint_states</text>
<text text-anchor="middle" x="161.93" y="-106.83" font-family="Times,serif" font-size="14.00">[sensor_msgs/msg/JointState]</text>
</g>
<!-- /hardware/joint_states&#45;&gt;/control/cartpole_controller -->
<g id="edge1" class="edge">
<title>/hardware/joint_states&#45;&gt;/control/cartpole_controller</title>
<path fill="none" stroke="black" d="M324.24,-118.03C341.49,-118.03 358.77,-118.03 375.32,-118.03"/>
<polygon fill="black" stroke="black" points="375.52,-121.53 385.52,-118.03 375.52,-114.53 375.52,-121.53"/>
<text text-anchor="middle" x="354.85" y="-121.83" font-family="Times,serif" font-size="14.00">sub</text>
</g>
</g>
</svg>
