<?xml version="1.0" encoding="UTF-8" standalone="no"?>
<!DOCTYPE svg PUBLIC "-//W3C//DTD SVG 1.1//EN"
 "http://www.w3.org/Graphics/SVG/1.1/DTD/svg11.dtd">
<!-- Generated by graphviz version 2.43.0 (0)
 -->
<!-- Title: ROS2Group_hardware Pages: 1 -->
<svg width="1150pt" height="328pt"
 viewBox="0.00 0.00 1150.29 328.00" xmlns="http://www.w3.org/2000/svg" xmlns:xlink="http://www.w3.org/1999/xlink">
<g id="graph0" class="graph" transform="scale(1 1) rotate(0) translate(4 324)">
<title>ROS2Group_hardware</title>
<polygon fill="white" stroke="transparent" points="-4,4 -4,-324 1146.29,-324 1146.29,4 -4,4"/>
<text text-anchor="middle" x="571.14" y="-304.8" font-family="Times,serif" font-size="14.00">Group: hardware</text>
<g id="clust1" class="cluster">
<title>cluster_hardware</title>
<polygon fill="lightgrey" stroke="black" points="321.29,-156 321.29,-289 1134.14,-289 1134.14,-156 321.29,-156"/>
<text text-anchor="middle" x="727.71" y="-273.8" font-family="Times,serif" font-size="14.00">hardware</text>
</g>
<!-- /hardware/robot_state_publisher -->
<g id="node1" class="node">
<title>/hardware/robot_state_publisher</title>
<polygon fill="lightblue" stroke="black" points="578.29,-258 329.29,-258 329.29,-220 578.29,-220 578.29,-258"/>
<text text-anchor="middle" x="453.79" y="-242.8" font-family="Times,serif" font-size="14.00">/hardware/robot_state_publisher</text>
<text text-anchor="middle" x="453.79" y="-227.8" font-family="Times,serif" font-size="14.00">(robot_state_publisher)</text>
</g>
<!-- /hardware/robot_description -->
<g id="node3" class="node">
<title>/hardware/robot_description</title>
<ellipse fill="lightgreen" stroke="black" cx="971.29" cy="-231" rx="154.71" ry="26.74"/>
<text text-anchor="middle" x="971.29" y="-234.8" font-family="Times,serif" font-size="14.00">/hardware/robot_description</text>
<text text-anchor="middle" x="971.29" y="-219.8" font-family="Times,serif" font-size="14.00">[std_msgs/msg/String]</text>
</g>
<!-- /hardware/robot_state_publisher&#45;&gt;/hardware/robot_description -->
<g id="edge1" class="edge">
<title>/hardware/robot_state_publisher&#45;&gt;/hardware/robot_description</title>
<path fill="none" stroke="black" d="M578.59,-237.08C646.87,-236.02 732.52,-234.69 806.3,-233.54"/>
<polygon fill="black" stroke="black" points="806.69,-237.04 816.63,-233.38 806.58,-230.04 806.69,-237.04"/>
<text text-anchor="middle" x="689.29" y="-239.8" font-family="Times,serif" font-size="14.00">pub</text>
</g>
<!-- /hardware/cartpole_simulator -->
<g id="node2" class="node">
<title>/hardware/cartpole_simulator</title>
<polygon fill="lightblue" stroke="black" points="567.29,-202 340.29,-202 340.29,-164 567.29,-164 567.29,-202"/>
<text text-anchor="middle" x="453.79" y="-186.8" font-family="Times,serif" font-size="14.00">/hardware/cartpole_simulator</text>
<text text-anchor="middle" x="453.79" y="-171.8" font-family="Times,serif" font-size="14.00">(breadcrumb_example)</text>
</g>
<!-- /hardware/joint_states -->
<g id="node4" class="node">
<title>/hardware/joint_states</title>
<ellipse fill="lightgreen" stroke="black" cx="971.29" cy="-121" rx="161.85" ry="26.74"/>
<text text-anchor="middle" x="971.29" y="-124.8" font-family="Times,serif" font-size="14.00">/hardware/joint_states</text>
<text text-anchor="middle" x="971.29" y="-109.8" font-family="Times,serif" font-size="14.00">[sensor_msgs/msg/JointState]</text>
</g>
<!-- /hardware/cartpole_simulator&#45;&gt;/hardware/joint_states -->
<g id="edge2" class="edge">
<title>/hardware/cartpole_simulator&#45;&gt;/hardware/joint_states</title>
<path fill="none" stroke="orange" stroke-width="2" d="M529.68,-163.97C551.08,-159.11 574.5,-154.32 596.29,-151 664.43,-140.62 740.14,-133.69 805.52,-129.14"/>
<polygon fill="orange" stroke="orange" stroke-width="2" points="805.76,-132.63 815.5,-128.46 805.29,-125.65 805.76,-132.63"/>
<text text-anchor="middle" x="689.29" y="-154.8" font-family="Times,serif" font-size="14.00">pub INCOMPATIBLE_QOS</text>
</g>
<!-- /hardware/reset -->
<g id="node6" class="node">
<title>/hardware/reset</title>
<polygon fill="lightyellow" stroke="black" points="971.29,-76 800.29,-38 971.29,0 1142.29,-38 971.29,-76"/>
<text text-anchor="middle" x="971.29" y="-41.8" font-family="Times,serif" font-size="14.00">/hardware/reset</text>
<text text-anchor="middle" x="971.29" y="-26.8" font-family="Times,serif" font-size="14.00">[std_srvs/srv/Trigger]</text>
</g>
<!-- /hardware/cartpole_simulator&#45;&gt;/hardware/reset -->
<g id="edge5" class="edge">
<title>/hardware/cartpole_simulator&#45;&gt;/hardware/reset</title>
<path fill="none" stroke="black" stroke-dasharray="5,2" d="M487.18,-163.92C515.2,-148.17 557.25,-126.31 596.29,-113 679.97,-84.46 778.08,-65.29 852.82,-53.48"/>
<polygon fill="black" stroke="black" points="853.4,-56.93 862.74,-51.93 852.32,-50.02 853.4,-56.93"/>
<text text-anchor="middle" x="689.29" y="-116.8" font-family="Times,serif" font-size="14.00">provide</text>
</g>
<!-- /hardware/joint_states&#45;&gt;/hardware/robot_state_publisher -->
<g id="edge3" class="edge">
<title>/hardware/joint_states&#45;&gt;/hardware/robot_state_publisher</title>
<path fill="none" stroke="black" d="M832.61,-140.15C821.47,-143.49 810.56,-147.4 800.29,-152 791.04,-156.14 791.46,-161.68 782.29,-166 744.01,-184.03 643.74,-205.1 564.15,-219.96"/>
<polygon fill="black" stroke="black" points="833.79,-143.46 842.46,-137.37 831.88,-136.72 833.79,-143.46"/>
<text text-anchor="middle" x="689.29" y="-215.8" font-family="Times,serif" font-size="14.00">sub</text>
</g>
<!-- /hardware/request/force -->
<g id="node5" class="node">
<title>/hardware/request/force</title>
<ellipse fill="lightgreen" stroke="black" cx="133.64" cy="-183" rx="133.79" ry="26.74"/>
<text text-anchor="middle" x="133.64" y="-186.8" font-family="Times,serif" font-size="14.00">/hardware/request/force</text>
<text text-anchor="middle" x="133.64" y="-171.8" font-family="Times,serif" font-size="14.00">[std_msgs/msg/Float64]</text>
</g>
<!-- /hardware/request/force&#45;&gt;/hardware/cartpole_simulator -->
<g id="edge4" class="edge">
<title>/hardware/request/force&#45;&gt;/hardware/cartpole_simulator</title>
<path fill="none" stroke="black" d="M277.89,-183C298.68,-183 319.84,-183 339.91,-183"/>
<polygon fill="black" stroke="black" points="277.72,-179.5 267.72,-183 277.72,-186.5 277.72,-179.5"/>
<text text-anchor="middle" x="298.29" y="-186.8" font-family="Times,serif" font-size="14.00">sub</text>
</g>
</g>
</svg>
