<?xml version="1.0" encoding="UTF-8" standalone="no"?>
<!DOCTYPE svg PUBLIC "-//W3C//DTD SVG 1.1//EN"
 "http://www.w3.org/Graphics/SVG/1.1/DTD/svg11.dtd">
<!-- Generated by graphviz version 2.43.0 (0)
 -->
<!-- Title: ROS2Group_hardware Pages: 1 -->
<svg width="1244pt" height="328pt"
 viewBox="0.00 0.00 1244.29 328.00" xmlns="http://www.w3.org/2000/svg" xmlns:xlink="http://www.w3.org/1999/xlink">
<g id="graph0" class="graph" transform="scale(1 1) rotate(0) translate(4 324)">
<title>ROS2Group_hardware</title>
<polygon fill="white" stroke="transparent" points="-4,4 -4,-324 1240.29,-324 1240.29,4 -4,4"/>
<text text-anchor="middle" x="618.14" y="-304.8" font-family="Times,serif" font-size="14.00">Group: hardware</text>
<g id="clust1" class="cluster">
<title>cluster_hardware</title>
<polygon fill="lightgrey" stroke="black" points="369.29,-156 369.29,-289 1228.14,-289 1228.14,-156 369.29,-156"/>
<text text-anchor="middle" x="798.71" y="-273.8" font-family="Times,serif" font-size="14.00">hardware</text>
</g>
<!-- /hardware/robot_state_publisher -->
<g id="node1" class="node">
<title>/hardware/robot_state_publisher</title>
<polygon fill="lightblue" stroke="black" points="626.29,-258 377.29,-258 377.29,-220 626.29,-220 626.29,-258"/>
<text text-anchor="middle" x="501.79" y="-242.8" font-family="Times,serif" font-size="14.00">/hardware/robot_state_publisher</text>
<text text-anchor="middle" x="501.79" y="-227.8" font-family="Times,serif" font-size="14.00">(robot_state_publisher)</text>
</g>
<!-- /hardware/robot_description -->
<g id="node3" class="node">
<title>/hardware/robot_description</title>
<ellipse fill="lightgreen" stroke="black" cx="1065.29" cy="-231" rx="154.71" ry="26.74"/>
<text text-anchor="middle" x="1065.29" y="-234.8" font-family="Times,serif" font-size="14.00">/hardware/robot_description</text>
<text text-anchor="middle" x="1065.29" y="-219.8" font-family="Times,serif" font-size="14.00">[std_msgs/msg/String]</text>
</g>
<!-- /hardware/robot_state_publisher&#45;&gt;/hardware/robot_description -->
<g id="edge1" class="edge">
<title>/hardware/robot_state_publisher&#45;&gt;/hardware/robot_description</title>
<path fill="none" stroke="black" d="M626.36,-237.24C706.96,-236.09 813.07,-234.58 900.65,-233.33"/>
<polygon fill="black" stroke="black" points="900.74,-236.83 910.69,-233.19 900.64,-229.83 900.74,-236.83"/>
<text text-anchor="middle" x="760.29" y="-239.8" font-family="Times,serif" font-size="14.00">pub</text>
</g>
<!-- /hardware/cartpole_simulator -->
<g id="node2" class="node">
<title>/hardware/cartpole_simulator</title>
<polygon fill="lightblue" stroke="black" points="615.29,-202 388.29,-202 388.29,-164 615.29,-164 615.29,-202"/>
<text text-anchor="middle" x="501.79" y="-186.8" font-family="Times,serif" font-size="14.00">/hardware/cartpole_simulator</text>
<text text-anchor="middle" x="501.79" y="-171.8" font-family="Times,serif" font-size="14.00">(breadcrumb_example)</text>
</g>
<!-- /hardware/joint_states -->
<g id="node4" class="node">
<title>/hardware/joint_states</title>
<ellipse fill="lightgreen" stroke="black" cx="1065.29" cy="-121" rx="161.85" ry="26.74"/>
<text text-anchor="middle" x="1065.29" y="-124.8" font-family="Times,serif" font-size="14.00">/hardware/joint_states</text>
<text text-anchor="middle" x="1065.29" y="-109.8" font-family="Times,serif" font-size="14.00">[sensor_msgs/msg/JointState]</text>
</g>
<!-- /hardware/cartpole_simulator&#45;&gt;/hardware/joint_states -->
<g id="edge2" class="edge">
<title>/hardware/cartpole_simulator&#45;&gt;/hardware/joint_states</title>
<path fill="none" stroke="orange" stroke-width="2" d="M577.29,-163.93C598.79,-159.04 622.36,-154.24 644.29,-151 726.82,-138.79 819.23,-131.51 896.32,-127.18"/>
<polygon fill="orange" stroke="orange" stroke-width="2" points="896.82,-130.66 906.61,-126.62 896.43,-123.67 896.82,-130.66"/>
<text text-anchor="middle" x="760.29" y="-154.8" font-family="Times,serif" font-size="14.00">pub INCOMPATIBLE_QOS</text>
</g>
<!-- /hardware/reset -->
<g id="node6" class="node">
<title>/hardware/reset</title>
<polygon fill="lightyellow" stroke="black" points="1065.29,-76 894.29,-38 1065.29,0 1236.29,-38 1065.29,-76"/>
<text text-anchor="middle" x="1065.29" y="-41.8" font-family="Times,serif" font-size="14.00">/hardware/reset</text>
<text text-anchor="middle" x="1065.29" y="-26.8" font-family="Times,serif" font-size="14.00">[std_srvs/srv/Trigger]</text>
</g>
<!-- /hardware/cartpole_simulator&#45;&gt;/hardware/reset -->
<g id="edge5" class="edge">
<title>/hardware/cartpole_simulator&#45;&gt;/hardware/reset</title>
<path fill="none" stroke="black" stroke-dasharray="5,2" d="M533.05,-163.9C560.91,-147.19 603.92,-123.51 644.29,-110 738.16,-78.58 848.65,-60.33 932.73,-50.07"/>
<polygon fill="black" stroke="black" points="933.34,-53.53 942.85,-48.86 932.51,-46.57 933.34,-53.53"/>
<text text-anchor="middle" x="760.29" y="-113.8" font-family="Times,serif" font-size="14.00">provide</text>
</g>
<!-- /hardware/joint_states&#45;&gt;/hardware/robot_state_publisher -->
<g id="edge3" class="edge">
<title>/hardware/joint_states&#45;&gt;/hardware/robot_state_publisher</title>
<path fill="none" stroke="orange" stroke-width="2" d="M936.46,-137.37C921.92,-141.25 907.57,-146.06 894.29,-152 885.04,-156.14 885.51,-161.8 876.29,-166 864.29,-171.46 722.08,-198.49 616.68,-218.06"/>
<polygon fill="orange" stroke="orange" stroke-width="2" points="615.79,-214.67 606.6,-219.94 617.07,-221.55 615.79,-214.67"/>
<text text-anchor="middle" x="760.29" y="-214.8" font-family="Times,serif" font-size="14.00">subbed by INCOMPATIBLE_QOS</text>
</g>
<!-- /hardware/request/force -->
<g id="node5" class="node">
<title>/hardware/request/force</title>
<ellipse fill="lightgreen" stroke="black" cx="133.64" cy="-183" rx="133.79" ry="26.74"/>
<text text-anchor="middle" x="133.64" y="-186.8" font-family="Times,serif" font-size="14.00">/hardware/request/force</text>
<text text-anchor="middle" x="133.64" y="-171.8" font-family="Times,serif" font-size="14.00">[std_msgs/msg/Float64]</text>
</g>
<!-- /hardware/request/force&#45;&gt;/hardware/cartpole_simulator -->
<g id="edge4" class="edge">
<title>/hardware/request/force&#45;&gt;/hardware/cartpole_simulator</title>
<path fill="none" stroke="black" d="M267.35,-183C303.39,-183 342.26,-183 377.74,-183"/>
<polygon fill="black" stroke="black" points="378.15,-186.5 388.15,-183 378.15,-179.5 378.15,-186.5"/>
<text text-anchor="middle" x="322.29" y="-186.8" font-family="Times,serif" font-size="14.00">subbed by</text>
</g>
</g>
</svg>
