<?xml version="1.0" encoding="UTF-8" standalone="no"?>
<!DOCTYPE svg PUBLIC "-//W3C//DTD SVG 1.1//EN"
 "http://www.w3.org/Graphics/SVG/1.1/DTD/svg11.dtd">
<!-- Generated by graphviz version 2.43.0 (0)
 -->
<!-- Title: ROS2Graph Pages: 1 -->
<svg width="2650pt" height="441pt"
 viewBox="0.00 0.00 2649.97 441.00" xmlns="http://www.w3.org/2000/svg" xmlns:xlink="http://www.w3.org/1999/xlink">
<g id="graph0" class="graph" transform="scale(1 1) rotate(0) translate(4 437)">
<title>ROS2Graph</title>
<polygon fill="white" stroke="transparent" points="-4,4 -4,-437 2645.97,-437 2645.97,4 -4,4"/>
<g id="clust1" class="cluster">
<title>cluster__cartpole_ui</title>
<polygon fill="lightgrey" stroke="black" points="494,-139 494,-216 691,-216 691,-139 494,-139"/>
<text text-anchor="middle" x="592.5" y="-200.8" font-family="Times,serif" font-size="14.00">/cartpole_ui</text>
</g>
<g id="clust2" class="cluster">
<title>cluster__control_cartpole_controller</title>
<polygon fill="lightgrey" stroke="black" points="993,-8 993,-203 2612.76,-203 2612.76,-8 993,-8"/>
<text text-anchor="middle" x="1802.88" y="-187.8" font-family="Times,serif" font-size="14.00">/control/cartpole_controller</text>
</g>
<g id="clust3" class="cluster">
<title>cluster__hardware_robot_state_publisher</title>
<polygon fill="lightgrey" stroke="black" points="1954.26,-332 1954.26,-425 2633.97,-425 2633.97,-332 1954.26,-332"/>
<text text-anchor="middle" x="2294.12" y="-409.8" font-family="Times,serif" font-size="14.00">/hardware/robot_state_publisher</text>
</g>
<g id="clust4" class="cluster">
<title>cluster__hardware_cartpole_simulator</title>
<polygon fill="lightgrey" stroke="black" points="8,-224 8,-339 1504.06,-339 1504.06,-224 8,-224"/>
<text text-anchor="middle" x="756.03" y="-323.8" font-family="Times,serif" font-size="14.00">/hardware/cartpole_simulator</text>
</g>
<g id="clust5" class="cluster">
<title>cluster__rviz2</title>
<polygon fill="lightgrey" stroke="black" points="147.5,-347 147.5,-424 226.5,-424 226.5,-347 147.5,-347"/>
<text text-anchor="middle" x="187" y="-408.8" font-family="Times,serif" font-size="14.00">/rviz2</text>
</g>
<!-- /cartpole_ui -->
<g id="node1" class="node">
<title>/cartpole_ui</title>
<polygon fill="lightblue" stroke="black" points="683,-185 502,-185 502,-147 683,-147 683,-185"/>
<text text-anchor="middle" x="592.5" y="-169.8" font-family="Times,serif" font-size="14.00">/cartpole_ui</text>
<text text-anchor="middle" x="592.5" y="-154.8" font-family="Times,serif" font-size="14.00">(breadcrumb_example)</text>
</g>
<!-- /control/enable -->
<g id="node5" class="node">
<title>/control/enable</title>
<polygon fill="lightyellow" stroke="black" points="1334.13,-92 1161.13,-54 1334.13,-16 1507.13,-54 1334.13,-92"/>
<text text-anchor="middle" x="1334.13" y="-57.8" font-family="Times,serif" font-size="14.00">/control/enable</text>
<text text-anchor="middle" x="1334.13" y="-42.8" font-family="Times,serif" font-size="14.00">[std_srvs/srv/SetBool]</text>
</g>
<!-- /cartpole_ui&#45;&gt;/control/enable -->
<g id="edge11" class="edge">
<title>/cartpole_ui&#45;&gt;/control/enable</title>
<path fill="none" stroke="black" stroke-dasharray="5,2" d="M664.99,-146.97C684.07,-142.3 704.74,-137.61 724,-134 888.54,-103.12 1080.3,-80.03 1204.05,-66.79"/>
<polygon fill="black" stroke="black" points="1204.75,-70.23 1214.32,-65.7 1204.01,-63.27 1204.75,-70.23"/>
<text text-anchor="middle" x="853.5" y="-137.8" font-family="Times,serif" font-size="14.00">calls</text>
</g>
<!-- /control/track_position -->
<g id="node6" class="node">
<title>/control/track_position</title>
<polygon fill="lightcoral" stroke="black" points="1667.39,-141 1500.76,-172.05 1167.5,-172.05 1000.87,-141 1167.5,-109.95 1500.76,-109.95 1667.39,-141"/>
<text text-anchor="middle" x="1334.13" y="-144.8" font-family="Times,serif" font-size="14.00">/control/track_position</text>
<text text-anchor="middle" x="1334.13" y="-129.8" font-family="Times,serif" font-size="14.00">[breadcrumb_example_interfaces/action/TrackPosition]</text>
</g>
<!-- /cartpole_ui&#45;&gt;/control/track_position -->
<g id="edge15" class="edge">
<title>/cartpole_ui&#45;&gt;/control/track_position</title>
<path fill="none" stroke="black" stroke-dasharray="1,5" d="M683.08,-162.97C772.02,-159.97 913.22,-155.19 1041.33,-150.86"/>
<polygon fill="black" stroke="black" points="1041.83,-154.35 1051.7,-150.51 1041.59,-147.35 1041.83,-154.35"/>
<text text-anchor="middle" x="853.5" y="-164.8" font-family="Times,serif" font-size="14.00">calls</text>
</g>
<!-- /hardware/reset -->
<g id="node11" class="node">
<title>/hardware/reset</title>
<polygon fill="lightyellow" stroke="black" points="187,-308 16,-270 187,-232 358,-270 187,-308"/>
<text text-anchor="middle" x="187" y="-273.8" font-family="Times,serif" font-size="14.00">/hardware/reset</text>
<text text-anchor="middle" x="187" y="-258.8" font-family="Times,serif" font-size="14.00">[std_srvs/srv/Trigger]</text>
</g>
<!-- /cartpole_ui&#45;&gt;/hardware/reset -->
<g id="edge13" class="edge">
<title>/cartpole_ui&#45;&gt;/hardware/reset</title>
<path fill="none" stroke="black" stroke-dasharray="5,2" d="M517.7,-185.02C449.81,-202.52 349.01,-228.5 276.76,-247.12"/>
<polygon fill="black" stroke="black" points="275.57,-243.82 266.76,-249.7 277.31,-250.59 275.57,-243.82"/>
<text text-anchor="middle" x="418.5" y="-224.8" font-family="Times,serif" font-size="14.00">calls</text>
</g>
<!-- /control/cartpole_controller -->
<g id="node2" class="node">
<title>/control/cartpole_controller</title>
<polygon fill="lightblue" stroke="black" points="2192.26,-160 1981.26,-160 1981.26,-122 2192.26,-122 2192.26,-160"/>
<text text-anchor="middle" x="2086.76" y="-144.8" font-family="Times,serif" font-size="14.00">/control/cartpole_controller</text>
<text text-anchor="middle" x="2086.76" y="-129.8" font-family="Times,serif" font-size="14.00">(breadcrumb_example)</text>
</g>
<!-- /test/test -->
<g id="node3" class="node">
<title>/test/test</title>
<ellipse fill="lightgreen" stroke="black" cx="2471.12" cy="-73" rx="125.73" ry="26.74"/>
<text text-anchor="middle" x="2471.12" y="-76.8" font-family="Times,serif" font-size="14.00">/test/test</text>
<text text-anchor="middle" x="2471.12" y="-61.8" font-family="Times,serif" font-size="14.00">[std_msgs/msg/String]</text>
</g>
<!-- /control/cartpole_controller&#45;&gt;/test/test -->
<g id="edge5" class="edge">
<title>/control/cartpole_controller&#45;&gt;/test/test</title>
<path fill="none" stroke="black" d="M2192.49,-122.37C2245.78,-112.9 2310.41,-101.4 2363.9,-91.89"/>
<polygon fill="black" stroke="black" points="2364.52,-95.33 2373.76,-90.14 2363.3,-88.44 2364.52,-95.33"/>
<text text-anchor="middle" x="2263.76" y="-118.8" font-family="Times,serif" font-size="14.00">publishes</text>
</g>
<!-- /hardware/request/force -->
<g id="node4" class="node">
<title>/hardware/request/force</title>
<ellipse fill="lightgreen" stroke="black" cx="2471.12" cy="-145" rx="133.79" ry="26.74"/>
<text text-anchor="middle" x="2471.12" y="-148.8" font-family="Times,serif" font-size="14.00">/hardware/request/force</text>
<text text-anchor="middle" x="2471.12" y="-133.8" font-family="Times,serif" font-size="14.00">[std_msgs/msg/Float64]</text>
</g>
<!-- /control/cartpole_controller&#45;&gt;/hardware/request/force -->
<g id="edge7" class="edge">
<title>/control/cartpole_controller&#45;&gt;/hardware/request/force</title>
<path fill="none" stroke="black" d="M2192.49,-142.1C2234.12,-142.53 2282.67,-143.04 2327.42,-143.51"/>
<polygon fill="black" stroke="black" points="2327.47,-147.01 2337.51,-143.61 2327.54,-140.01 2327.47,-147.01"/>
<text text-anchor="middle" x="2263.76" y="-146.8" font-family="Times,serif" font-size="14.00">publishes</text>
</g>
<!-- /test/test&#45;&gt;/cartpole_ui -->
<g id="edge6" class="edge">
<title>/test/test&#45;&gt;/cartpole_ui</title>
<path fill="none" stroke="black" d="M2357.92,-84.97C2342.64,-90.49 2328.15,-98.22 2316.26,-109 2297.83,-125.71 2317.89,-146.71 2298.26,-162 2267.66,-185.84 2250,-167.02 2211.26,-169 1670.49,-196.7 1534.47,-182.01 993,-181 873.44,-180.78 843.37,-186.61 724,-180 714.1,-179.45 703.8,-178.69 693.52,-177.79"/>
<polygon fill="black" stroke="black" points="693.53,-174.28 683.26,-176.86 692.9,-181.25 693.53,-174.28"/>
<text text-anchor="middle" x="1814.76" y="-188.8" font-family="Times,serif" font-size="14.00">subscribed by</text>
</g>
<!-- /hardware/cartpole_simulator -->
<g id="node9" class="node">
<title>/hardware/cartpole_simulator</title>
<polygon fill="lightblue" stroke="black" points="706,-290 479,-290 479,-252 706,-252 706,-290"/>
<text text-anchor="middle" x="592.5" y="-274.8" font-family="Times,serif" font-size="14.00">/hardware/cartpole_simulator</text>
<text text-anchor="middle" x="592.5" y="-259.8" font-family="Times,serif" font-size="14.00">(breadcrumb_example)</text>
</g>
<!-- /hardware/request/force&#45;&gt;/hardware/cartpole_simulator -->
<g id="edge8" class="edge">
<title>/hardware/request/force&#45;&gt;/hardware/cartpole_simulator</title>
<path fill="none" stroke="black" d="M2406.52,-168.64C2308.79,-203.61 2115.06,-267.63 1944.26,-292 1525.71,-351.71 1415.74,-301.28 993,-295 873.4,-293.22 843.26,-296.07 724,-287 721.46,-286.81 718.9,-286.6 716.31,-286.38"/>
<polygon fill="black" stroke="black" points="716.53,-282.89 706.26,-285.48 715.91,-289.86 716.53,-282.89"/>
<text text-anchor="middle" x="1814.76" y="-321.8" font-family="Times,serif" font-size="14.00">subscribed by</text>
</g>
<!-- /control/enable&#45;&gt;/control/cartpole_controller -->
<g id="edge10" class="edge">
<title>/control/enable&#45;&gt;/control/cartpole_controller</title>
<path fill="none" stroke="black" stroke-dasharray="5,2" d="M1451.71,-66.23C1574.38,-79.29 1773.04,-100.95 1944.26,-122 1952.93,-123.07 1961.89,-124.2 1970.91,-125.36"/>
<polygon fill="black" stroke="black" points="1970.72,-128.86 1981.09,-126.68 1971.62,-121.92 1970.72,-128.86"/>
<text text-anchor="middle" x="1814.76" y="-125.8" font-family="Times,serif" font-size="14.00">provided by</text>
</g>
<!-- /control/track_position&#45;&gt;/control/cartpole_controller -->
<g id="edge14" class="edge">
<title>/control/track_position&#45;&gt;/control/cartpole_controller</title>
<path fill="none" stroke="black" stroke-dasharray="1,5" d="M1667.37,-141C1775.91,-141 1889.31,-141 1970.63,-141"/>
<polygon fill="black" stroke="black" points="1970.89,-144.5 1980.89,-141 1970.89,-137.5 1970.89,-144.5"/>
<text text-anchor="middle" x="1814.76" y="-144.8" font-family="Times,serif" font-size="14.00">served by</text>
</g>
<!-- /hardware/robot_state_publisher -->
<g id="node7" class="node">
<title>/hardware/robot_state_publisher</title>
<polygon fill="lightblue" stroke="black" points="2211.26,-383 1962.26,-383 1962.26,-345 2211.26,-345 2211.26,-383"/>
<text text-anchor="middle" x="2086.76" y="-367.8" font-family="Times,serif" font-size="14.00">/hardware/robot_state_publisher</text>
<text text-anchor="middle" x="2086.76" y="-352.8" font-family="Times,serif" font-size="14.00">(robot_state_publisher)</text>
</g>
<!-- /hardware/robot_description -->
<g id="node8" class="node">
<title>/hardware/robot_description</title>
<ellipse fill="lightgreen" stroke="black" cx="2471.12" cy="-367" rx="154.71" ry="26.74"/>
<text text-anchor="middle" x="2471.12" y="-370.8" font-family="Times,serif" font-size="14.00">/hardware/robot_description</text>
<text text-anchor="middle" x="2471.12" y="-355.8" font-family="Times,serif" font-size="14.00">[std_msgs/msg/String]</text>
</g>
<!-- /hardware/robot_state_publisher&#45;&gt;/hardware/robot_description -->
<g id="edge9" class="edge">
<title>/hardware/robot_state_publisher&#45;&gt;/hardware/robot_description</title>
<path fill="none" stroke="black" d="M2211.37,-364.97C2241.5,-365.21 2274.19,-365.46 2305.87,-365.71"/>
<polygon fill="black" stroke="black" points="2306.09,-369.21 2316.12,-365.79 2306.14,-362.21 2306.09,-369.21"/>
<text text-anchor="middle" x="2263.76" y="-368.8" font-family="Times,serif" font-size="14.00">publishes</text>
</g>
<!-- /hardware/joint_states -->
<g id="node10" class="node">
<title>/hardware/joint_states</title>
<ellipse fill="lightgreen" stroke="black" cx="1334.13" cy="-259" rx="161.85" ry="26.74"/>
<text text-anchor="middle" x="1334.13" y="-262.8" font-family="Times,serif" font-size="14.00">/hardware/joint_states</text>
<text text-anchor="middle" x="1334.13" y="-247.8" font-family="Times,serif" font-size="14.00">[sensor_msgs/msg/JointState]</text>
</g>
<!-- /hardware/cartpole_simulator&#45;&gt;/hardware/joint_states -->
<g id="edge1" class="edge">
<title>/hardware/cartpole_simulator&#45;&gt;/hardware/joint_states</title>
<path fill="none" stroke="orange" stroke-width="2" d="M706.24,-269.17C827.77,-267.2 1022.63,-264.04 1162.85,-261.76"/>
<polygon fill="orange" stroke="orange" stroke-width="2" points="1162.91,-265.26 1172.85,-261.6 1162.79,-258.26 1162.91,-265.26"/>
<text text-anchor="middle" x="853.5" y="-271.8" font-family="Times,serif" font-size="14.00">publishes INCOMPATIBLE_QOS</text>
</g>
<!-- /hardware/joint_states&#45;&gt;/cartpole_ui -->
<g id="edge2" class="edge">
<title>/hardware/joint_states&#45;&gt;/cartpole_ui</title>
<path fill="none" stroke="orange" stroke-width="2" d="M1178.98,-251.31C1027.65,-242.95 807.73,-228.44 724,-211 698.85,-205.76 671.88,-197.02 649.03,-188.63"/>
<polygon fill="orange" stroke="orange" stroke-width="2" points="650.1,-185.29 639.51,-185.07 647.64,-191.85 650.1,-185.29"/>
<text text-anchor="middle" x="853.5" y="-241.8" font-family="Times,serif" font-size="14.00">subscribed by INCOMPATIBLE_QOS</text>
</g>
<!-- /hardware/joint_states&#45;&gt;/control/cartpole_controller -->
<g id="edge3" class="edge">
<title>/hardware/joint_states&#45;&gt;/control/cartpole_controller</title>
<path fill="none" stroke="black" d="M1484.06,-248.67C1663.5,-236.2 1941.5,-216.79 1944.26,-216 1982.49,-205.05 2022.17,-182.93 2049.74,-165.53"/>
<polygon fill="black" stroke="black" points="2051.73,-168.42 2058.26,-160.07 2047.95,-162.53 2051.73,-168.42"/>
<text text-anchor="middle" x="1814.76" y="-237.8" font-family="Times,serif" font-size="14.00">subscribed by</text>
</g>
<!-- /hardware/joint_states&#45;&gt;/hardware/robot_state_publisher -->
<g id="edge4" class="edge">
<title>/hardware/joint_states&#45;&gt;/hardware/robot_state_publisher</title>
<path fill="none" stroke="orange" stroke-width="2" d="M1494.01,-254.46C1645.84,-251.79 1863.23,-252.78 1944.26,-277 1986.08,-289.5 2027.91,-317.62 2055.12,-338.53"/>
<polygon fill="orange" stroke="orange" stroke-width="2" points="2053.05,-341.36 2063.08,-344.77 2057.36,-335.85 2053.05,-341.36"/>
<text text-anchor="middle" x="1814.76" y="-280.8" font-family="Times,serif" font-size="14.00">subscribed by INCOMPATIBLE_QOS</text>
</g>
<!-- /hardware/reset&#45;&gt;/hardware/cartpole_simulator -->
<g id="edge12" class="edge">
<title>/hardware/reset&#45;&gt;/hardware/cartpole_simulator</title>
<path fill="none" stroke="black" stroke-dasharray="5,2" d="M356.2,-270.42C393.79,-270.51 432.98,-270.61 468.35,-270.69"/>
<polygon fill="black" stroke="black" points="468.7,-274.2 478.71,-270.72 468.72,-267.2 468.7,-274.2"/>
<text text-anchor="middle" x="418.5" y="-273.8" font-family="Times,serif" font-size="14.00">provided by</text>
</g>
<!-- /rviz2 -->
<g id="node12" class="node">
<title>/rviz2</title>
<polygon fill="lightblue" stroke="black" points="218.5,-393 155.5,-393 155.5,-355 218.5,-355 218.5,-393"/>
<text text-anchor="middle" x="187" y="-377.8" font-family="Times,serif" font-size="14.00">/rviz2</text>
<text text-anchor="middle" x="187" y="-362.8" font-family="Times,serif" font-size="14.00">(rviz2)</text>
</g>
</g>
</svg>
