<?xml version="1.0" encoding="UTF-8" standalone="no"?>
<!DOCTYPE svg PUBLIC "-//W3C//DTD SVG 1.1//EN"
 "http://www.w3.org/Graphics/SVG/1.1/DTD/svg11.dtd">
<!-- Generated by graphviz version 2.43.0 (0)
 -->
<!-- Title: ROS2Group_control Pages: 1 -->
<svg width="1338pt" height="259pt"
 viewBox="0.00 0.00 1337.55 258.90" xmlns="http://www.w3.org/2000/svg" xmlns:xlink="http://www.w3.org/1999/xlink">
<g id="graph0" class="graph" transform="scale(1 1) rotate(0) translate(4 254.9)">
<title>ROS2Group_control</title>
<polygon fill="white" stroke="transparent" points="-4,4 -4,-254.9 1333.55,-254.9 1333.55,4 -4,4"/>
<text text-anchor="middle" x="664.77" y="-235.7" font-family="Times,serif" font-size="14.00">Group: control</text>
<g id="clust1" class="cluster">
<title>cluster_control</title>
<polygon fill="lightgrey" stroke="black" points="779.26,-91.03 779.26,-168.03 1006.26,-168.03 1006.26,-91.03 779.26,-91.03"/>
<text text-anchor="middle" x="892.76" y="-152.83" font-family="Times,serif" font-size="14.00">control</text>
</g>
<!-- /control/cartpole_controller -->
<g id="node1" class="node">
<title>/control/cartpole_controller</title>
<polygon fill="lightblue" stroke="black" points="998.26,-137.03 787.26,-137.03 787.26,-99.03 998.26,-99.03 998.26,-137.03"/>
<text text-anchor="middle" x="892.76" y="-121.83" font-family="Times,serif" font-size="14.00">/control/cartpole_controller</text>
<text text-anchor="middle" x="892.76" y="-106.83" font-family="Times,serif" font-size="14.00">(breadcrumb_example)</text>
</g>
<!-- /hardware/request/force -->
<g id="node3" class="node">
<title>/hardware/request/force</title>
<ellipse fill="lightgreen" stroke="black" cx="1195.9" cy="-118.03" rx="133.79" ry="26.74"/>
<text text-anchor="middle" x="1195.9" y="-121.83" font-family="Times,serif" font-size="14.00">/hardware/request/force</text>
<text text-anchor="middle" x="1195.9" y="-106.83" font-family="Times,serif" font-size="14.00">[std_msgs/msg/Float64]</text>
</g>
<!-- /control/cartpole_controller&#45;&gt;/hardware/request/force -->
<g id="edge2" class="edge">
<title>/control/cartpole_controller&#45;&gt;/hardware/request/force</title>
<path fill="none" stroke="black" d="M998.66,-118.03C1015.76,-118.03 1033.73,-118.03 1051.56,-118.03"/>
<polygon fill="black" stroke="black" points="1052.03,-121.53 1062.03,-118.03 1052.03,-114.53 1052.03,-121.53"/>
<text text-anchor="middle" x="1030.26" y="-121.83" font-family="Times,serif" font-size="14.00">pub</text>
</g>
<!-- /hardware/joint_states -->
<g id="node2" class="node">
<title>/hardware/joint_states</title>
<ellipse fill="lightgreen" stroke="black" cx="333.13" cy="-201.03" rx="161.85" ry="26.74"/>
<text text-anchor="middle" x="333.13" y="-204.83" font-family="Times,serif" font-size="14.00">/hardware/joint_states</text>
<text text-anchor="middle" x="333.13" y="-189.83" font-family="Times,serif" font-size="14.00">[sensor_msgs/msg/JointState]</text>
</g>
<!-- /hardware/joint_states&#45;&gt;/control/cartpole_controller -->
<g id="edge1" class="edge">
<title>/hardware/joint_states&#45;&gt;/control/cartpole_controller</title>
<path fill="none" stroke="black" d="M477.17,-188.6C535.93,-182.7 604.53,-174.78 666.26,-165.03 710.6,-158.02 759.41,-148.12 800.24,-139.22"/>
<polygon fill="black" stroke="black" points="801.16,-142.6 810.17,-137.04 799.66,-135.76 801.16,-142.6"/>
<text text-anchor="middle" x="726.76" y="-164.83" font-family="Times,serif" font-size="14.00">subbed by</text>
</g>
<!-- /control/enable -->
<g id="node4" class="node">
<title>/control/enable</title>
<polygon fill="lightyellow" stroke="black" points="333.13,-156.03 160.13,-118.03 333.13,-80.03 506.13,-118.03 333.13,-156.03"/>
<text text-anchor="middle" x="333.13" y="-121.83" font-family="Times,serif" font-size="14.00">/control/enable</text>
<text text-anchor="middle" x="333.13" y="-106.83" font-family="Times,serif" font-size="14.00">[std_srvs/srv/SetBool]</text>
</g>
<!-- /control/enable&#45;&gt;/control/cartpole_controller -->
<g id="edge3" class="edge">
<title>/control/enable&#45;&gt;/control/cartpole_controller</title>
<path fill="none" stroke="black" stroke-dasharray="5,2" d="M506.37,-118.03C594.25,-118.03 698.75,-118.03 776.75,-118.03"/>
<polygon fill="black" stroke="black" points="777.09,-121.53 787.09,-118.03 777.09,-114.53 777.09,-121.53"/>
<text text-anchor="middle" x="726.76" y="-121.83" font-family="Times,serif" font-size="14.00">provided by</text>
</g>
<!-- /control/track_position -->
<g id="node5" class="node">
<title>/control/track_position</title>
<polygon fill="lightcoral" stroke="black" points="666.39,-31.03 499.76,-62.08 166.5,-62.08 -0.13,-31.03 166.5,0.03 499.76,0.03 666.39,-31.03"/>
<text text-anchor="middle" x="333.13" y="-34.83" font-family="Times,serif" font-size="14.00">/control/track_position</text>
<text text-anchor="middle" x="333.13" y="-19.83" font-family="Times,serif" font-size="14.00">[breadcrumb_example_interfaces/action/TrackPosition]</text>
</g>
<!-- /control/track_position&#45;&gt;/control/cartpole_controller -->
<g id="edge4" class="edge">
<title>/control/track_position&#45;&gt;/control/cartpole_controller</title>
<path fill="none" stroke="black" stroke-dasharray="1,5" d="M545.36,-53.71C585.59,-58.81 627.29,-64.63 666.26,-71.03 710.19,-78.24 758.56,-88.06 799.19,-96.87"/>
<polygon fill="black" stroke="black" points="798.56,-100.31 809.08,-99.02 800.05,-93.47 798.56,-100.31"/>
<text text-anchor="middle" x="726.76" y="-92.83" font-family="Times,serif" font-size="14.00">served by</text>
</g>
</g>
</svg>
