<?xml version="1.0" encoding="UTF-8" standalone="no"?>
<!DOCTYPE svg PUBLIC "-//W3C//DTD SVG 1.1//EN"
 "http://www.w3.org/Graphics/SVG/1.1/DTD/svg11.dtd">
<!-- Generated by graphviz version 2.43.0 (0)
 -->
<!-- Title: ROS2TopLevel Pages: 1 -->
<svg width="1885pt" height="398pt"
 viewBox="0.00 0.00 1885.12 397.86" xmlns="http://www.w3.org/2000/svg" xmlns:xlink="http://www.w3.org/1999/xlink">
<g id="graph0" class="graph" transform="scale(1 1) rotate(0) translate(4 393.86)">
<title>ROS2TopLevel</title>
<polygon fill="white" stroke="transparent" points="-4,4 -4,-393.86 1881.12,-393.86 1881.12,4 -4,4"/>
<g id="clust1" class="cluster">
<title>cluster_control</title>
<polygon fill="lightgrey" stroke="black" points="242,-186.86 242,-381.86 1840.83,-381.86 1840.83,-186.86 242,-186.86"/>
<text text-anchor="middle" x="1041.42" y="-366.66" font-family="Times,serif" font-size="14.00">control</text>
</g>
<g id="clust2" class="cluster">
<title>cluster_hardware</title>
<polygon fill="lightgrey" stroke="black" points="404.13,-63.86 404.13,-178.86 1869.12,-178.86 1869.12,-63.86 404.13,-63.86"/>
<text text-anchor="middle" x="1136.62" y="-163.66" font-family="Times,serif" font-size="14.00">hardware</text>
</g>
<!-- control -->
<g id="node1" class="node">
<title>control</title>
<polygon fill="lightblue" stroke="black" points="1264.26,-256.86 1189.26,-256.86 1189.26,-218.86 1264.26,-218.86 1264.26,-256.86"/>
<text text-anchor="middle" x="1226.76" y="-241.66" font-family="Times,serif" font-size="14.00">control</text>
<text text-anchor="middle" x="1226.76" y="-226.66" font-family="Times,serif" font-size="14.00">(1 node)</text>
</g>
<!-- /hardware/request/force -->
<g id="node2" class="node">
<title>/hardware/request/force</title>
<ellipse fill="lightgreen" stroke="black" cx="1699.19" cy="-231.86" rx="133.79" ry="26.74"/>
<text text-anchor="middle" x="1699.19" y="-235.66" font-family="Times,serif" font-size="14.00">/hardware/request/force</text>
<text text-anchor="middle" x="1699.19" y="-220.66" font-family="Times,serif" font-size="14.00">[std_msgs/msg/Float64]</text>
</g>
<!-- control&#45;&gt;/hardware/request/force -->
<g id="edge5" class="edge">
<title>control&#45;&gt;/hardware/request/force</title>
<path fill="none" stroke="black" d="M1264.28,-237.4C1326.12,-236.61 1454.59,-234.97 1555.77,-233.68"/>
<polygon fill="black" stroke="black" points="1555.83,-237.18 1565.79,-233.55 1555.74,-230.18 1555.83,-237.18"/>
<text text-anchor="middle" x="1403.26" y="-240.66" font-family="Times,serif" font-size="14.00">pub</text>
</g>
<!-- hardware -->
<g id="node5" class="node">
<title>hardware</title>
<polygon fill="lightblue" stroke="black" points="1269.26,-141.86 1184.26,-141.86 1184.26,-103.86 1269.26,-103.86 1269.26,-141.86"/>
<text text-anchor="middle" x="1226.76" y="-126.66" font-family="Times,serif" font-size="14.00">hardware</text>
<text text-anchor="middle" x="1226.76" y="-111.66" font-family="Times,serif" font-size="14.00">(2 nodes)</text>
</g>
<!-- /hardware/request/force&#45;&gt;hardware -->
<g id="edge6" class="edge">
<title>/hardware/request/force&#45;&gt;hardware</title>
<path fill="none" stroke="black" d="M1608.52,-211.99C1584.52,-204.71 1559.17,-195.15 1537.26,-182.86 1527.93,-177.63 1529.03,-171.24 1519.26,-166.86 1424.53,-124.42 1389.06,-160.19 1287.26,-139.86 1284.64,-139.34 1281.96,-138.76 1279.26,-138.13"/>
<polygon fill="black" stroke="black" points="1280.03,-134.72 1269.49,-135.71 1278.35,-141.51 1280.03,-134.72"/>
<text text-anchor="middle" x="1403.26" y="-170.66" font-family="Times,serif" font-size="14.00">subbed by</text>
</g>
<!-- /control/enable -->
<g id="node3" class="node">
<title>/control/enable</title>
<polygon fill="lightyellow" stroke="black" points="583.13,-350.86 410.13,-312.86 583.13,-274.86 756.13,-312.86 583.13,-350.86"/>
<text text-anchor="middle" x="583.13" y="-316.66" font-family="Times,serif" font-size="14.00">/control/enable</text>
<text text-anchor="middle" x="583.13" y="-301.66" font-family="Times,serif" font-size="14.00">[std_srvs/srv/SetBool]</text>
</g>
<!-- /control/enable&#45;&gt;control -->
<g id="edge7" class="edge">
<title>/control/enable&#45;&gt;control</title>
<path fill="none" stroke="black" stroke-dasharray="5,2" d="M724.82,-305.92C843.35,-298.38 1017,-283.39 1166.26,-254.86 1170.48,-254.06 1174.82,-253.09 1179.16,-252.03"/>
<polygon fill="black" stroke="black" points="1180.39,-255.33 1189.19,-249.42 1178.63,-248.55 1180.39,-255.33"/>
<text text-anchor="middle" x="1050.26" y="-290.66" font-family="Times,serif" font-size="14.00">provided by</text>
</g>
<!-- /control/track_position -->
<g id="node4" class="node">
<title>/control/track_position</title>
<polygon fill="lightcoral" stroke="black" points="916.39,-225.86 749.76,-256.92 416.5,-256.92 249.87,-225.86 416.5,-194.81 749.76,-194.81 916.39,-225.86"/>
<text text-anchor="middle" x="583.13" y="-229.66" font-family="Times,serif" font-size="14.00">/control/track_position</text>
<text text-anchor="middle" x="583.13" y="-214.66" font-family="Times,serif" font-size="14.00">[breadcrumb_example_interfaces/action/TrackPosition]</text>
</g>
<!-- /control/track_position&#45;&gt;control -->
<g id="edge11" class="edge">
<title>/control/track_position&#45;&gt;control</title>
<path fill="none" stroke="black" stroke-dasharray="1,5" d="M886.16,-231.51C999.54,-233.63 1116.06,-235.81 1178.81,-236.99"/>
<polygon fill="black" stroke="black" points="1179.09,-240.49 1189.15,-237.18 1179.22,-233.49 1179.09,-240.49"/>
<text text-anchor="middle" x="1050.26" y="-239.66" font-family="Times,serif" font-size="14.00">served by</text>
</g>
<!-- /hardware/joint_states -->
<g id="node6" class="node">
<title>/hardware/joint_states</title>
<ellipse fill="lightgreen" stroke="black" cx="1699.19" cy="-109.86" rx="161.85" ry="26.74"/>
<text text-anchor="middle" x="1699.19" y="-113.66" font-family="Times,serif" font-size="14.00">/hardware/joint_states</text>
<text text-anchor="middle" x="1699.19" y="-98.66" font-family="Times,serif" font-size="14.00">[sensor_msgs/msg/JointState]</text>
</g>
<!-- hardware&#45;&gt;/hardware/joint_states -->
<g id="edge1" class="edge">
<title>hardware&#45;&gt;/hardware/joint_states</title>
<path fill="none" stroke="orange" stroke-width="2" d="M1256.54,-103.71C1265.94,-98.48 1276.68,-93.53 1287.26,-90.86 1386.25,-65.93 1502.81,-74.77 1586.46,-87.43"/>
<polygon fill="orange" stroke="orange" stroke-width="2" points="1586.07,-90.91 1596.49,-88.99 1587.15,-84 1586.07,-90.91"/>
<text text-anchor="middle" x="1403.26" y="-94.66" font-family="Times,serif" font-size="14.00">pub INCOMPATIBLE_QOS</text>
</g>
<!-- /hardware/joint_states&#45;&gt;control -->
<g id="edge3" class="edge">
<title>/hardware/joint_states&#45;&gt;control</title>
<path fill="none" stroke="black" d="M1644.93,-135.24C1609.94,-150.92 1562.76,-170.2 1519.26,-181.86 1418.66,-208.83 1388.04,-188.59 1287.26,-214.86 1282.92,-215.99 1278.47,-217.34 1274.05,-218.81"/>
<polygon fill="black" stroke="black" points="1272.74,-215.56 1264.47,-222.18 1275.06,-222.16 1272.74,-215.56"/>
<text text-anchor="middle" x="1403.26" y="-218.66" font-family="Times,serif" font-size="14.00">subbed by</text>
</g>
<!-- /hardware/joint_states&#45;&gt;hardware -->
<g id="edge4" class="edge">
<title>/hardware/joint_states&#45;&gt;hardware</title>
<path fill="none" stroke="orange" stroke-width="2" d="M1539.43,-114.25C1449.19,-116.74 1342.11,-119.7 1279.85,-121.42"/>
<polygon fill="orange" stroke="orange" stroke-width="2" points="1279.41,-117.94 1269.51,-121.71 1279.6,-124.93 1279.41,-117.94"/>
<text text-anchor="middle" x="1403.26" y="-124.66" font-family="Times,serif" font-size="14.00">subbed by INCOMPATIBLE_QOS</text>
</g>
<!-- /cartpole_ui -->
<g id="node8" class="node">
<title>/cartpole_ui</title>
<polygon fill="lightyellow" stroke="black" points="181,-166.86 0,-166.86 0,-128.86 181,-128.86 181,-166.86"/>
<text text-anchor="middle" x="90.5" y="-151.66" font-family="Times,serif" font-size="14.00">/cartpole_ui</text>
<text text-anchor="middle" x="90.5" y="-136.66" font-family="Times,serif" font-size="14.00">(breadcrumb_example)</text>
</g>
<!-- /hardware/joint_states&#45;&gt;/cartpole_ui -->
<g id="edge2" class="edge">
<title>/hardware/joint_states&#45;&gt;/cartpole_ui</title>
<path fill="none" stroke="orange" stroke-width="2" d="M1602.39,-88.23C1366.35,-38.89 739.82,68 242,-62.86 197.89,-74.46 153.1,-102.25 124,-122.92"/>
<polygon fill="orange" stroke="orange" stroke-width="2" points="121.9,-120.11 115.85,-128.81 126,-125.78 121.9,-120.11"/>
<text text-anchor="middle" x="1050.26" y="-24.66" font-family="Times,serif" font-size="14.00">subbed by INCOMPATIBLE_QOS</text>
</g>
<!-- /hardware/reset -->
<g id="node7" class="node">
<title>/hardware/reset</title>
<polygon fill="lightyellow" stroke="black" points="583.13,-147.86 412.13,-109.86 583.13,-71.86 754.13,-109.86 583.13,-147.86"/>
<text text-anchor="middle" x="583.13" y="-113.66" font-family="Times,serif" font-size="14.00">/hardware/reset</text>
<text text-anchor="middle" x="583.13" y="-98.66" font-family="Times,serif" font-size="14.00">[std_srvs/srv/Trigger]</text>
</g>
<!-- /hardware/reset&#45;&gt;hardware -->
<g id="edge9" class="edge">
<title>/hardware/reset&#45;&gt;hardware</title>
<path fill="none" stroke="black" stroke-dasharray="5,2" d="M740.27,-113.03C881.5,-115.89 1081.14,-119.93 1174.23,-121.82"/>
<polygon fill="black" stroke="black" points="1174.18,-125.32 1184.25,-122.02 1174.32,-118.32 1174.18,-125.32"/>
<text text-anchor="middle" x="1050.26" y="-124.66" font-family="Times,serif" font-size="14.00">provided by</text>
</g>
<!-- /cartpole_ui&#45;&gt;/control/enable -->
<g id="edge8" class="edge">
<title>/cartpole_ui&#45;&gt;/control/enable</title>
<path fill="none" stroke="black" stroke-dasharray="5,2" d="M166.66,-167.06C171.72,-169.64 176.56,-172.56 181,-175.86 200.39,-190.28 221.48,-253.11 242,-265.86 296.19,-299.55 364.53,-313.29 425.71,-317.86"/>
<polygon fill="black" stroke="black" points="425.65,-321.37 435.86,-318.54 426.11,-314.38 425.65,-321.37"/>
<text text-anchor="middle" x="215.5" y="-257.66" font-family="Times,serif" font-size="14.00">calls</text>
</g>
<!-- /cartpole_ui&#45;&gt;/control/track_position -->
<g id="edge12" class="edge">
<title>/cartpole_ui&#45;&gt;/control/track_position</title>
<path fill="none" stroke="black" stroke-dasharray="1,5" d="M166.59,-166.93C190.58,-172.58 217.31,-178.44 242,-182.86 280.97,-189.84 322.65,-196.09 363.01,-201.53"/>
<polygon fill="black" stroke="black" points="362.58,-205 372.96,-202.86 363.51,-198.07 362.58,-205"/>
<text text-anchor="middle" x="215.5" y="-183.66" font-family="Times,serif" font-size="14.00">calls</text>
</g>
<!-- /cartpole_ui&#45;&gt;/hardware/reset -->
<g id="edge10" class="edge">
<title>/cartpole_ui&#45;&gt;/hardware/reset</title>
<path fill="none" stroke="black" stroke-dasharray="5,2" d="M181.2,-140.92C255.07,-135.2 361,-126.99 445.43,-120.45"/>
<polygon fill="black" stroke="black" points="445.92,-123.92 455.62,-119.66 445.37,-116.95 445.92,-123.92"/>
<text text-anchor="middle" x="215.5" y="-141.66" font-family="Times,serif" font-size="14.00">calls</text>
</g>
<!-- /rviz2 -->
<g id="node9" class="node">
<title>/rviz2</title>
<polygon fill="lightyellow" stroke="black" points="122,-222.86 59,-222.86 59,-184.86 122,-184.86 122,-222.86"/>
<text text-anchor="middle" x="90.5" y="-207.66" font-family="Times,serif" font-size="14.00">/rviz2</text>
<text text-anchor="middle" x="90.5" y="-192.66" font-family="Times,serif" font-size="14.00">(rviz2)</text>
</g>
</g>
</svg>
