<?xml version="1.0" encoding="UTF-8" standalone="no"?>
<!DOCTYPE svg PUBLIC "-//W3C//DTD SVG 1.1//EN"
 "http://www.w3.org/Graphics/SVG/1.1/DTD/svg11.dtd">
<!-- Generated by graphviz version 2.43.0 (0)
 -->
<!-- Title: ROS2Graph Pages: 1 -->
<svg width="1998pt" height="571pt"
 viewBox="0.00 0.00 1997.97 571.00" xmlns="http://www.w3.org/2000/svg" xmlns:xlink="http://www.w3.org/1999/xlink">
<g id="graph0" class="graph" transform="scale(1 1) rotate(0) translate(4 567)">
<title>ROS2Graph</title>
<polygon fill="white" stroke="transparent" points="-4,4 -4,-567 1993.97,-567 1993.97,4 -4,4"/>
<g id="clust1" class="cluster">
<title>cluster__cartpole_ui</title>
<polygon fill="lightgrey" stroke="black" points="1377.26,-248 1377.26,-325 1574.26,-325 1574.26,-248 1377.26,-248"/>
<text text-anchor="middle" x="1475.76" y="-309.8" font-family="Times,serif" font-size="14.00">/cartpole_ui</text>
</g>
<g id="clust2" class="cluster">
<title>cluster__control_cartpole_controller</title>
<polygon fill="lightgrey" stroke="black" points="16,-203 16,-470 1139.26,-470 1139.26,-203 16,-203"/>
<text text-anchor="middle" x="577.63" y="-454.8" font-family="Times,serif" font-size="14.00">/control/cartpole_controller</text>
</g>
<g id="clust3" class="cluster">
<title>cluster__hardware_robot_state_publisher</title>
<polygon fill="lightgrey" stroke="black" points="1343.26,-102 1343.26,-195 1981.97,-195 1981.97,-102 1343.26,-102"/>
<text text-anchor="middle" x="1662.62" y="-179.8" font-family="Times,serif" font-size="14.00">/hardware/robot_state_publisher</text>
</g>
<g id="clust4" class="cluster">
<title>cluster__hardware_cartpole_simulator</title>
<polygon fill="lightgrey" stroke="black" points="8,-8 8,-195 977.13,-195 977.13,-8 8,-8"/>
<text text-anchor="middle" x="492.57" y="-179.8" font-family="Times,serif" font-size="14.00">/hardware/cartpole_simulator</text>
</g>
<g id="clust5" class="cluster">
<title>cluster__rviz2</title>
<polygon fill="lightgrey" stroke="black" points="90,-478 90,-555 169,-555 169,-478 90,-478"/>
<text text-anchor="middle" x="129.5" y="-539.8" font-family="Times,serif" font-size="14.00">/rviz2</text>
</g>
<!-- /cartpole_ui -->
<g id="node1" class="node">
<title>/cartpole_ui</title>
<polygon fill="lightblue" stroke="black" points="1566.26,-294 1385.26,-294 1385.26,-256 1566.26,-256 1566.26,-294"/>
<text text-anchor="middle" x="1475.76" y="-278.8" font-family="Times,serif" font-size="14.00">/cartpole_ui</text>
<text text-anchor="middle" x="1475.76" y="-263.8" font-family="Times,serif" font-size="14.00">(breadcrumb_example)</text>
</g>
<!-- /control/cartpole_controller -->
<g id="node2" class="node">
<title>/control/cartpole_controller</title>
<polygon fill="lightblue" stroke="black" points="235,-317 24,-317 24,-279 235,-279 235,-317"/>
<text text-anchor="middle" x="129.5" y="-301.8" font-family="Times,serif" font-size="14.00">/control/cartpole_controller</text>
<text text-anchor="middle" x="129.5" y="-286.8" font-family="Times,serif" font-size="14.00">(breadcrumb_example)</text>
</g>
<!-- /hardware/request/force -->
<g id="node3" class="node">
<title>/hardware/request/force</title>
<ellipse fill="lightgreen" stroke="black" cx="798.13" cy="-238" rx="133.79" ry="26.74"/>
<text text-anchor="middle" x="798.13" y="-241.8" font-family="Times,serif" font-size="14.00">/hardware/request/force</text>
<text text-anchor="middle" x="798.13" y="-226.8" font-family="Times,serif" font-size="14.00">[std_msgs/msg/Float64]</text>
</g>
<!-- /control/cartpole_controller&#45;&gt;/hardware/request/force -->
<g id="edge5" class="edge">
<title>/control/cartpole_controller&#45;&gt;/hardware/request/force</title>
<path fill="none" stroke="black" d="M235.18,-285.68C243.91,-284.74 252.6,-283.83 261,-283 397.66,-269.41 554.2,-256.59 662.7,-248.13"/>
<polygon fill="black" stroke="black" points="663.02,-251.62 672.72,-247.35 662.48,-244.64 663.02,-251.62"/>
<text text-anchor="middle" x="354" y="-286.8" font-family="Times,serif" font-size="14.00">pub</text>
</g>
<!-- /control/enable -->
<g id="node4" class="node">
<title>/control/enable</title>
<polygon fill="lightyellow" stroke="black" points="798.13,-359 625.13,-321 798.13,-283 971.13,-321 798.13,-359"/>
<text text-anchor="middle" x="798.13" y="-324.8" font-family="Times,serif" font-size="14.00">/control/enable</text>
<text text-anchor="middle" x="798.13" y="-309.8" font-family="Times,serif" font-size="14.00">[std_srvs/srv/SetBool]</text>
</g>
<!-- /control/cartpole_controller&#45;&gt;/control/enable -->
<g id="edge8" class="edge">
<title>/control/cartpole_controller&#45;&gt;/control/enable</title>
<path fill="none" stroke="black" stroke-dasharray="5,2" d="M235.03,-301.61C343.22,-305.34 513.55,-311.22 638.38,-315.52"/>
<polygon fill="black" stroke="black" points="638.31,-319.02 648.42,-315.87 638.55,-312.03 638.31,-319.02"/>
<text text-anchor="middle" x="354" y="-311.8" font-family="Times,serif" font-size="14.00">provide</text>
</g>
<!-- /control/track_position -->
<g id="node5" class="node">
<title>/control/track_position</title>
<polygon fill="lightcoral" stroke="black" points="1131.39,-408 964.76,-439.05 631.5,-439.05 464.87,-408 631.5,-376.95 964.76,-376.95 1131.39,-408"/>
<text text-anchor="middle" x="798.13" y="-411.8" font-family="Times,serif" font-size="14.00">/control/track_position</text>
<text text-anchor="middle" x="798.13" y="-396.8" font-family="Times,serif" font-size="14.00">[breadcrumb_example_interfaces/action/TrackPosition]</text>
</g>
<!-- /control/cartpole_controller&#45;&gt;/control/track_position -->
<g id="edge12" class="edge">
<title>/control/cartpole_controller&#45;&gt;/control/track_position</title>
<path fill="none" stroke="black" stroke-dasharray="1,5" d="M215.04,-317.05C230.32,-320.42 246.13,-323.85 261,-327 351.48,-346.14 373.69,-353.35 465,-368 501.06,-373.79 539.44,-379.14 576.83,-383.93"/>
<polygon fill="black" stroke="black" points="576.47,-387.41 586.83,-385.2 577.35,-380.47 576.47,-387.41"/>
<text text-anchor="middle" x="354" y="-367.8" font-family="Times,serif" font-size="14.00">serve</text>
</g>
<!-- /hardware/cartpole_simulator -->
<g id="node8" class="node">
<title>/hardware/cartpole_simulator</title>
<polygon fill="lightblue" stroke="black" points="243,-156 16,-156 16,-118 243,-118 243,-156"/>
<text text-anchor="middle" x="129.5" y="-140.8" font-family="Times,serif" font-size="14.00">/hardware/cartpole_simulator</text>
<text text-anchor="middle" x="129.5" y="-125.8" font-family="Times,serif" font-size="14.00">(breadcrumb_example)</text>
</g>
<!-- /hardware/request/force&#45;&gt;/hardware/cartpole_simulator -->
<g id="edge6" class="edge">
<title>/hardware/request/force&#45;&gt;/hardware/cartpole_simulator</title>
<path fill="none" stroke="black" d="M654.6,-234.72C594.73,-229.93 525.17,-219.79 465,-199 456.14,-195.94 455.79,-191.25 447,-188 437.21,-184.38 330.23,-167.49 243.32,-154.13"/>
<polygon fill="black" stroke="black" points="654.66,-238.24 664.89,-235.5 655.18,-231.26 654.66,-238.24"/>
<text text-anchor="middle" x="354" y="-191.8" font-family="Times,serif" font-size="14.00">sub</text>
</g>
<!-- /control/enable&#45;&gt;/cartpole_ui -->
<g id="edge9" class="edge">
<title>/control/enable&#45;&gt;/cartpole_ui</title>
<path fill="none" stroke="black" stroke-dasharray="5,2" d="M940.94,-311.34C1074.89,-302.23 1271.7,-288.83 1385.16,-281.1"/>
<polygon fill="black" stroke="black" points="940.34,-307.88 930.6,-312.05 940.82,-314.86 940.34,-307.88"/>
<text text-anchor="middle" x="1241.26" y="-299.8" font-family="Times,serif" font-size="14.00">call</text>
</g>
<!-- /control/track_position&#45;&gt;/cartpole_ui -->
<g id="edge13" class="edge">
<title>/control/track_position&#45;&gt;/cartpole_ui</title>
<path fill="none" stroke="black" stroke-dasharray="1,5" d="M1029.37,-385.66C1066.26,-380.72 1103.92,-374.87 1139.26,-368 1227,-350.95 1247.14,-338.94 1333.26,-315 1357.61,-308.23 1384.29,-300.72 1407.85,-294.04"/>
<polygon fill="black" stroke="black" points="1028.44,-382.25 1018.98,-387.03 1029.35,-389.19 1028.44,-382.25"/>
<text text-anchor="middle" x="1241.26" y="-368.8" font-family="Times,serif" font-size="14.00">call</text>
</g>
<!-- /hardware/robot_state_publisher -->
<g id="node6" class="node">
<title>/hardware/robot_state_publisher</title>
<polygon fill="lightblue" stroke="black" points="1600.26,-156 1351.26,-156 1351.26,-118 1600.26,-118 1600.26,-156"/>
<text text-anchor="middle" x="1475.76" y="-140.8" font-family="Times,serif" font-size="14.00">/hardware/robot_state_publisher</text>
<text text-anchor="middle" x="1475.76" y="-125.8" font-family="Times,serif" font-size="14.00">(robot_state_publisher)</text>
</g>
<!-- /hardware/robot_description -->
<g id="node7" class="node">
<title>/hardware/robot_description</title>
<ellipse fill="lightgreen" stroke="black" cx="1819.12" cy="-137" rx="154.71" ry="26.74"/>
<text text-anchor="middle" x="1819.12" y="-140.8" font-family="Times,serif" font-size="14.00">/hardware/robot_description</text>
<text text-anchor="middle" x="1819.12" y="-125.8" font-family="Times,serif" font-size="14.00">[std_msgs/msg/String]</text>
</g>
<!-- /hardware/robot_state_publisher&#45;&gt;/hardware/robot_description -->
<g id="edge7" class="edge">
<title>/hardware/robot_state_publisher&#45;&gt;/hardware/robot_description</title>
<path fill="none" stroke="black" d="M1600.48,-137C1617.95,-137 1636.13,-137 1654.2,-137"/>
<polygon fill="black" stroke="black" points="1654.23,-140.5 1664.23,-137 1654.23,-133.5 1654.23,-140.5"/>
<text text-anchor="middle" x="1632.26" y="-140.8" font-family="Times,serif" font-size="14.00">pub</text>
</g>
<!-- /hardware/joint_states -->
<g id="node9" class="node">
<title>/hardware/joint_states</title>
<ellipse fill="lightgreen" stroke="black" cx="798.13" cy="-137" rx="161.85" ry="26.74"/>
<text text-anchor="middle" x="798.13" y="-140.8" font-family="Times,serif" font-size="14.00">/hardware/joint_states</text>
<text text-anchor="middle" x="798.13" y="-125.8" font-family="Times,serif" font-size="14.00">[sensor_msgs/msg/JointState]</text>
</g>
<!-- /hardware/cartpole_simulator&#45;&gt;/hardware/joint_states -->
<g id="edge1" class="edge">
<title>/hardware/cartpole_simulator&#45;&gt;/hardware/joint_states</title>
<path fill="none" stroke="orange" stroke-width="2" d="M243.21,-137C348.02,-137 505.66,-137 626,-137"/>
<polygon fill="orange" stroke="orange" stroke-width="2" points="626.06,-140.5 636.06,-137 626.06,-133.5 626.06,-140.5"/>
<text text-anchor="middle" x="354" y="-140.8" font-family="Times,serif" font-size="14.00">pub INCOMPATIBLE_QOS</text>
</g>
<!-- /hardware/reset -->
<g id="node10" class="node">
<title>/hardware/reset</title>
<polygon fill="lightyellow" stroke="black" points="798.13,-92 627.13,-54 798.13,-16 969.13,-54 798.13,-92"/>
<text text-anchor="middle" x="798.13" y="-57.8" font-family="Times,serif" font-size="14.00">/hardware/reset</text>
<text text-anchor="middle" x="798.13" y="-42.8" font-family="Times,serif" font-size="14.00">[std_srvs/srv/Trigger]</text>
</g>
<!-- /hardware/cartpole_simulator&#45;&gt;/hardware/reset -->
<g id="edge10" class="edge">
<title>/hardware/cartpole_simulator&#45;&gt;/hardware/reset</title>
<path fill="none" stroke="black" stroke-dasharray="5,2" d="M243.3,-120.39C249.28,-119.57 255.21,-118.77 261,-118 402.37,-99.27 565.04,-80.2 673.78,-67.81"/>
<polygon fill="black" stroke="black" points="674.26,-71.28 683.8,-66.67 673.47,-64.32 674.26,-71.28"/>
<text text-anchor="middle" x="354" y="-121.8" font-family="Times,serif" font-size="14.00">provide</text>
</g>
<!-- /hardware/joint_states&#45;&gt;/cartpole_ui -->
<g id="edge2" class="edge">
<title>/hardware/joint_states&#45;&gt;/cartpole_ui</title>
<path fill="none" stroke="orange" stroke-width="2" d="M921.44,-158C986.29,-169.46 1067.24,-184.29 1139.26,-199 1227.03,-216.93 1327.13,-239.94 1394.98,-255.92"/>
<polygon fill="orange" stroke="orange" stroke-width="2" points="922.03,-154.55 911.58,-156.26 920.82,-161.44 922.03,-154.55"/>
<text text-anchor="middle" x="1241.26" y="-243.8" font-family="Times,serif" font-size="14.00">sub INCOMPATIBLE_QOS</text>
</g>
<!-- /hardware/joint_states&#45;&gt;/control/cartpole_controller -->
<g id="edge3" class="edge">
<title>/hardware/joint_states&#45;&gt;/control/cartpole_controller</title>
<path fill="none" stroke="black" d="M675.81,-158.25C612.78,-169.64 534.6,-184.32 465,-199 453.61,-201.4 272.12,-243.54 261,-247 231.74,-256.11 199.67,-268.61 174.64,-278.95"/>
<polygon fill="black" stroke="black" points="676.57,-161.67 685.79,-156.45 675.32,-154.78 676.57,-161.67"/>
<text text-anchor="middle" x="354" y="-250.8" font-family="Times,serif" font-size="14.00">sub</text>
</g>
<!-- /hardware/joint_states&#45;&gt;/hardware/robot_state_publisher -->
<g id="edge4" class="edge">
<title>/hardware/joint_states&#45;&gt;/hardware/robot_state_publisher</title>
<path fill="none" stroke="black" d="M970.39,-137C1089.12,-137 1244.47,-137 1351.21,-137"/>
<polygon fill="black" stroke="black" points="970.1,-133.5 960.1,-137 970.1,-140.5 970.1,-133.5"/>
<text text-anchor="middle" x="1241.26" y="-140.8" font-family="Times,serif" font-size="14.00">sub</text>
</g>
<!-- /hardware/reset&#45;&gt;/cartpole_ui -->
<g id="edge11" class="edge">
<title>/hardware/reset&#45;&gt;/cartpole_ui</title>
<path fill="none" stroke="black" stroke-dasharray="5,2" d="M895.55,-33.78C1015.66,-14.79 1218.96,-4.11 1333.26,-118 1358.96,-143.6 1323.24,-168.75 1343.26,-199 1360.8,-225.49 1390.96,-243.89 1417.98,-255.93"/>
<polygon fill="black" stroke="black" points="894.93,-30.33 885.62,-35.4 896.06,-37.24 894.93,-30.33"/>
<text text-anchor="middle" x="1241.26" y="-121.8" font-family="Times,serif" font-size="14.00">call</text>
</g>
<!-- /rviz2 -->
<g id="node11" class="node">
<title>/rviz2</title>
<polygon fill="lightblue" stroke="black" points="161,-524 98,-524 98,-486 161,-486 161,-524"/>
<text text-anchor="middle" x="129.5" y="-508.8" font-family="Times,serif" font-size="14.00">/rviz2</text>
<text text-anchor="middle" x="129.5" y="-493.8" font-family="Times,serif" font-size="14.00">(rviz2)</text>
</g>
</g>
</svg>
