<?xml version="1.0" encoding="UTF-8" standalone="no"?>
<!DOCTYPE svg PUBLIC "-//W3C//DTD SVG 1.1//EN"
 "http://www.w3.org/Graphics/SVG/1.1/DTD/svg11.dtd">
<!-- Generated by graphviz version 2.43.0 (0)
 -->
<!-- Title: ROS2TopLevel Pages: 1 -->
<svg width="1398pt" height="524pt"
 viewBox="0.00 0.00 1398.26 524.00" xmlns="http://www.w3.org/2000/svg" xmlns:xlink="http://www.w3.org/1999/xlink">
<g id="graph0" class="graph" transform="scale(1 1) rotate(0) translate(4 520)">
<title>ROS2TopLevel</title>
<polygon fill="white" stroke="transparent" points="-4,4 -4,-520 1394.26,-520 1394.26,4 -4,4"/>
<g id="clust1" class="cluster">
<title>cluster_control</title>
<polygon fill="lightgrey" stroke="black" points="13,-203 13,-470 997.26,-470 997.26,-203 13,-203"/>
<text text-anchor="middle" x="505.13" y="-454.8" font-family="Times,serif" font-size="14.00">control</text>
</g>
<g id="clust2" class="cluster">
<title>cluster_hardware</title>
<polygon fill="lightgrey" stroke="black" points="8,-8 8,-195 835.13,-195 835.13,-8 8,-8"/>
<text text-anchor="middle" x="421.57" y="-179.8" font-family="Times,serif" font-size="14.00">hardware</text>
</g>
<!-- control -->
<g id="node1" class="node">
<title>control</title>
<polygon fill="lightblue" stroke="black" points="96,-311 21,-311 21,-273 96,-273 96,-311"/>
<text text-anchor="middle" x="58.5" y="-295.8" font-family="Times,serif" font-size="14.00">control</text>
<text text-anchor="middle" x="58.5" y="-280.8" font-family="Times,serif" font-size="14.00">(1 node)</text>
</g>
<!-- /hardware/request/force -->
<g id="node2" class="node">
<title>/hardware/request/force</title>
<ellipse fill="lightgreen" stroke="black" cx="656.13" cy="-238" rx="133.79" ry="26.74"/>
<text text-anchor="middle" x="656.13" y="-241.8" font-family="Times,serif" font-size="14.00">/hardware/request/force</text>
<text text-anchor="middle" x="656.13" y="-226.8" font-family="Times,serif" font-size="14.00">[std_msgs/msg/Float64]</text>
</g>
<!-- control&#45;&gt;/hardware/request/force -->
<g id="edge5" class="edge">
<title>control&#45;&gt;/hardware/request/force</title>
<path fill="none" stroke="black" d="M96.04,-280.26C103.56,-278.21 111.49,-276.32 119,-275 251.11,-251.83 403.92,-243.02 512.51,-239.74"/>
<polygon fill="black" stroke="black" points="512.66,-243.24 522.55,-239.45 512.46,-236.24 512.66,-243.24"/>
<text text-anchor="middle" x="212" y="-278.8" font-family="Times,serif" font-size="14.00">pub</text>
</g>
<!-- /control/enable -->
<g id="node3" class="node">
<title>/control/enable</title>
<polygon fill="lightyellow" stroke="black" points="656.13,-439 483.13,-401 656.13,-363 829.13,-401 656.13,-439"/>
<text text-anchor="middle" x="656.13" y="-404.8" font-family="Times,serif" font-size="14.00">/control/enable</text>
<text text-anchor="middle" x="656.13" y="-389.8" font-family="Times,serif" font-size="14.00">[std_srvs/srv/SetBool]</text>
</g>
<!-- control&#45;&gt;/control/enable -->
<g id="edge7" class="edge">
<title>control&#45;&gt;/control/enable</title>
<path fill="none" stroke="black" stroke-dasharray="5,2" d="M96.01,-311.09C103.47,-314.45 111.37,-317.62 119,-320 248.84,-360.52 402.9,-381.1 512.48,-391.35"/>
<polygon fill="black" stroke="black" points="512.34,-394.85 522.61,-392.28 512.98,-387.88 512.34,-394.85"/>
<text text-anchor="middle" x="212" y="-364.8" font-family="Times,serif" font-size="14.00">provide</text>
</g>
<!-- /control/track_position -->
<g id="node4" class="node">
<title>/control/track_position</title>
<polygon fill="lightcoral" stroke="black" points="989.39,-314 822.76,-345.05 489.5,-345.05 322.87,-314 489.5,-282.95 822.76,-282.95 989.39,-314"/>
<text text-anchor="middle" x="656.13" y="-317.8" font-family="Times,serif" font-size="14.00">/control/track_position</text>
<text text-anchor="middle" x="656.13" y="-302.8" font-family="Times,serif" font-size="14.00">[breadcrumb_example_interfaces/action/TrackPosition]</text>
</g>
<!-- control&#45;&gt;/control/track_position -->
<g id="edge11" class="edge">
<title>control&#45;&gt;/control/track_position</title>
<path fill="none" stroke="black" stroke-dasharray="1,5" d="M96.31,-293.36C151.4,-295.39 260.33,-299.42 367.5,-303.38"/>
<polygon fill="black" stroke="black" points="367.41,-306.88 377.53,-303.75 367.67,-299.88 367.41,-306.88"/>
<text text-anchor="middle" x="212" y="-304.8" font-family="Times,serif" font-size="14.00">serve</text>
</g>
<!-- hardware -->
<g id="node5" class="node">
<title>hardware</title>
<polygon fill="lightblue" stroke="black" points="101,-138 16,-138 16,-100 101,-100 101,-138"/>
<text text-anchor="middle" x="58.5" y="-122.8" font-family="Times,serif" font-size="14.00">hardware</text>
<text text-anchor="middle" x="58.5" y="-107.8" font-family="Times,serif" font-size="14.00">(2 nodes)</text>
</g>
<!-- /hardware/request/force&#45;&gt;hardware -->
<g id="edge6" class="edge">
<title>/hardware/request/force&#45;&gt;hardware</title>
<path fill="none" stroke="black" d="M522.49,-237.71C460.16,-233.77 385.9,-223.48 323,-199 313.8,-195.42 314.02,-190.01 305,-186 227.75,-151.62 199.29,-172.51 119,-146 115.29,-144.77 111.5,-143.39 107.72,-141.91"/>
<polygon fill="black" stroke="black" points="108.97,-138.64 98.39,-138.08 106.31,-145.12 108.97,-138.64"/>
<text text-anchor="middle" x="212" y="-189.8" font-family="Times,serif" font-size="14.00">sub</text>
</g>
<!-- /cartpole_ui -->
<g id="node8" class="node">
<title>/cartpole_ui</title>
<polygon fill="lightyellow" stroke="black" points="1390.26,-239 1209.26,-239 1209.26,-201 1390.26,-201 1390.26,-239"/>
<text text-anchor="middle" x="1299.76" y="-223.8" font-family="Times,serif" font-size="14.00">/cartpole_ui</text>
<text text-anchor="middle" x="1299.76" y="-208.8" font-family="Times,serif" font-size="14.00">(breadcrumb_example)</text>
</g>
<!-- /control/enable&#45;&gt;/cartpole_ui -->
<g id="edge8" class="edge">
<title>/control/enable&#45;&gt;/cartpole_ui</title>
<path fill="none" stroke="black" stroke-dasharray="5,2" d="M786.82,-391.68C898.61,-379.61 1061.93,-352.14 1191.26,-290 1217.26,-277.51 1244.46,-259.74 1265,-245.23"/>
<polygon fill="black" stroke="black" points="1267.28,-247.91 1273.37,-239.24 1263.2,-242.22 1267.28,-247.91"/>
<text text-anchor="middle" x="1099.26" y="-356.8" font-family="Times,serif" font-size="14.00">call</text>
</g>
<!-- /control/track_position&#45;&gt;/cartpole_ui -->
<g id="edge12" class="edge">
<title>/control/track_position&#45;&gt;/cartpole_ui</title>
<path fill="none" stroke="black" stroke-dasharray="1,5" d="M867.86,-291.22C910.74,-286.02 955.5,-280.19 997.26,-274 1064.76,-264 1140.35,-250.45 1198.96,-239.43"/>
<polygon fill="black" stroke="black" points="1199.77,-242.84 1208.95,-237.55 1198.48,-235.96 1199.77,-242.84"/>
<text text-anchor="middle" x="1099.26" y="-274.8" font-family="Times,serif" font-size="14.00">call</text>
</g>
<!-- /hardware/joint_states -->
<g id="node6" class="node">
<title>/hardware/joint_states</title>
<ellipse fill="lightgreen" stroke="black" cx="656.13" cy="-137" rx="161.85" ry="26.74"/>
<text text-anchor="middle" x="656.13" y="-140.8" font-family="Times,serif" font-size="14.00">/hardware/joint_states</text>
<text text-anchor="middle" x="656.13" y="-125.8" font-family="Times,serif" font-size="14.00">[sensor_msgs/msg/JointState]</text>
</g>
<!-- hardware&#45;&gt;/hardware/joint_states -->
<g id="edge1" class="edge">
<title>hardware&#45;&gt;/hardware/joint_states</title>
<path fill="none" stroke="orange" stroke-width="2" d="M101.08,-104.74C107.03,-103.2 113.13,-101.87 119,-101 200.78,-88.9 222.44,-96.77 305,-101 375.09,-104.59 452.77,-112.21 517.11,-119.51"/>
<polygon fill="orange" stroke="orange" stroke-width="2" points="516.99,-123.02 527.32,-120.68 517.79,-116.07 516.99,-123.02"/>
<text text-anchor="middle" x="212" y="-104.8" font-family="Times,serif" font-size="14.00">pub INCOMPATIBLE_QOS</text>
</g>
<!-- /hardware/reset -->
<g id="node7" class="node">
<title>/hardware/reset</title>
<polygon fill="lightyellow" stroke="black" points="656.13,-92 485.13,-54 656.13,-16 827.13,-54 656.13,-92"/>
<text text-anchor="middle" x="656.13" y="-57.8" font-family="Times,serif" font-size="14.00">/hardware/reset</text>
<text text-anchor="middle" x="656.13" y="-42.8" font-family="Times,serif" font-size="14.00">[std_srvs/srv/Trigger]</text>
</g>
<!-- hardware&#45;&gt;/hardware/reset -->
<g id="edge9" class="edge">
<title>hardware&#45;&gt;/hardware/reset</title>
<path fill="none" stroke="black" stroke-dasharray="5,2" d="M79.53,-99.95C90.34,-90.93 104.43,-81.05 119,-76 256.01,-28.55 424.59,-30.67 535.71,-39.62"/>
<polygon fill="black" stroke="black" points="535.69,-43.13 545.95,-40.47 536.28,-36.15 535.69,-43.13"/>
<text text-anchor="middle" x="212" y="-79.8" font-family="Times,serif" font-size="14.00">provide</text>
</g>
<!-- /hardware/joint_states&#45;&gt;control -->
<g id="edge3" class="edge">
<title>/hardware/joint_states&#45;&gt;control</title>
<path fill="none" stroke="black" d="M547.53,-156.97C478.3,-169.74 386.38,-186.56 305,-201 222.41,-215.65 193.57,-194.58 119,-233 104.08,-240.69 90.52,-253.43 80.13,-265.11"/>
<polygon fill="black" stroke="black" points="77.28,-263.06 73.46,-272.95 82.61,-267.6 77.28,-263.06"/>
<text text-anchor="middle" x="212" y="-236.8" font-family="Times,serif" font-size="14.00">sub</text>
</g>
<!-- /hardware/joint_states&#45;&gt;hardware -->
<g id="edge4" class="edge">
<title>/hardware/joint_states&#45;&gt;hardware</title>
<path fill="none" stroke="orange" stroke-width="2" d="M496.71,-132.21C368.82,-128.35 196.65,-123.14 111.57,-120.57"/>
<polygon fill="orange" stroke="orange" stroke-width="2" points="111.48,-117.07 101.38,-120.27 111.27,-124.07 111.48,-117.07"/>
<text text-anchor="middle" x="212" y="-130.8" font-family="Times,serif" font-size="14.00">sub INCOMPATIBLE_QOS</text>
</g>
<!-- /hardware/joint_states&#45;&gt;/cartpole_ui -->
<g id="edge2" class="edge">
<title>/hardware/joint_states&#45;&gt;/cartpole_ui</title>
<path fill="none" stroke="orange" stroke-width="2" d="M784.28,-153.45C906.1,-169.21 1087.45,-192.67 1199.13,-207.11"/>
<polygon fill="orange" stroke="orange" stroke-width="2" points="1198.68,-210.58 1209.05,-208.39 1199.58,-203.64 1198.68,-210.58"/>
<text text-anchor="middle" x="1099.26" y="-209.8" font-family="Times,serif" font-size="14.00">sub INCOMPATIBLE_QOS</text>
</g>
<!-- /hardware/reset&#45;&gt;/cartpole_ui -->
<g id="edge10" class="edge">
<title>/hardware/reset&#45;&gt;/cartpole_ui</title>
<path fill="none" stroke="black" stroke-dasharray="5,2" d="M776.52,-65.27C842.17,-72.78 924.78,-84.36 997.26,-101 1085.62,-121.28 1107.66,-128.94 1191.26,-164 1213.37,-173.27 1237.1,-185.39 1256.62,-195.98"/>
<polygon fill="black" stroke="black" points="1255.11,-199.14 1265.56,-200.87 1258.47,-193 1255.11,-199.14"/>
<text text-anchor="middle" x="1099.26" y="-167.8" font-family="Times,serif" font-size="14.00">call</text>
</g>
<!-- /rviz2 -->
<g id="node9" class="node">
<title>/rviz2</title>
<polygon fill="lightyellow" stroke="black" points="90,-516 27,-516 27,-478 90,-478 90,-516"/>
<text text-anchor="middle" x="58.5" y="-500.8" font-family="Times,serif" font-size="14.00">/rviz2</text>
<text text-anchor="middle" x="58.5" y="-485.8" font-family="Times,serif" font-size="14.00">(rviz2)</text>
</g>
</g>
</svg>
