<?xml version="1.0" encoding="UTF-8" standalone="no"?>
<!DOCTYPE svg PUBLIC "-//W3C//DTD SVG 1.1//EN"
 "http://www.w3.org/Graphics/SVG/1.1/DTD/svg11.dtd">
<!-- Generated by graphviz version 2.43.0 (0)
 -->
<!-- Title: ROS2TopLevel Pages: 1 -->
<svg width="1109pt" height="524pt"
 viewBox="0.00 0.00 1109.26 524.00" xmlns="http://www.w3.org/2000/svg" xmlns:xlink="http://www.w3.org/1999/xlink">
<g id="graph0" class="graph" transform="scale(1 1) rotate(0) translate(4 520)">
<title>ROS2TopLevel</title>
<polygon fill="white" stroke="transparent" points="-4,4 -4,-520 1105.26,-520 1105.26,4 -4,4"/>
<g id="clust1" class="cluster">
<title>cluster_control</title>
<polygon fill="lightgrey" stroke="black" points="13,-203 13,-470 866.26,-470 866.26,-203 13,-203"/>
<text text-anchor="middle" x="439.63" y="-454.8" font-family="Times,serif" font-size="14.00">control</text>
</g>
<g id="clust2" class="cluster">
<title>cluster_hardware</title>
<polygon fill="lightgrey" stroke="black" points="8,-8 8,-195 704.13,-195 704.13,-8 8,-8"/>
<text text-anchor="middle" x="356.07" y="-179.8" font-family="Times,serif" font-size="14.00">hardware</text>
</g>
<!-- control -->
<g id="node1" class="node">
<title>control</title>
<polygon fill="lightblue" stroke="black" points="96,-311 21,-311 21,-273 96,-273 96,-311"/>
<text text-anchor="middle" x="58.5" y="-295.8" font-family="Times,serif" font-size="14.00">control</text>
<text text-anchor="middle" x="58.5" y="-280.8" font-family="Times,serif" font-size="14.00">(1 node)</text>
</g>
<!-- /hardware/request/force -->
<g id="node2" class="node">
<title>/hardware/request/force</title>
<ellipse fill="lightgreen" stroke="black" cx="525.13" cy="-238" rx="133.79" ry="26.74"/>
<text text-anchor="middle" x="525.13" y="-241.8" font-family="Times,serif" font-size="14.00">/hardware/request/force</text>
<text text-anchor="middle" x="525.13" y="-226.8" font-family="Times,serif" font-size="14.00">[std_msgs/msg/Float64]</text>
</g>
<!-- control&#45;&gt;/hardware/request/force -->
<g id="edge5" class="edge">
<title>control&#45;&gt;/hardware/request/force</title>
<path fill="none" stroke="black" d="M96.1,-281.12C103.62,-279.18 111.53,-277.35 119,-276 206.66,-260.22 306.25,-250.76 384.76,-245.23"/>
<polygon fill="black" stroke="black" points="385.46,-248.69 395.2,-244.51 384.98,-241.71 385.46,-248.69"/>
<text text-anchor="middle" x="146.5" y="-279.8" font-family="Times,serif" font-size="14.00">pub</text>
</g>
<!-- /control/enable -->
<g id="node3" class="node">
<title>/control/enable</title>
<polygon fill="lightyellow" stroke="black" points="525.13,-439 352.13,-401 525.13,-363 698.13,-401 525.13,-439"/>
<text text-anchor="middle" x="525.13" y="-404.8" font-family="Times,serif" font-size="14.00">/control/enable</text>
<text text-anchor="middle" x="525.13" y="-389.8" font-family="Times,serif" font-size="14.00">[std_srvs/srv/SetBool]</text>
</g>
<!-- control&#45;&gt;/control/enable -->
<g id="edge7" class="edge">
<title>control&#45;&gt;/control/enable</title>
<path fill="none" stroke="black" stroke-dasharray="5,2" d="M92.99,-311.08C119.14,-325.13 156.82,-343.54 192,-354 253.86,-372.4 324.41,-383.68 384.53,-390.55"/>
<polygon fill="black" stroke="black" points="384.15,-394.03 394.47,-391.66 384.92,-387.07 384.15,-394.03"/>
<text text-anchor="middle" x="146.5" y="-350.8" font-family="Times,serif" font-size="14.00">provide</text>
</g>
<!-- /control/track_position -->
<g id="node4" class="node">
<title>/control/track_position</title>
<polygon fill="lightcoral" stroke="black" points="858.39,-314 691.76,-345.05 358.5,-345.05 191.87,-314 358.5,-282.95 691.76,-282.95 858.39,-314"/>
<text text-anchor="middle" x="525.13" y="-317.8" font-family="Times,serif" font-size="14.00">/control/track_position</text>
<text text-anchor="middle" x="525.13" y="-302.8" font-family="Times,serif" font-size="14.00">[breadcrumb_example_interfaces/action/TrackPosition]</text>
</g>
<!-- control&#45;&gt;/control/track_position -->
<g id="edge11" class="edge">
<title>control&#45;&gt;/control/track_position</title>
<path fill="none" stroke="black" stroke-dasharray="1,5" d="M96.35,-293.74C131.57,-295.41 188.17,-298.09 248.81,-300.96"/>
<polygon fill="black" stroke="black" points="248.82,-304.47 258.98,-301.45 249.15,-297.48 248.82,-304.47"/>
<text text-anchor="middle" x="146.5" y="-300.8" font-family="Times,serif" font-size="14.00">serve</text>
</g>
<!-- hardware -->
<g id="node5" class="node">
<title>hardware</title>
<polygon fill="lightblue" stroke="black" points="101,-138 16,-138 16,-100 101,-100 101,-138"/>
<text text-anchor="middle" x="58.5" y="-122.8" font-family="Times,serif" font-size="14.00">hardware</text>
<text text-anchor="middle" x="58.5" y="-107.8" font-family="Times,serif" font-size="14.00">(2 nodes)</text>
</g>
<!-- /hardware/request/force&#45;&gt;hardware -->
<g id="edge6" class="edge">
<title>/hardware/request/force&#45;&gt;hardware</title>
<path fill="none" stroke="black" d="M381.16,-237C321.07,-232.6 251.46,-222.14 192,-199 182.8,-195.42 182.27,-191.39 174,-186 147.76,-168.9 117.08,-151.06 94.09,-138.09"/>
<polygon fill="black" stroke="black" points="381.28,-240.52 391.49,-237.71 381.75,-233.54 381.28,-240.52"/>
<text text-anchor="middle" x="146.5" y="-189.8" font-family="Times,serif" font-size="14.00">sub</text>
</g>
<!-- /cartpole_ui -->
<g id="node8" class="node">
<title>/cartpole_ui</title>
<polygon fill="lightyellow" stroke="black" points="1101.26,-239 920.26,-239 920.26,-201 1101.26,-201 1101.26,-239"/>
<text text-anchor="middle" x="1010.76" y="-223.8" font-family="Times,serif" font-size="14.00">/cartpole_ui</text>
<text text-anchor="middle" x="1010.76" y="-208.8" font-family="Times,serif" font-size="14.00">(breadcrumb_example)</text>
</g>
<!-- /control/enable&#45;&gt;/cartpole_ui -->
<g id="edge8" class="edge">
<title>/control/enable&#45;&gt;/cartpole_ui</title>
<path fill="none" stroke="black" stroke-dasharray="5,2" d="M698.11,-397.69C753.86,-391.35 814.6,-378.59 866.26,-354 922.89,-327.04 972.25,-269.61 995.53,-239.44"/>
<polygon fill="black" stroke="black" points="697.7,-394.22 688.13,-398.76 698.44,-401.17 697.7,-394.22"/>
<text text-anchor="middle" x="889.26" y="-349.8" font-family="Times,serif" font-size="14.00">call</text>
</g>
<!-- /control/track_position&#45;&gt;/cartpole_ui -->
<g id="edge12" class="edge">
<title>/control/track_position&#45;&gt;/cartpole_ui</title>
<path fill="none" stroke="black" stroke-dasharray="1,5" d="M765.36,-293.3C799.46,-288.2 833.92,-281.86 866.26,-274 901.18,-265.51 939.18,-250.96 967.29,-239.1"/>
<polygon fill="black" stroke="black" points="764.66,-289.87 755.27,-294.78 765.67,-296.79 764.66,-289.87"/>
<text text-anchor="middle" x="889.26" y="-273.8" font-family="Times,serif" font-size="14.00">call</text>
</g>
<!-- /hardware/joint_states -->
<g id="node6" class="node">
<title>/hardware/joint_states</title>
<ellipse fill="lightgreen" stroke="black" cx="525.13" cy="-137" rx="161.85" ry="26.74"/>
<text text-anchor="middle" x="525.13" y="-140.8" font-family="Times,serif" font-size="14.00">/hardware/joint_states</text>
<text text-anchor="middle" x="525.13" y="-125.8" font-family="Times,serif" font-size="14.00">[sensor_msgs/msg/JointState]</text>
</g>
<!-- hardware&#45;&gt;/hardware/joint_states -->
<g id="edge1" class="edge">
<title>hardware&#45;&gt;/hardware/joint_states</title>
<path fill="none" stroke="orange" stroke-width="2" d="M101.08,-104.74C107.03,-103.2 113.13,-101.87 119,-101 143.18,-97.42 149.59,-99.75 174,-101 244.09,-104.59 321.77,-112.21 386.11,-119.51"/>
<polygon fill="orange" stroke="orange" stroke-width="2" points="385.99,-123.02 396.32,-120.68 386.79,-116.07 385.99,-123.02"/>
<text text-anchor="middle" x="146.5" y="-104.8" font-family="Times,serif" font-size="14.00">pub</text>
</g>
<!-- /hardware/reset -->
<g id="node7" class="node">
<title>/hardware/reset</title>
<polygon fill="lightyellow" stroke="black" points="525.13,-92 354.13,-54 525.13,-16 696.13,-54 525.13,-92"/>
<text text-anchor="middle" x="525.13" y="-57.8" font-family="Times,serif" font-size="14.00">/hardware/reset</text>
<text text-anchor="middle" x="525.13" y="-42.8" font-family="Times,serif" font-size="14.00">[std_srvs/srv/Trigger]</text>
</g>
<!-- hardware&#45;&gt;/hardware/reset -->
<g id="edge9" class="edge">
<title>hardware&#45;&gt;/hardware/reset</title>
<path fill="none" stroke="black" stroke-dasharray="5,2" d="M83.27,-99.93C93.64,-92.68 106.31,-85.17 119,-81 201.84,-53.78 299.21,-46.56 377.73,-46.37"/>
<polygon fill="black" stroke="black" points="378.18,-49.87 388.19,-46.39 378.19,-42.87 378.18,-49.87"/>
<text text-anchor="middle" x="146.5" y="-84.8" font-family="Times,serif" font-size="14.00">provide</text>
</g>
<!-- /hardware/joint_states&#45;&gt;control -->
<g id="edge3" class="edge">
<title>/hardware/joint_states&#45;&gt;control</title>
<path fill="none" stroke="black" d="M373.97,-151.85C315.64,-160.98 249.23,-175.62 192,-199 148.29,-216.86 104.89,-251.33 80.21,-272.92"/>
<polygon fill="black" stroke="black" points="374.64,-155.29 384,-150.32 373.59,-148.36 374.64,-155.29"/>
<text text-anchor="middle" x="146.5" y="-244.8" font-family="Times,serif" font-size="14.00">sub</text>
</g>
<!-- /hardware/joint_states&#45;&gt;hardware -->
<g id="edge4" class="edge">
<title>/hardware/joint_states&#45;&gt;hardware</title>
<path fill="none" stroke="black" d="M357.11,-130.53C265.23,-126.97 158.52,-122.84 101.14,-120.61"/>
<polygon fill="black" stroke="black" points="357.25,-134.04 367.38,-130.93 357.52,-127.04 357.25,-134.04"/>
<text text-anchor="middle" x="146.5" y="-127.8" font-family="Times,serif" font-size="14.00">sub</text>
</g>
<!-- /hardware/joint_states&#45;&gt;/cartpole_ui -->
<g id="edge2" class="edge">
<title>/hardware/joint_states&#45;&gt;/cartpole_ui</title>
<path fill="none" stroke="orange" stroke-width="2" d="M648.22,-157.95C732.79,-172.47 843.48,-191.46 920,-204.59"/>
<polygon fill="orange" stroke="orange" stroke-width="2" points="648.75,-154.49 638.3,-156.25 647.56,-161.39 648.75,-154.49"/>
<text text-anchor="middle" x="889.26" y="-202.8" font-family="Times,serif" font-size="14.00">sub</text>
</g>
<!-- /hardware/reset&#45;&gt;/cartpole_ui -->
<g id="edge10" class="edge">
<title>/hardware/reset&#45;&gt;/cartpole_ui</title>
<path fill="none" stroke="black" stroke-dasharray="5,2" d="M691.56,-58.46C748.78,-64.73 812.09,-77.15 866.26,-101 919.58,-124.48 968.86,-173.77 993.43,-200.97"/>
<polygon fill="black" stroke="black" points="691.63,-54.95 681.32,-57.39 690.91,-61.91 691.63,-54.95"/>
<text text-anchor="middle" x="889.26" y="-124.8" font-family="Times,serif" font-size="14.00">call</text>
</g>
<!-- /rviz2 -->
<g id="node9" class="node">
<title>/rviz2</title>
<polygon fill="lightyellow" stroke="black" points="90,-516 27,-516 27,-478 90,-478 90,-516"/>
<text text-anchor="middle" x="58.5" y="-500.8" font-family="Times,serif" font-size="14.00">/rviz2</text>
<text text-anchor="middle" x="58.5" y="-485.8" font-family="Times,serif" font-size="14.00">(rviz2)</text>
</g>
</g>
</svg>
