<?xml version="1.0" encoding="UTF-8" standalone="no"?>
<!DOCTYPE svg PUBLIC "-//W3C//DTD SVG 1.1//EN"
 "http://www.w3.org/Graphics/SVG/1.1/DTD/svg11.dtd">
<!-- Generated by graphviz version 2.43.0 (0)
 -->
<!-- Title: ROS2Group_hardware Pages: 1 -->
<svg width="1339pt" height="234pt"
 viewBox="0.00 0.00 1338.78 233.87" xmlns="http://www.w3.org/2000/svg" xmlns:xlink="http://www.w3.org/1999/xlink">
<g id="graph0" class="graph" transform="scale(1 1) rotate(0) translate(4 229.87)">
<title>ROS2Group_hardware</title>
<polygon fill="white" stroke="transparent" points="-4,4 -4,-229.87 1334.78,-229.87 1334.78,4 -4,4"/>
<text text-anchor="middle" x="665.39" y="-210.67" font-family="Times,serif" font-size="14.00">Group: hardware</text>
<g id="clust1" class="cluster">
<title>cluster_hardware</title>
<polygon fill="lightgrey" stroke="black" points="470,-61.87 470,-194.87 1322.78,-194.87 1322.78,-61.87 470,-61.87"/>
<text text-anchor="middle" x="896.39" y="-179.67" font-family="Times,serif" font-size="14.00">hardware</text>
</g>
<!-- /hardware/robot_state_publisher -->
<g id="node1" class="node">
<title>/hardware/robot_state_publisher</title>
<polygon fill="lightblue" stroke="black" points="727,-163.87 478,-163.87 478,-125.87 727,-125.87 727,-163.87"/>
<text text-anchor="middle" x="602.5" y="-148.67" font-family="Times,serif" font-size="14.00">/hardware/robot_state_publisher</text>
<text text-anchor="middle" x="602.5" y="-133.67" font-family="Times,serif" font-size="14.00">(robot_state_publisher)</text>
</g>
<!-- /hardware/robot_description -->
<g id="node3" class="node">
<title>/hardware/robot_description</title>
<ellipse fill="lightgreen" stroke="black" cx="1159.93" cy="-136.87" rx="154.71" ry="26.74"/>
<text text-anchor="middle" x="1159.93" y="-140.67" font-family="Times,serif" font-size="14.00">/hardware/robot_description</text>
<text text-anchor="middle" x="1159.93" y="-125.67" font-family="Times,serif" font-size="14.00">[std_msgs/msg/String]</text>
</g>
<!-- /hardware/robot_state_publisher&#45;&gt;/hardware/robot_description -->
<g id="edge1" class="edge">
<title>/hardware/robot_state_publisher&#45;&gt;/hardware/robot_description</title>
<path fill="none" stroke="black" d="M727.11,-143.09C806.14,-141.95 909.52,-140.46 995.31,-139.23"/>
<polygon fill="black" stroke="black" points="995.47,-142.72 1005.42,-139.08 995.37,-135.73 995.47,-142.72"/>
<text text-anchor="middle" x="862.5" y="-145.67" font-family="Times,serif" font-size="14.00">publishes</text>
</g>
<!-- /hardware/cartpole_simulator -->
<g id="node2" class="node">
<title>/hardware/cartpole_simulator</title>
<polygon fill="lightblue" stroke="black" points="716,-107.87 489,-107.87 489,-69.87 716,-69.87 716,-107.87"/>
<text text-anchor="middle" x="602.5" y="-92.67" font-family="Times,serif" font-size="14.00">/hardware/cartpole_simulator</text>
<text text-anchor="middle" x="602.5" y="-77.67" font-family="Times,serif" font-size="14.00">(breadcrumb_example)</text>
</g>
<!-- /hardware/joint_states -->
<g id="node4" class="node">
<title>/hardware/joint_states</title>
<ellipse fill="lightgreen" stroke="black" cx="1159.93" cy="-26.87" rx="161.85" ry="26.74"/>
<text text-anchor="middle" x="1159.93" y="-30.67" font-family="Times,serif" font-size="14.00">/hardware/joint_states</text>
<text text-anchor="middle" x="1159.93" y="-15.67" font-family="Times,serif" font-size="14.00">[sensor_msgs/msg/JointState]</text>
</g>
<!-- /hardware/cartpole_simulator&#45;&gt;/hardware/joint_states -->
<g id="edge2" class="edge">
<title>/hardware/cartpole_simulator&#45;&gt;/hardware/joint_states</title>
<path fill="none" stroke="orange" stroke-width="2" d="M680.99,-69.83C701.68,-65.32 724.1,-60.93 745,-57.87 826.04,-46.02 916.7,-38.58 992.47,-33.97"/>
<polygon fill="orange" stroke="orange" stroke-width="2" points="992.81,-37.46 1002.58,-33.37 992.39,-30.47 992.81,-37.46"/>
<text text-anchor="middle" x="862.5" y="-61.67" font-family="Times,serif" font-size="14.00">publishes (INCOMPATIBLE QOS)</text>
</g>
<!-- /hardware/joint_states&#45;&gt;/hardware/robot_state_publisher -->
<g id="edge3" class="edge">
<title>/hardware/joint_states&#45;&gt;/hardware/robot_state_publisher</title>
<path fill="none" stroke="black" d="M1035.17,-44.04C1022.32,-47.77 1009.7,-52.33 998,-57.87 988.59,-62.33 989.41,-68.42 980,-72.87 968.07,-78.51 826.36,-104.81 720.29,-124"/>
<polygon fill="black" stroke="black" points="719.36,-120.61 710.14,-125.83 720.6,-127.5 719.36,-120.61"/>
<text text-anchor="middle" x="862.5" y="-121.67" font-family="Times,serif" font-size="14.00">subscribed by</text>
</g>
<!-- /hardware/request/force -->
<g id="node5" class="node">
<title>/hardware/request/force</title>
<ellipse fill="lightgreen" stroke="black" cx="171" cy="-129.87" rx="133.79" ry="26.74"/>
<text text-anchor="middle" x="171" y="-133.67" font-family="Times,serif" font-size="14.00">/hardware/request/force</text>
<text text-anchor="middle" x="171" y="-118.67" font-family="Times,serif" font-size="14.00">[std_msgs/msg/Float64]</text>
</g>
<!-- /hardware/request/force&#45;&gt;/hardware/cartpole_simulator -->
<g id="edge4" class="edge">
<title>/hardware/request/force&#45;&gt;/hardware/cartpole_simulator</title>
<path fill="none" stroke="black" d="M291.93,-118.42C350.23,-112.86 420.2,-106.18 478.86,-100.58"/>
<polygon fill="black" stroke="black" points="479.3,-104.05 488.92,-99.62 478.63,-97.08 479.3,-104.05"/>
<text text-anchor="middle" x="410" y="-114.67" font-family="Times,serif" font-size="14.00">subscribed by</text>
</g>
<!-- /hardware/reset -->
<g id="node6" class="node">
<title>/hardware/reset</title>
<polygon fill="lightyellow" stroke="black" points="171,-84.87 0,-46.87 171,-8.87 342,-46.87 171,-84.87"/>
<text text-anchor="middle" x="171" y="-50.67" font-family="Times,serif" font-size="14.00">/hardware/reset</text>
<text text-anchor="middle" x="171" y="-35.67" font-family="Times,serif" font-size="14.00">[std_srvs/srv/Trigger]</text>
</g>
<!-- /hardware/reset&#45;&gt;/hardware/cartpole_simulator -->
<g id="edge5" class="edge">
<title>/hardware/reset&#45;&gt;/hardware/cartpole_simulator</title>
<path fill="none" stroke="black" stroke-dasharray="5,2" d="M290.22,-58.43C348.78,-64.16 419.45,-71.07 478.63,-76.86"/>
<polygon fill="black" stroke="black" points="478.49,-80.36 488.79,-77.85 479.18,-73.39 478.49,-80.36"/>
<text text-anchor="middle" x="410" y="-77.67" font-family="Times,serif" font-size="14.00">provided by</text>
</g>
</g>
</svg>
