<?xml version="1.0" encoding="UTF-8" standalone="no"?>
<!DOCTYPE svg PUBLIC "-//W3C//DTD SVG 1.1//EN"
 "http://www.w3.org/Graphics/SVG/1.1/DTD/svg11.dtd">
<!-- Generated by graphviz version 2.43.0 (0)
 -->
<!-- Title: ROS2Group_control Pages: 1 -->
<svg width="1394pt" height="403pt"
 viewBox="0.00 0.00 1393.55 402.90" xmlns="http://www.w3.org/2000/svg" xmlns:xlink="http://www.w3.org/1999/xlink">
<g id="graph0" class="graph" transform="scale(1 1) rotate(0) translate(4 398.9)">
<title>ROS2Group_control</title>
<polygon fill="white" stroke="transparent" points="-4,4 -4,-398.9 1389.55,-398.9 1389.55,4 -4,4"/>
<text text-anchor="middle" x="692.77" y="-379.7" font-family="Times,serif" font-size="14.00">Group: control</text>
<g id="clust1" class="cluster">
<title>cluster_control</title>
<polygon fill="lightgrey" stroke="black" points="794.26,-174.03 794.26,-251.03 1021.26,-251.03 1021.26,-174.03 794.26,-174.03"/>
<text text-anchor="middle" x="907.76" y="-235.83" font-family="Times,serif" font-size="14.00">control</text>
</g>
<!-- /control/cartpole_controller -->
<g id="node1" class="node">
<title>/control/cartpole_controller</title>
<polygon fill="lightblue" stroke="black" points="1013.26,-220.03 802.26,-220.03 802.26,-182.03 1013.26,-182.03 1013.26,-220.03"/>
<text text-anchor="middle" x="907.76" y="-204.83" font-family="Times,serif" font-size="14.00">/control/cartpole_controller</text>
<text text-anchor="middle" x="907.76" y="-189.83" font-family="Times,serif" font-size="14.00">(breadcrumb_example)</text>
</g>
<!-- /status/cartpole -->
<g id="node5" class="node">
<title>/status/cartpole</title>
<ellipse fill="lightgreen" stroke="black" cx="1251.9" cy="-237.03" rx="125.73" ry="26.74"/>
<text text-anchor="middle" x="1251.9" y="-240.83" font-family="Times,serif" font-size="14.00">/status/cartpole</text>
<text text-anchor="middle" x="1251.9" y="-225.83" font-family="Times,serif" font-size="14.00">[std_msgs/msg/String]</text>
</g>
<!-- /control/cartpole_controller&#45;&gt;/status/cartpole -->
<g id="edge4" class="edge">
<title>/control/cartpole_controller&#45;&gt;/status/cartpole</title>
<path fill="none" stroke="black" d="M1013.27,-212.02C1049.72,-215.86 1090.93,-220.19 1128.68,-224.17"/>
<polygon fill="black" stroke="black" points="1128.4,-227.66 1138.71,-225.22 1129.13,-220.69 1128.4,-227.66"/>
<text text-anchor="middle" x="1065.76" y="-223.83" font-family="Times,serif" font-size="14.00">publishes</text>
</g>
<!-- /hardware/request/force -->
<g id="node6" class="node">
<title>/hardware/request/force</title>
<ellipse fill="lightgreen" stroke="black" cx="1251.9" cy="-165.03" rx="133.79" ry="26.74"/>
<text text-anchor="middle" x="1251.9" y="-168.83" font-family="Times,serif" font-size="14.00">/hardware/request/force</text>
<text text-anchor="middle" x="1251.9" y="-153.83" font-family="Times,serif" font-size="14.00">[std_msgs/msg/Float64]</text>
</g>
<!-- /control/cartpole_controller&#45;&gt;/hardware/request/force -->
<g id="edge5" class="edge">
<title>/control/cartpole_controller&#45;&gt;/hardware/request/force</title>
<path fill="none" stroke="black" d="M1013.27,-190.03C1047.85,-186.39 1086.73,-182.3 1122.87,-178.5"/>
<polygon fill="black" stroke="black" points="1123.4,-181.96 1132.98,-177.43 1122.67,-175 1123.4,-181.96"/>
<text text-anchor="middle" x="1065.76" y="-190.83" font-family="Times,serif" font-size="14.00">publishes</text>
</g>
<!-- /cartpole/safety_controller/emergency_stop -->
<g id="node2" class="node">
<title>/cartpole/safety_controller/emergency_stop</title>
<ellipse fill="lightgreen" stroke="black" cx="333.13" cy="-345.03" rx="229.62" ry="26.74"/>
<text text-anchor="middle" x="333.13" y="-348.83" font-family="Times,serif" font-size="14.00">/cartpole/safety_controller/emergency_stop</text>
<text text-anchor="middle" x="333.13" y="-333.83" font-family="Times,serif" font-size="14.00">[std_msgs/msg/Bool]</text>
</g>
<!-- /cartpole/safety_controller/emergency_stop&#45;&gt;/control/cartpole_controller -->
<g id="edge1" class="edge">
<title>/cartpole/safety_controller/emergency_stop&#45;&gt;/control/cartpole_controller</title>
<path fill="none" stroke="black" d="M538.88,-333.03C581.45,-327.7 625.68,-320.04 666.26,-309.03 738.94,-289.3 817.54,-250.32 864.43,-224.98"/>
<polygon fill="black" stroke="black" points="866.27,-227.97 873.37,-220.11 862.92,-221.82 866.27,-227.97"/>
<text text-anchor="middle" x="734.26" y="-305.83" font-family="Times,serif" font-size="14.00">subscribed by</text>
</g>
<!-- /cartpole/bumper/emergency_stop -->
<g id="node3" class="node">
<title>/cartpole/bumper/emergency_stop</title>
<ellipse fill="lightgreen" stroke="black" cx="333.13" cy="-273.03" rx="183.7" ry="26.74"/>
<text text-anchor="middle" x="333.13" y="-276.83" font-family="Times,serif" font-size="14.00">/cartpole/bumper/emergency_stop</text>
<text text-anchor="middle" x="333.13" y="-261.83" font-family="Times,serif" font-size="14.00">[std_msgs/msg/Bool]</text>
</g>
<!-- /cartpole/bumper/emergency_stop&#45;&gt;/control/cartpole_controller -->
<g id="edge2" class="edge">
<title>/cartpole/bumper/emergency_stop&#45;&gt;/control/cartpole_controller</title>
<path fill="none" stroke="black" d="M485.13,-257.79C541.97,-251.76 607.14,-244.49 666.26,-237.03 718.83,-230.39 731.86,-227.87 784.26,-220.03 786.82,-219.64 789.41,-219.25 792.02,-218.86"/>
<polygon fill="black" stroke="black" points="792.82,-222.28 802.19,-217.32 791.78,-215.36 792.82,-222.28"/>
<text text-anchor="middle" x="734.26" y="-237.83" font-family="Times,serif" font-size="14.00">subscribed by</text>
</g>
<!-- /hardware/joint_states -->
<g id="node4" class="node">
<title>/hardware/joint_states</title>
<ellipse fill="lightgreen" stroke="black" cx="333.13" cy="-201.03" rx="161.85" ry="26.74"/>
<text text-anchor="middle" x="333.13" y="-204.83" font-family="Times,serif" font-size="14.00">/hardware/joint_states</text>
<text text-anchor="middle" x="333.13" y="-189.83" font-family="Times,serif" font-size="14.00">[sensor_msgs/msg/JointState]</text>
</g>
<!-- /hardware/joint_states&#45;&gt;/control/cartpole_controller -->
<g id="edge3" class="edge">
<title>/hardware/joint_states&#45;&gt;/control/cartpole_controller</title>
<path fill="none" stroke="black" d="M495.16,-201.03C589.57,-201.03 706.62,-201.03 791.74,-201.03"/>
<polygon fill="black" stroke="black" points="791.95,-204.53 801.95,-201.03 791.95,-197.53 791.95,-204.53"/>
<text text-anchor="middle" x="734.26" y="-204.83" font-family="Times,serif" font-size="14.00">subscribed by</text>
</g>
<!-- /control/enable -->
<g id="node7" class="node">
<title>/control/enable</title>
<polygon fill="lightyellow" stroke="black" points="333.13,-156.03 160.13,-118.03 333.13,-80.03 506.13,-118.03 333.13,-156.03"/>
<text text-anchor="middle" x="333.13" y="-121.83" font-family="Times,serif" font-size="14.00">/control/enable</text>
<text text-anchor="middle" x="333.13" y="-106.83" font-family="Times,serif" font-size="14.00">[std_srvs/srv/SetBool]</text>
</g>
<!-- /control/enable&#45;&gt;/control/cartpole_controller -->
<g id="edge6" class="edge">
<title>/control/enable&#45;&gt;/control/cartpole_controller</title>
<path fill="none" stroke="black" stroke-dasharray="5,2" d="M440.15,-132.66C531.41,-145.36 666.58,-164.42 784.26,-182.03 786.82,-182.41 789.41,-182.8 792.02,-183.19"/>
<polygon fill="black" stroke="black" points="791.78,-186.69 802.19,-184.73 792.82,-179.77 791.78,-186.69"/>
<text text-anchor="middle" x="734.26" y="-185.83" font-family="Times,serif" font-size="14.00">provided by</text>
</g>
<!-- /control/track_position -->
<g id="node8" class="node">
<title>/control/track_position</title>
<polygon fill="lightcoral" stroke="black" points="666.39,-31.03 499.76,-62.08 166.5,-62.08 -0.13,-31.03 166.5,0.03 499.76,0.03 666.39,-31.03"/>
<text text-anchor="middle" x="333.13" y="-34.83" font-family="Times,serif" font-size="14.00">/control/track_position</text>
<text text-anchor="middle" x="333.13" y="-19.83" font-family="Times,serif" font-size="14.00">[breadcrumb_example_interfaces/action/TrackPosition]</text>
</g>
<!-- /control/track_position&#45;&gt;/control/cartpole_controller -->
<g id="edge7" class="edge">
<title>/control/track_position&#45;&gt;/control/cartpole_controller</title>
<path fill="none" stroke="black" stroke-dasharray="1,5" d="M572.33,-48.7C604.31,-54.26 636.37,-61.53 666.26,-71.03 744.08,-95.76 825.91,-145.96 871.23,-176.23"/>
<polygon fill="black" stroke="black" points="869.54,-179.31 879.79,-182 873.46,-173.51 869.54,-179.31"/>
<text text-anchor="middle" x="734.26" y="-126.83" font-family="Times,serif" font-size="14.00">served by</text>
</g>
</g>
</svg>
