<?xml version="1.0" encoding="UTF-8" standalone="no"?>
<!DOCTYPE svg PUBLIC "-//W3C//DTD SVG 1.1//EN"
 "http://www.w3.org/Graphics/SVG/1.1/DTD/svg11.dtd">
<!-- Generated by graphviz version 2.43.0 (0)
 -->
<!-- Title: ROS2Group_hardware Pages: 1 -->
<svg width="1019pt" height="328pt"
 viewBox="0.00 0.00 1019.29 328.00" xmlns="http://www.w3.org/2000/svg" xmlns:xlink="http://www.w3.org/1999/xlink">
<g id="graph0" class="graph" transform="scale(1 1) rotate(0) translate(4 324)">
<title>ROS2Group_hardware</title>
<polygon fill="white" stroke="transparent" points="-4,4 -4,-324 1015.29,-324 1015.29,4 -4,4"/>
<text text-anchor="middle" x="505.64" y="-304.8" font-family="Times,serif" font-size="14.00">Group: hardware</text>
<g id="clust1" class="cluster">
<title>cluster_hardware</title>
<polygon fill="lightgrey" stroke="black" points="321.29,-156 321.29,-289 1003.14,-289 1003.14,-156 321.29,-156"/>
<text text-anchor="middle" x="662.21" y="-273.8" font-family="Times,serif" font-size="14.00">hardware</text>
</g>
<!-- /hardware/robot_state_publisher -->
<g id="node1" class="node">
<title>/hardware/robot_state_publisher</title>
<polygon fill="lightblue" stroke="black" points="578.29,-258 329.29,-258 329.29,-220 578.29,-220 578.29,-258"/>
<text text-anchor="middle" x="453.79" y="-242.8" font-family="Times,serif" font-size="14.00">/hardware/robot_state_publisher</text>
<text text-anchor="middle" x="453.79" y="-227.8" font-family="Times,serif" font-size="14.00">(robot_state_publisher)</text>
</g>
<!-- /hardware/robot_description -->
<g id="node3" class="node">
<title>/hardware/robot_description</title>
<ellipse fill="lightgreen" stroke="black" cx="840.29" cy="-231" rx="154.71" ry="26.74"/>
<text text-anchor="middle" x="840.29" y="-234.8" font-family="Times,serif" font-size="14.00">/hardware/robot_description</text>
<text text-anchor="middle" x="840.29" y="-219.8" font-family="Times,serif" font-size="14.00">[std_msgs/msg/String]</text>
</g>
<!-- /hardware/robot_state_publisher&#45;&gt;/hardware/robot_description -->
<g id="edge1" class="edge">
<title>/hardware/robot_state_publisher&#45;&gt;/hardware/robot_description</title>
<path fill="none" stroke="black" d="M578.3,-236.43C609.44,-235.78 643.36,-235.08 676.12,-234.39"/>
<polygon fill="black" stroke="black" points="676.32,-237.89 686.25,-234.18 676.18,-230.89 676.32,-237.89"/>
<text text-anchor="middle" x="623.79" y="-238.8" font-family="Times,serif" font-size="14.00">pub</text>
</g>
<!-- /hardware/cartpole_simulator -->
<g id="node2" class="node">
<title>/hardware/cartpole_simulator</title>
<polygon fill="lightblue" stroke="black" points="567.29,-202 340.29,-202 340.29,-164 567.29,-164 567.29,-202"/>
<text text-anchor="middle" x="453.79" y="-186.8" font-family="Times,serif" font-size="14.00">/hardware/cartpole_simulator</text>
<text text-anchor="middle" x="453.79" y="-171.8" font-family="Times,serif" font-size="14.00">(breadcrumb_example)</text>
</g>
<!-- /hardware/joint_states -->
<g id="node4" class="node">
<title>/hardware/joint_states</title>
<ellipse fill="lightgreen" stroke="black" cx="840.29" cy="-121" rx="161.85" ry="26.74"/>
<text text-anchor="middle" x="840.29" y="-124.8" font-family="Times,serif" font-size="14.00">/hardware/joint_states</text>
<text text-anchor="middle" x="840.29" y="-109.8" font-family="Times,serif" font-size="14.00">[sensor_msgs/msg/JointState]</text>
</g>
<!-- /hardware/cartpole_simulator&#45;&gt;/hardware/joint_states -->
<g id="edge2" class="edge">
<title>/hardware/cartpole_simulator&#45;&gt;/hardware/joint_states</title>
<path fill="none" stroke="black" d="M532.35,-164C553.05,-159.33 575.44,-154.63 596.29,-151 627.46,-145.56 661.05,-140.75 693.02,-136.66"/>
<polygon fill="black" stroke="black" points="693.85,-140.09 703.34,-135.36 692.98,-133.14 693.85,-140.09"/>
<text text-anchor="middle" x="623.79" y="-154.8" font-family="Times,serif" font-size="14.00">pub</text>
</g>
<!-- /hardware/reset -->
<g id="node6" class="node">
<title>/hardware/reset</title>
<polygon fill="lightyellow" stroke="black" points="840.29,-76 669.29,-38 840.29,0 1011.29,-38 840.29,-76"/>
<text text-anchor="middle" x="840.29" y="-41.8" font-family="Times,serif" font-size="14.00">/hardware/reset</text>
<text text-anchor="middle" x="840.29" y="-26.8" font-family="Times,serif" font-size="14.00">[std_srvs/srv/Trigger]</text>
</g>
<!-- /hardware/cartpole_simulator&#45;&gt;/hardware/reset -->
<g id="edge5" class="edge">
<title>/hardware/cartpole_simulator&#45;&gt;/hardware/reset</title>
<path fill="none" stroke="black" stroke-dasharray="5,2" d="M491.62,-163.99C533.76,-142.76 605.23,-108.32 669.29,-85 694.42,-75.85 722.19,-67.47 747.87,-60.41"/>
<polygon fill="black" stroke="black" points="748.87,-63.76 757.61,-57.76 747.04,-57.01 748.87,-63.76"/>
<text text-anchor="middle" x="623.79" y="-118.8" font-family="Times,serif" font-size="14.00">provide</text>
</g>
<!-- /hardware/joint_states&#45;&gt;/hardware/robot_state_publisher -->
<g id="edge3" class="edge">
<title>/hardware/joint_states&#45;&gt;/hardware/robot_state_publisher</title>
<path fill="none" stroke="black" d="M701.61,-140.15C690.47,-143.49 679.56,-147.4 669.29,-152 660.04,-156.14 659.61,-160.22 651.29,-166 619.98,-187.73 613.57,-196.59 578.29,-211 570.14,-214.32 561.53,-217.29 552.8,-219.94"/>
<polygon fill="black" stroke="black" points="702.79,-143.46 711.46,-137.37 700.88,-136.72 702.79,-143.46"/>
<text text-anchor="middle" x="623.79" y="-205.8" font-family="Times,serif" font-size="14.00">sub</text>
</g>
<!-- /hardware/request/force -->
<g id="node5" class="node">
<title>/hardware/request/force</title>
<ellipse fill="lightgreen" stroke="black" cx="133.64" cy="-183" rx="133.79" ry="26.74"/>
<text text-anchor="middle" x="133.64" y="-186.8" font-family="Times,serif" font-size="14.00">/hardware/request/force</text>
<text text-anchor="middle" x="133.64" y="-171.8" font-family="Times,serif" font-size="14.00">[std_msgs/msg/Float64]</text>
</g>
<!-- /hardware/request/force&#45;&gt;/hardware/cartpole_simulator -->
<g id="edge4" class="edge">
<title>/hardware/request/force&#45;&gt;/hardware/cartpole_simulator</title>
<path fill="none" stroke="black" d="M277.89,-183C298.68,-183 319.84,-183 339.91,-183"/>
<polygon fill="black" stroke="black" points="277.72,-179.5 267.72,-183 277.72,-186.5 277.72,-179.5"/>
<text text-anchor="middle" x="298.29" y="-186.8" font-family="Times,serif" font-size="14.00">sub</text>
</g>
</g>
</svg>
