<?xml version="1.0" encoding="UTF-8" standalone="no"?>
<!DOCTYPE svg PUBLIC "-//W3C//DTD SVG 1.1//EN"
 "http://www.w3.org/Graphics/SVG/1.1/DTD/svg11.dtd">
<!-- Generated by graphviz version 2.43.0 (0)
 -->
<!-- Title: ROS2Group_control Pages: 1 -->
<svg width="1410pt" height="259pt"
 viewBox="0.00 0.00 1410.12 258.90" xmlns="http://www.w3.org/2000/svg" xmlns:xlink="http://www.w3.org/1999/xlink">
<g id="graph0" class="graph" transform="scale(1 1) rotate(0) translate(4 254.9)">
<title>ROS2Group_control</title>
<polygon fill="white" stroke="transparent" points="-4,4 -4,-254.9 1406.12,-254.9 1406.12,4 -4,4"/>
<text text-anchor="middle" x="701.06" y="-235.7" font-family="Times,serif" font-size="14.00">Group: control</text>
<g id="clust1" class="cluster">
<title>cluster_control</title>
<polygon fill="lightgrey" stroke="black" points="425.85,-91.03 425.85,-168.03 652.85,-168.03 652.85,-91.03 425.85,-91.03"/>
<text text-anchor="middle" x="539.35" y="-152.83" font-family="Times,serif" font-size="14.00">control</text>
</g>
<!-- /control/cartpole_controller -->
<g id="node1" class="node">
<title>/control/cartpole_controller</title>
<polygon fill="lightblue" stroke="black" points="644.85,-137.03 433.85,-137.03 433.85,-99.03 644.85,-99.03 644.85,-137.03"/>
<text text-anchor="middle" x="539.35" y="-121.83" font-family="Times,serif" font-size="14.00">/control/cartpole_controller</text>
<text text-anchor="middle" x="539.35" y="-106.83" font-family="Times,serif" font-size="14.00">(breadcrumb_example)</text>
</g>
<!-- /hardware/request/force -->
<g id="node3" class="node">
<title>/hardware/request/force</title>
<ellipse fill="lightgreen" stroke="black" cx="1068.99" cy="-201.03" rx="133.79" ry="26.74"/>
<text text-anchor="middle" x="1068.99" y="-204.83" font-family="Times,serif" font-size="14.00">/hardware/request/force</text>
<text text-anchor="middle" x="1068.99" y="-189.83" font-family="Times,serif" font-size="14.00">[std_msgs/msg/Float64]</text>
</g>
<!-- /control/cartpole_controller&#45;&gt;/hardware/request/force -->
<g id="edge2" class="edge">
<title>/control/cartpole_controller&#45;&gt;/hardware/request/force</title>
<path fill="none" stroke="black" d="M610.03,-137.07C647.15,-146.63 693.72,-157.71 735.85,-165.03 800.68,-176.28 873.26,-184.63 934.01,-190.44"/>
<polygon fill="black" stroke="black" points="933.75,-193.93 944.04,-191.39 934.41,-186.96 933.75,-193.93"/>
<text text-anchor="middle" x="690.35" y="-164.83" font-family="Times,serif" font-size="14.00">pub</text>
</g>
<!-- /control/enable -->
<g id="node4" class="node">
<title>/control/enable</title>
<polygon fill="lightyellow" stroke="black" points="1068.99,-156.03 895.99,-118.03 1068.99,-80.03 1241.99,-118.03 1068.99,-156.03"/>
<text text-anchor="middle" x="1068.99" y="-121.83" font-family="Times,serif" font-size="14.00">/control/enable</text>
<text text-anchor="middle" x="1068.99" y="-106.83" font-family="Times,serif" font-size="14.00">[std_srvs/srv/SetBool]</text>
</g>
<!-- /control/cartpole_controller&#45;&gt;/control/enable -->
<g id="edge3" class="edge">
<title>/control/cartpole_controller&#45;&gt;/control/enable</title>
<path fill="none" stroke="black" stroke-dasharray="5,2" d="M644.91,-118.03C713.55,-118.03 805.18,-118.03 885.61,-118.03"/>
<polygon fill="black" stroke="black" points="885.87,-121.53 895.87,-118.03 885.87,-114.53 885.87,-121.53"/>
<text text-anchor="middle" x="690.35" y="-121.83" font-family="Times,serif" font-size="14.00">provide</text>
</g>
<!-- /control/track_position -->
<g id="node5" class="node">
<title>/control/track_position</title>
<polygon fill="lightcoral" stroke="black" points="1402.25,-31.03 1235.62,-62.08 902.35,-62.08 735.72,-31.03 902.35,0.03 1235.62,0.03 1402.25,-31.03"/>
<text text-anchor="middle" x="1068.99" y="-34.83" font-family="Times,serif" font-size="14.00">/control/track_position</text>
<text text-anchor="middle" x="1068.99" y="-19.83" font-family="Times,serif" font-size="14.00">[breadcrumb_example_interfaces/action/TrackPosition]</text>
</g>
<!-- /control/cartpole_controller&#45;&gt;/control/track_position -->
<g id="edge4" class="edge">
<title>/control/cartpole_controller&#45;&gt;/control/track_position</title>
<path fill="none" stroke="black" stroke-dasharray="1,5" d="M610.98,-98.95C647.95,-89.5 694.11,-78.53 735.85,-71.03 770.6,-64.78 807.57,-59.24 843.75,-54.43"/>
<polygon fill="black" stroke="black" points="844.47,-57.87 853.93,-53.1 843.56,-50.93 844.47,-57.87"/>
<text text-anchor="middle" x="690.35" y="-89.83" font-family="Times,serif" font-size="14.00">serve</text>
</g>
<!-- /hardware/joint_states -->
<g id="node2" class="node">
<title>/hardware/joint_states</title>
<ellipse fill="lightgreen" stroke="black" cx="161.93" cy="-118.03" rx="161.85" ry="26.74"/>
<text text-anchor="middle" x="161.93" y="-121.83" font-family="Times,serif" font-size="14.00">/hardware/joint_states</text>
<text text-anchor="middle" x="161.93" y="-106.83" font-family="Times,serif" font-size="14.00">[sensor_msgs/msg/JointState]</text>
</g>
<!-- /hardware/joint_states&#45;&gt;/control/cartpole_controller -->
<g id="edge1" class="edge">
<title>/hardware/joint_states&#45;&gt;/control/cartpole_controller</title>
<path fill="none" stroke="black" d="M324.05,-118.03C357.52,-118.03 392.14,-118.03 423.54,-118.03"/>
<polygon fill="black" stroke="black" points="423.61,-121.53 433.61,-118.03 423.61,-114.53 423.61,-121.53"/>
<text text-anchor="middle" x="378.85" y="-121.83" font-family="Times,serif" font-size="14.00">subbed by</text>
</g>
</g>
</svg>
